<mxfile host="app.diagrams.net" modified="2024-01-11T16:46:07.574Z" agent="Mozilla/5.0 (Windows NT 10.0; Win64; x64) AppleWebKit/537.36 (KHTML, like Gecko) Chrome/120.0.0.0 Safari/537.36" etag="U3OiGWj40k8U53DR5J23" version="22.1.18" type="github">
  <diagram name="Page-1" id="iGJ_U4kbXOZyFWqY7t-P">
    <mxGraphModel dx="1276" dy="543" grid="1" gridSize="10" guides="1" tooltips="1" connect="1" arrows="1" fold="1" page="1" pageScale="1" pageWidth="850" pageHeight="1100" math="0" shadow="0">
      <root>
        <mxCell id="0" />
        <mxCell id="1" parent="0" />
        <mxCell id="Trhej5F6vRkkJm_kWXe6-1" value="" style="shape=image;verticalLabelPosition=bottom;labelBackgroundColor=default;verticalAlign=top;aspect=fixed;imageAspect=0;image=data:image/jpeg,/9j/4AAQSkZJRgABAQAAAQABAAD/4gHYSUNDX1BST0ZJTEUAAQEAAAHIAAAAAAQwAABtbnRyUkdCIFhZWiAH4AABAAEAAAAAAABhY3NwAAAAAAAAAAAAAAAAAAAAAAAAAAAAAAAAAAAAAQAA9tYAAQAAAADTLQAAAAAAAAAAAAAAAAAAAAAAAAAAAAAAAAAAAAAAAAAAAAAAAAAAAAAAAAAAAAAAAAAAAAlkZXNjAAAA8AAAACRyWFlaAAABFAAAABRnWFlaAAABKAAAABRiWFlaAAABPAAAABR3dHB0AAABUAAAABRyVFJDAAABZAAAAChnVFJDAAABZAAAAChiVFJDAAABZAAAAChjcHJ0AAABjAAAADxtbHVjAAAAAAAAAAEAAAAMZW5VUwAAAAgAAAAcAHMAUgBHAEJYWVogAAAAAAAAb6IAADj1AAADkFhZWiAAAAAAAABimQAAt4UAABjaWFlaIAAAAAAAACSgAAAPhAAAts9YWVogAAAAAAAA9tYAAQAAAADTLXBhcmEAAAAAAAQAAAACZmYAAPKnAAANWQAAE9AAAApbAAAAAAAAAABtbHVjAAAAAAAAAAEAAAAMZW5VUwAAACAAAAAcAEcAbwBvAGcAbABlACAASQBuAGMALgAgADIAMAAxADb/2wBDAAMCAgICAgMCAgIDAwMDBAYEBAQEBAgGBgUGCQgKCgkICQkKDA8MCgsOCwkJDRENDg8QEBEQCgwSExIQEw8QEBD/2wBDAQMDAwQDBAgEBAgQCwkLEBAQEBAQEBAQEBAQEBAQEBAQEBAQEBAQEBAQEBAQEBAQEBAQEBAQEBAQEBAQEBAQEBD/wAARCAQbAhMDASIAAhEBAxEB/8QAHQABAAMAAwEBAQAAAAAAAAAAAAUGBwMECAIBCf/EAFsQAAAFAgQCBAYOBwYDBwMCBwECAwQFAAYHERITFBUIFiFhIjFBUXXVFxgyRlZYYnGBlZaXwtMjNlJXc4K1QlVjctLUJTODJDQ3ZJSztAl2hEOjNURTVJGTsf/EABsBAQEBAQEBAQEAAAAAAAAAAAACAwEEBQYH/8QANREAAgEABgcHBQACAwEAAAAAAAECAxESMTJRBBNBcZHB8CEzUmGBodEUIkKx4QXxFSNDov/aAAwDAQACEQMRAD8A/qnSlKAVS8X27d3Y6jR2gmsgtKRKaiahQMQ5BkW4CUwD2CAh2CA1dKp+K/6nh6Xh/wCpNq30Xv4b1+zKn7qW5/opvsfWF8CID6tR/wBNPY+sL4EQH1aj/pqfpX3NZPNnyrEciA9j6wvgRAfVqP8App7H1hfAiA+rUf8ATU/SmsnmxYjkQHsfWF8CID6tR/009j6wvgRAfVqP+mp+lNZPNixHIgPY+sL4EQH1aj/pp7H1hfAiA+rUf9NT9KayebFiORAex/YXwIgPq1H/AE09j6wvgRAfVqP+mp+lNZPNixHIgPY+sL4EQH1aj/pp7H1hfAiA+rUf9NT9KayebFiORAex9YXwIgPq1H/TT2P7C+BEB9Wo/wCmp+lNZPNixHIqMvZ9oxRol/F2tEM3KU9D6FkGKSahc5BAByMUoCGYCIfMI1uNZLcv/do309Df1FvWtV87/ISclFt58j26GkrVXkKUpXzT2ilKUApSlAKUpQClKUArGn9r2zN3xeLuZt2MfrklEEyqOmiapwIEc0ECgJgEcsxEcu8a2WsuS/XC8/S6H9NZ19D/ABzcZyay5o8emJOMa8+TI72PrC+BEB9Wo/6aex9YXwIgPq1H/TU/Svp6yebPDYjkQHsfWF8CID6tR/009j6wvgRAfVqP+mp+lNZPNixHIgPY+sL4EQH1aj/pp7H1hfAiA+rUf9NT9KayebFiORAex9YXwIgPq1H/AE09j6wvgRAfVqP+mp+lNZPNixHIgPY+sL4EQH1aj/pp7H1hfAiA+rUf9NT9KayebFiORAex9YXwIgPq1H/TT2PrC+BEB9Wo/wCmp+lNZPNixHIgPY+sL4EQH1aj/pp7H1hfAiA+rUf9NT9KayebFiOR94RR7CKLdjCLYt2bZKeLoRQSKmmXOPZiORSgABmIiPziNaBVHwx/7zd/p4n9OZVeK+Lpjrpm35fpH09H7pClKV5jcVjT+17Zm74vF3M27GP1ySiCZVHTRNU4ECOaCBQEwCOWYiOXeNbLWXJfrhefpdD+ms6+h/jm4zk1lzR49MScY158mR3sfWF8CID6tR/009j6wvgRAfVqP+mp+lfT1k82eGxHIgPY+sL4EQH1aj/pp7H1hfAiA+rUf9NT9KayebFiORAex9YXwIgPq1H/AE09j6wvgRAfVqP+mp+lNZPNixHIgPY+sL4EQH1aj/pp7H1hfAiA+rUf9NT9KayebFiORAex9YXwIgPq1H/TT2PrC+BEB9Wo/wCmp+lNZPNixHIgPY+sL4EQH1aj/pp7H1hfAiA+rUf9NT9KayebFiORAex9YXwIgPq1H/TT2PrC+BEB9Wo/6an6U1k82LEcjx7jRHsIrEuYYRjFuzbJcPoRQSKmmXNumI5FKAAGYiI/OI0rsY7/APitOf8A43/xkqV+n0d10MW8l+j4tL2Ukt7PftKUr+an7QVT8V/1PD0vD/1JtVwqn4r/AKnh6Xh/6k2rfRe/hvX7Mqfupbn+iMpSlfZPmClKUApSvGfSD6QrO1ukC2dt8aI+BjMMjRpJe3DzyLYZwz9XS5A7cxwMsLduKaoZAOQmGonNQVbKjFydSPZlK8r3IrJXT0ir4i1rZxZuyJYxkGoyTtC+jwzRjvJKicx0+aMwOJ8ijmUpx8HyeWiX5jHeWD/SExFuN5dc85thGNb28whXckqq1bSisYDhmYhTGMUqiiqR0xMA5mMoXtEe0ZdKleUqOvsR7jpXii1m/SEQ6Ks3G25NXNiBdFt3u7Qk03FxOGspKR7dYBXbIPCG3UTCHYXbMAgACBc89I+g+jNdsHeWEcdJQMlejlJu5dNF0byMJphiuRYwHaOTCAGOZIR0AY4mOJQKJjGNmNdjSWnVUclCyqzVKUpWhApSlARFy/8Ado309Df1FvWtVkty/wDdo309Df1FvWtV4NPuj68j2aJ+XpzFKUr5x7BSlKAUpSgFKUoBSlKAVlyX64Xn6XQ/prOtRrLkv1wvP0uh/TWde/8Ax+OW7mjyaZhjv5M71KV8KqpIJHXWUKRNMonOYw5AUoBmIiPmr6J4j7pXi/AXpGsZ7Hh/Ku8ZmE/FYjllBirbTnkHIwgx6mTcCNynEyIuG5VFRzAMxKFTlv4x4r3TdeHF/wAnKxCEHckBc8wyiI0HKRE00EiC3SeAZYxHShcsxOUEgKYTFKUfdVkqZNVmjo2metKV5GR6RnSFWgmk0JcOycww49kBNPlL43DijoBZmI8WG7uCYRKr4G14hIt46kri6RN6QhLpuO3IWNM6NI2Q0bN3zp4uiUksZEioaBWBNMxQWHSZIiYCIAY4HrutiNWz1PSvNaWM18PLog7WuROLcyUZicpazp3GcbHt3Lfl53KagIFdGzNkYpTEWOqmIgJtOenTVkek1i1NxmJtuTisPZF2Q9vSspDxMjbT9rINytVDkBwkdZUzeSQMQCiVdIyWkwZikYogNNbE5q2z17SvO1h4qYohMx1qT1xWqMdBWFFXVMyriLdAs63d0FCB/wBqNt+AkURUHcEBAw6DagAua3X0kcdJix8QGTVaKhVW9rsblt+eSgF2gqtHDrZOUiCzw6/iHwF1SNj9gm4cMyiB0qSrCo23Ue06V50urHPE+3E7wlWXVhzF4WNo4biSXjXBXM0osiRZYzQ3E5MylIcNO4VxrNmAmKACNW3C3Ei/sQ8S7/jF1rfaWvZkynFIIEj1jP3YKx7VyU5lhcbaeky5wEASNqASh4AlET9U03UcsOqs16lKVZJ28Mf+83f6eJ/TmVXiqPhj/wB5u/08T+nMqvFfI0vvn6fpH0tH7tdbRSlK8xsKy5L9cLz9Lof01nWo1lyX64Xn6XQ/prOvf/j8ct3NHk0zDHfyZ3qUpX0TxClKxTHZmvPYmYTWetP3DHxUzIyoP0oadexR3IJMTHTA6rRVNQQAwAOWrKuSdlVnYqt1G10ryo2xbvmwnl44V2tcIzcnF3cWHtgsu0dTj9VA0am9O1Ed9HeOQTiALOnSJSEOUTqGECgf4trHTFG8LmwkuqUm4a24SUtmdl7iiTMlDpmWZGImobeIuIkDIREoZKgTws90dIljWorVs9XUrxbdHSLxfuGzb4iHyKMdot+KuS3JuNZOYY6yC78iQlAijlVwKYh2Aqom2OYNQigAGCtJlseL/s97d9jXU+thW5IxaHCDfMYR8oi6LIicqaIsSLKKqrlMioHYskmYNJjHRKBhAqWLGrZ6JpXkaT6UuOLTCyPuhew28dINbkloK45MttOpdrEkZlMJF3DJi7OoimYQADqEcLlT0jluagCpC4ulrdzm4GjLDmEbXC3aW9FTrpKItiYmyzIvDD+hau2pCkZFKQhxBVymbUIgAkJoNXNbE7q5HqmlfKSm6kRXQYusoG0mDIQzDxCHkGvqtTMUpSgPIuO//itOf/jf/GSpTHf/AMVpz/8AG/8AjJUr9Vo/cw3L9Hw6bvJb2e/aUpX81P2gqn4r/qeHpeH/AKk2q4VT8V/1PD0vD/1JtW+i9/Dev2ZU/dS3P9EZSlK+yfMFKUoBVUQwssFtD3NAEt5MzG8XDl1OJKLqqC9VXIBFRMYxhMGZQAAAogBQANIBVrpXGk7xXUZk56OOFq8lzdsldcY7Fi0jTqRN6zUdut2xNCBVAbOyAoJCiIAYwCbtHMRrty+AGElwLO3M3aYvln0hGSjlVxIOjnUdx4ADRUTCpnmQChn5D9uvVmOehUrliOR208yhyeBuGEtCrwLq3l0m7iaUuLdaSjtq6Rkjm1HcIuUlSrIGEcw/RnKGQiXLSIgNhs6y7asGCStu1I4zRikoosIKLqOFVVVDCZRVVZUxlFVDGERMc5jGER7RGpuldUUu1IVtilKV04KUpQERcv8A3aN9PQ39Rb1rVZLcv/do309Df1FvWtV4NPuj68j2aJ+XpzFKUr5x7BSlKAUpSgFKUoBSlKAVlyX64Xn6XQ/prOtRrLkv1wvP0uh/TWde/wDx+OW7mjyaZhjv5M71dOZiGFwRD6ClUjqspFuo1ckIqdIx0jlEpgA5BAxcwEQzKICHkGu5SvoniKo4wrsFzDWzb6luplYWc4bOoNJNdVPglUCCRISmKYDCAFESiBhEDAI6gGoOK6O+D8JNhcEbaiqTxMj9JABlHh0Wqb0A4pNuiZUUkE1MgESJlKXV4QAA9taPSuWVkdtPMopMD8Lk2CEYS18mza3D2kkTjXHgxJ8tTfPczHPSHhiOvs91XG6wJwqeILtnNq603K8S5VLxzkNSsYYhmJuxTs2xTJ2B2Gy8PVmNX6lcsxyFp5lLNg5huaYGfNbYC/Gd6yiqLtftkuH4fe069P8AyvB0ZaPLpz7ajIno74Pwrt+7ZWoqcZCPdRRkXUo8ct2zJyYDLt2qCqpk2iZxAomKgVMB0l8wZaPSlmOQtPMpVtYNYdWmKh4iFcnOtDp2+qd/KO351I9MxzEQMZwqcTFAVTgAiOeQgXPIAAK7G9FrA6KZS7BtaT1RKdiSwT4XU9IuVDsCm1JoEUVXMdIiYhmnoEop/wBjTWr0pYjkLTzM9d4B4WSD+PkpCDfu149FsgPETb9Uj4rcc0OOIZYSvzJj2lM6BUwD2gNWa37Jti1pWfmoGM4V7dD4slLK7yh+IclRTRA+RjCBP0aKZciAAeDnlmIiM5SuqKVyFbYpSldOHbwx/wC83f6eJ/TmVXiqPhj/AN5u/wBPE/pzKrxXyNL75+n6R9LR+7XW0UpSvMbCsuS/XC8/S6H9NZ1qNZcl+uF5+l0P6azr3/4/HLdzR5NMwx38md6lKV9E8Qqo37hVZmJasS5upvK8TBLKLxzqMnH0W4bnUJoOJVWayR8hL2CAmEMvJVupXGk+xhOq4zt30f8ACl9b7C21oB8VvGvlJNB0jNPkpAXahTEUWUekWByqc5DCU4nUNrL2GzAACvhj0eMIIuMtuHjbUVaMrSTct4lFCUeJgig4HNdA+SuayJ/KkrrJ2B4PYFaPSuWI5HbTzMja9FHAZqwlIwbMdOm01GpQ74j6ckHYqsUlAUSbZrLmEqRDFDSQogBQzKAAAiAyvtesJRg5CANb746Uo/Qk3Ls82/M/FyhlsKEeitxKe2AABAIoUCBmBQABEK0elLEcjtqWZlqPRlwYawSNux9tSLBs3eOpBJdjcEk1eFXcgAOB4tJcrjJXIBULuaTj2mAR7a7j3o8YOvjQoHs0iCMAyQjWjVm+ctWyjRAwGRQcIJKFTdpkMUDFIuVQpREwgGZhz0alLEcjlp5gAAAyAMgClKVRwUpSgPIuO/8A4rTn/wCN/wDGSpTHf/xWnP8A8b/4yVK/VaP3MNy/R8Om7yW9nv2lKV/NT9oKp+K/6nh6Xh/6k2q4VXb+g5O4rZUjYbhReFeMnaZXKpk0jbDpJYSiYpTCXMExABAo9ohW2jyUaaEndWv2Z0ycqOSWTK9SuHkWJv8AcNsfXrj/AGdORYm/3DbH164/2dfX1lH4lxR83VzyfA5qVw8ixN/uG2Pr1x/s6cixN/uG2Pr1x/s6ayj8S4oaueT4HNSuHkWJv9w2x9euP9nTkWJv9w2x9euP9nTWUfiXFDVzyfA5qVw8ixN/uG2Pr1x/s66EcniHJvJRk3t23SniHZWa4nnFwAxzIJLAJcmg5hpWIHbkOYD2ZZCPVODrakuKDhJbHwJWlcPIsTf7htj69cf7OnIsTf7htj69cf7Ouayj8S4oaueT4HNSuHkWJv8AcNsfXrj/AGdORYm/3DbH164/2dNZR+JcUNXPJ8DmpXDyLE3+4bY+vXH+zpyLE3+4bY+vXH+zprKPxLihq55PgR1y/wDdo309Df1FvWtVmDi0MQ5RVgg9jLdbN0JJi8WVSl11TgRBymsYCkFqUBEQTEAzMAZj460+vDps4ysqLrv5Hr0WMo11oUpSvAesUpSgFKUoBSlKAUpSgFZcl+uF5+l0P6azrUazmRtS+kLmnpKGYQLpnLPEnaZnMos3VJpaoIiUSlbqB40REBA3iEPFXt0GcYTladXZzR5dKi5RVS28mfdK4eRYm/3DbH164/2dORYm/wBw2x9euP8AZ19DWUfiXFHj1c8nwOalcPIsTf7htj69cf7OnIsTf7htj69cf7Omso/EuKGrnk+BzUrh5Fib/cNsfXrj/Z05Fib/AHDbH164/wBnTWUfiXFDVzyfA5qVFyqWIkPwfE27bhuNdps09ucXHI588hHNoHZ2d/zV3uRYm/3DbH164/2ddc4JV2lxQsSuqfA5qVw8ixN/uG2Pr1x/s6cixN/uG2Pr1x/s65rKPxLihq55Pgc1K4eRYm/3BbH164/2dORYm/3DbH164/2dNZR+JcUNXPJ8DmpXDyLE3+4bY+vXH+zpyLE3+4bY+vXH+zprKPxLihq55PgSOGP/AHm7/TxP6cyq8VVMP7fnYJKaXuBNgk4lZIHhUmbk65CEBsgiACc6aYiOaIj7nLIQ7Rq118rSpKVK2vL9H0aBONGkxSlK85qKy5L9cLz9Lof01nWo1nMjal9IXNPSUMwgXTOWeJO0zOZRZuqTS1QREolK3UDxoiICBvEIeKvboM4wnK06uzmjy6VFyiqlt5M+6Vw8ixN/uG2Pr1x/s6cixN/uG2Pr1x/s6+hrKPxLijx6ueT4HNSuHkWJv9w2x9euP9nTkWJv9w2x9euP9nTWUfiXFDVzyfA5qVw8ixN/uG2Pr1x/s6cixN/uG2Pr1x/s6ayj8S4oaueT4HNSouVSxEh+D4m3bcNxrtNmntzi45HPnkI5tA7Ozv8AmrvcixN/uG2Pr1x/s665wSrtLihYldU+BzUrh5Fib/cNsfXrj/Z05Fib/cNsfXrj/Z1zWUfiXFDVzyfA5qVw8ixN/uG2Pr1x/s6cixN/uG2Pr1x/s6ayj8S4oaueT4HNSuHkWJv9w2x9euP9nTkWJv8AcNsfXrj/AGdNZR+JcUNXPJ8DyXjv/wCK05/+N/8AGSpWr350ZMTb2ut9c/HWwy43a/Qce4U0aEyk91w4Z56c/F5aV+gof8lokKOMXSKtJHyqTQtIlNtQd56mpSlfgj9WKUpQClKUApSlAKUpQCqvaP6wXv6eS/pjGrRVXtH9YL39PJf0xjWtHhnu5oid8d/JlopSlZFilKUApSlAKUpQClKUApSqdZ2L+HGIF1XVZNn3QhJTdku02U60IiqQWaxy6il1HKBT9gD2kEwAICAiAgIUBcaUpQClKUApUU4um3mtyM7PXlm5Zp+1WfN2OrNU7dIxCqKZB4igZQgZjlmI5BnkNStAKUpQClKUApSlAKUpQFYvn3v+nWn4qs9Vi+fe/wCnWn4qs9az7uPqRHExSlKyLFKUoBSlKAUpSgFKUoBSlKAUpSgFKUoBSlKArF8+9/060/FVnqsXz73/AE60/FVnrWfdx9SI4mKUpWRYpSlAKUpQClKUApSlAKUpQClKUApSlAKUpQCqvaP6wXv6eS/pjGrRVXtH9YL39PJf0xjWtHhnu5oid8d/JlopSlZFilKUApSlAK8i9I+xX09iFeS90YcTl2LSVsM22GbpjDrPyQ02QywqKEWTKJYxbdFspxSh0SiUgBrHQIV66pQH8/8AES0ndwXtirAyNgytyYmgztFK3JphFndljpsGoCZwDlMMmIFMUTnXU2iGJ4Oo4/o6nLNwwxRT6TgTd2tXhLgb3e/kTzTKw3ZjuYIzQxUm68+Z6m1FmIGIUGREVFSLFKbayAVA9rNIOFYST6ZYw7JvISe3xrtJuQizrbLpT3TgGo+kByDUI5B2BXeoDwthjZVz4NoYdYlx+FFynmWltXiNwlawjg755pW3mLRcCJiobM4foSGAR7R0B2jn38EcPsfcIr/w9ui5cMYpBO8GD+Iul/ByrqTcA+dqKSCLx+gdkiDYiawqoiIKqgXeABEADOvbVKA8RW3YcmGGtzxVsYRXhGY7ntiVZXBc6ce5jW0m5M4Awgd8cyaMgqsBc0FExXFEBENSICIGmJO0LGe4ZChhBgHd1uWWW4oV5ekENru4xOYjyJ5OkkIlQCqraf0W8UjbJwBRKG+OeXsWlAeHGdlXZbMzaF+xdh3CxwzgcWlpm34NnbrvjImEWhFmomLFpoi5QSM+VVOCQpgJCKahKQOwPuw8IZi6m2FEXfeGUwpDkm77cS0fLRCmyVFyqsZArtM5RLoU1FEoH7DCBRLn2V7gpQHhHDnCx+xuHB+5L0wquIZhHDSZt5OURtxRWRjnxVwBomZwYn/Y1CtxVKkoudIgaxLrDUIDbugfZt0YfSl1WuvZ6icAnHxyidyObQf2q8kXobgKJO49ceHXcELpA71sAlVAC6jqDkIewKUApSlAKUpQClKUApSlAVi+fe/6dafiqz1WL597/p1p+KrPWs+7j6kRxMUpSsixSlKAUpSgFKUoBSlKAUpSgFKUoBSlKAUpSgKxfPvf9OtPxVZ6rF8+9/060/FVnrWfdx9SI4mKUpWRYpSlAKUpQClKUApSlAKUpQClKUApSlAKUpQCsfUl8bmN73qjh9h7Y81F84bmFzM3i7i3AK8sZai7KUY5LpANORtzMcx8EMsx2CqvaP6wXv6eS/pjGtaPDPdzRE747+TKl1j6U/7m8KvvLkfUVOsfSn/c3hV95cj6irVaVkWZV1j6U/7m8KvvLkfUVOsfSn/c3hV95cj6irVaUBlXWPpT/ubwq+8uR9RU6x9Kf9zeFX3lyPqKtVpQGVdY+lP+5vCr7y5H1FTrH0p/3N4VfeXI+oq1WlAZV1j6U/7m8KvvLkfUVOsfSn/c3hV95cj6irVaUBlXWPpT/ubwq+8uR9RU6x9Kf9zeFX3lyPqKtVpQGVdY+lP+5vCr7y5H1FTrH0p/3N4VfeXI+oq1WlAZV1j6U/7m8KvvLkfUVOsfSn/c3hV95cj6irVaUBlXWPpT/ubwq+8uR9RU6x9Kf9zeFX3lyPqKtVpQGVdY+lP+5vCr7y5H1FTrH0p/3N4VfeXI+oq1WlAZV1j6U/7m8KvvLkfUVOsfSn/c3hV95cj6irVazVXpGYOo3oXD9S6lwmDzBLeTAIl6LVWTMmKnCEdgjw51SkKJjkKoIkAPC00B1OsfSn/c3hV95cj6ip1j6U/7m8KvvLkfUVfivSfwbEtwljp6RkXFuxz2UUQawr0wv27Q2hwZgcUgTfgmfIhxbmUAhjFAwlzqjYidMyMszBCy8YoXDebnFryEiyUGYizN03aEbncPHA7iGo5EUUzmAQIBVfAAhvDKIgXrrH0p/wBzeFX3lyPqKse6X134/R3Rqv8Akrws6wrSj2UXxSczDYoSab5m8TVIdoZDTDJCZQXJUClJuJgcTAQTlAwmDeb0xywzw/jIqWuWbd7M02M9Zkjol5JrHakIBzuTJNElTkQIUxNSxigmXWUDGATBn07lx3wYi5OLt2euNNyMqDFygqlFuXjFHiFA4NRw6SSO3a7igFFIVzk1CACXPKgPIvQlxN6c1+xFve2LslMLOLItTRtwTCfAzDg/boLsAGayent3TkII56txTPKv6B1kF6414arXxBYdpTy55hO5WrI5yxjsWJXekxuFF9tcKDnSIDsbu7l/ZqyRmOWFsylCLxt0bxLjGRLGDwTgu+LETA68aYadGg3ustWXg6q1lgj6kRxMvdKyKK6VeCtw29IXJbE5LyzZhbnWxNNC3pAij6Nyz3WpVES8TkPgmKnqFMw5HAg11InpbYQrWhad1XI+l4I91xqMoRotAyKhmKChyJ7roxW+TZDcOBQcLbaRvdFMJe2sizaKV+FMUxQMUQEBDMBDxCFftAKUpQClKUApSlAKUpQClKUApSlAKUpQFYvn3v8Ap1p+KrPVYvn3v+nWn4qs9az7uPqRHExSlKyLFKUoBSlKAUpSgFKUoBSlKAUpSgFKUoBSlKAVV7R/WC9/TyX9MY1aKq9pCBZ+9zGEAAJ1IREfRjGtaPDPdzRE747+TLRSq/Z9/wBkYgoSTqxbsip9vESB4p8vHOiOEkHZCEOdETkES6ylVJmAD2CbIe0BCrBWRYpSlAKUpQClKUApSlAKUpQClKUApSlAKUpQClKUArwtH2rid7MjLCNhYkuW24nFt1eJ5hzCv0txmsgqoobitgGGgqi2khiOVFj5gUUUhKI17ppQHkzCvofXRZC7uJlXUYswjICZg4WWVuqdkXS3HGECn5euqVjHFKTIDkRKtuGApimS0iBuS2ui1jDcT20DYk4gIWgzsixwtRghZr1vJi6WWEE3iq3M4wUwIogi3AulPWUTKl1acxP6vpQHlyxsBukBhawsmTt+XtC5Z6zoOSswqc1LO26DiIM4KowdHVTanMLlMiKRVUgTKU+Zslg0gI3Vrh9jpaeI8xddovrHkEL2SiTzzmSO8QGOctU9pY7RoQp+IIon7kh3KO2btEymYhW3UoDytdWAl9M5eOs47uBPYrzFBvfASgPFubguZcV+CFsKO0JN0B/7QK4joyLtf2g5LL6N2LcBN2qwkndo9XrMcXRwblB+5O9fJSe4KJlEjNykRMQVNJigooAgGoDf2a36+fe/6dafiqz1pJKxF7yIv7meXsPeixe9rW/YMJKTMAA2zhO9sN+dqqscDP19jJZIDJF1JfoziIm0m7Q8HtHKp3l0T8arqsuwCMG1l29flm20W3GN0w14y7N5DHIYgcQmdJsVOQRUTTATM10UgKInKCwgYTB7NpWZZwMUXDZk3bu3ZnS6SRCKLmIBRVOAAAnEA7AzHtyDs7a56UoBSlKAUpSgFKUoBSlKAUpSgFKUoBSlKArF8+9/060/FVnqsXz73/TrT8VWetZ93H1IjiYpSlZFilKUApSlAKUpQClKUApSlAKUpQClKUApSlAK8edLTot4pdJuIvOBw3xwkbQFvMARxBnESRcxqi2WRXJ0g3QDtDxgqTsDJMB8Kt3iMTb0m4plMs7IhSt37dN0kCs+qBwIcoGKBgBoIAOQhnkI/ONdeIn79ipCbfdVIBXnL8j3Rz5Yu1paoIac+EHV/wAjVn2e6yy7Mx98dCpoqSaV2azXmeSWk0Taafs8n5GB9Cbo2434eYHI4fXlifiFhzJ27LPmh2EUjbTpi+Ic4LEeoKrRq6xiHKsBf0qpjgZIwZFACkLvfsN4i/GxxV+rbV9TVKder9+BcB9oVv8AZ069X78C4D7Qrf7Os/oafJcV8l/VUWfs/gi/YbxF+Njir9W2r6mp7DeIvxscVfq21fU1SnXq/fgXAfaFb/Z069X78C4D7Qrf7On0NPkuK+R9VRZ+z+CL9hvEX42OKv1bavqansN4i/GxxV+rbV9TVKder9+BcB9oVv8AZ0ta/r3ut07IwsqHBmyWKgo+56qKKhwEQUIkPCAJzEyyHsAuY5aswEA5LQ6aMXJpVLzXydWk0cnUn27n8EX7DeIvxscVfq21fU1PYbxF+Njir9W2r6mrRt6d5vs8uYcr28+J40/Ea/Ns7WnLv3M+6uBFzdZmbw7iFiSOiGEGaRJNQyaxfIKhxbgKY9wFP89eew+mjW0igew3iL8bHFX6ttX1NT2G8RfjY4q/Vtq+pqv6zm6ys2Z28LEndHMAPEjyahU0S+UUzg3EVB7hKT56596d5vs8uYcr28+J40/Ea/Ns7WnLv3M+6lh9NC0jOfYbxF+Njir9W2r6mp7DeIvxscVfq21fU1X9FzdZmbw7iFiSOiGEGaRJNQyaxfIKhxbgKY9wFP8APRZzdZWbM7eFiTujmAHiR5NQqaJfKKZwbiKg9wlJ89dsPy4oWl0igew3iL8bHFX6ttX1NT2G8RfjY4q/Vtq+pq0beneb7PLmHK9vPieNPxGvzbO1py79zPurgRc3WZm8O4hYkjohhBmkSTUMmsXyCocW4CmPcBT/AD1yw+mhaRQPYbxF+Njir9W2r6mp7DeIvxscVfq21fU1X9ZzdZWbM7eFiTujmAHiR5NQqaJfKKZwbiKg9wlJ89c+9O832eXMOV7efE8afiNfm2drTl37mfdSw+mhaRnPsN4i/GxxV+rbV9TU9hvEX42OKv1bavqar+i5uszN4dxCxJHRDCDNIkmoZNYvkFQ4twFMe4Cn+eizm6ys2Z28LEndHMAPEjyahU0S+UUzg3EVB7hKT567YflxQtLpFA9hvEX42OKv1bavqansN4i/GxxV+rbV9TVo29O832eXMOV7efE8afiNfm2drTl37mfdXAi5uszN4dxCxJHSZh4NIkmoZNYvkFQ4twFMe4Cn+euWH00LSKB7DeIvxscVfq21fU1PYbxF+Njir9W2r6mq/rObrKzZnbwsSd0cwA8SPJqFTRL5RTODcRUHuEpPnrn3p3m+zy5hyvbz4njT8Rr82ztacu/cz7qWH00LSM59hvEX42OKv1bavqansN4i/GxxV+rbV9TVf0XN1mZvDuIWJI6IYQZpEk1DJrF8gqHFuApj3AU/z0Wc3WVmzO3hYk7o5gB4keTUKmiXyimcG4ioPcJSfPXbD8uKFpdIoHsN4i/GxxV+rbV9TU9hvEX42OKv1bavqatG3p3m+zy5hyvbz4njT8Rr82ztacu/cz7q4EXN1mZvDuIWJI6IYQZpEk1DJrF8gqHFuApj3AU/z1yw+mhaRj15YQYgo8j3OlPigvrmWxC7kdbAaBHV4YaYcO0O/MPOA1YvYbxF+Njir9W2r6mqdvhe4uDtY4xccDo0214hIH59tM3hZAQ+zmcPH2iUvzVad6d5vs8uYcr28+J40/Ea/Ns7WnLv3M+6tZwdiPrtIjJWn6Gc+w3iL8bHFX6ttX1NT2G8RfjY4q/Vtq+pqv6Lm6zM3h3ELEkdEMIM0iSahk1i+QVDi3AUx7gKf56LObrKzZnbwsSd0cwA8SPJqFTRL5RTODcRUHuEpPnrOw/Lii7S6RQPYbxF+Njir9W2r6mp7DeIvxscVfq21fU1aNvTvN9nlzDle3nxPGn4jX5tna05d+5n3VwIubrMzeHcQsSR0QwgzSJJqGTWL5BUOLcBTHuAp/nrlh9NC0igew3iL8bHFX6ttX1NT2G8RfjY4q/Vtq+pqv6zm6ys2Z28LEndHMAPEjyahU0S+UUzg3EVB7hKT56596d5vs8uYcr28+J40/Ea/Ns7WnLv3M+6lh9NC0jOfYbxF+Njir9W2r6mp7DeIvxscVfq21fU1X9FzdZmbw7iFiSOiGEGaRJNQyaxfIKhxbgKY9wFP89FnN1lZszt4WJO6OYAeJHk1Cpol8opnBuIqD3CUnz12w/LihaXSKB7DeIvxscVfq21fU1PYbxF+Njir9W2r6mrRt6d5vs8uYcr28+J40/Ea/Ns7WnLv3M+6uBFzdZmbw7iFiSOiGEGaRJNQyaxfIKhxbgKY9wFP89csPpoWkUD2G8RfjY4q/Vtq+pqew3iL8bHFX6ttX1NV/Wc3WVmzO3hYk7o5gB4keTUKmiXyimcG4ioPcJSfPXPvTvN9nlzDle3nxPGn4jX5tna05d+5n3UsPpoWkZz7DeIvxscVfq21fU1PYbxF+Njir9W2r6mq/oubrMzeHcQsSR0QwgzSJJqGTWL5BUOLcBTHuAp/nos5usrNmdvCxJ3RzADxI8moVNEvlFM4NxFQe4Sk+eu2H5cULS6RQPYbxF+Njir9W2r6mp7DeIvxscVfq21fU1aNvTvN9nlzDle3nxPGn4jX5tna05d+5n3VwIubrMzeHcQsSR0QwgzSJJqGTWL5BUOLcBTHuAp/nrlh9NC0igew3iL8bHFX6ttX1NT2G8RfjY4q/Vtq+pqv6zm6ys2Z28LEndHMAPEjyahU0S+UUzg3EVB7hKT56596d5vs8uYcr28+J40/Ea/Ns7WnLv3M+6lh9NC0jJpTDK9YKYteTlOkRiDcTZGeaCeOkmNvkbre67DC1jEVQ/lULW0VQ7xc3SZpFndw0Um5Tnm3BppySh01g8PLcOKACn5M8iny76syzm6ys2Z28LEndHMAPEjyahU0S+UUzg3EVB7hKT561lB2I+u1ERkrT+CWpXXYP2coxbSce4Iu1dokXQVJ7lRM4AYpg7hAQGuxWDVXYzW8UpSgFKUoBSlKAUpSgFKUoBSlKAUpSgFKUoDHcPv1Ctv0Qz/APZJXUxXevI7C+7pCPdrNXTaDfLILoqCRRJQqBxKYpg7SiAgAgIdoDXbw+/UK2/RDP8A9klSczER1wRD2Cl2/EMZFuo1cpazE3EjlEpi6iiAhmAiGYCA1+ipe2UvU+NR3IxNni9iEhJJy5iQSlox07GWo5aKt1xlXDhymgAvCuRVBMCgo5IGzsmExSmNugIgUOmXHTEtlFBd0ozthWHuSHmpGAaINXCbqPUYpmUTK7OZYQclUIURMKZERTNkXw89QacXBjDcl3IXwSAVLKNxSUKUJB0DQyySe2m4O03OHO4KTIgLmTFUCgUANkAZRb3o/wCHpW9yqwEcrGyVxRz6PBwo7cukGBXQCKwtWqiootgOcQOcqBUwOIAJsxyGsLM8zWuJ8YaXxfUpci1s36e3ll3cGzuFkaGQVSK2RWMYhmyu4qpumKYoCCxdAHAR/Rky7dNqo4fYWWjhsguW3WroXLsiSbhy7fuXagkTDIiSYuFFBRQLmYSIJiVImo2koZjnLsmT7EF8rFxbhVtANlBSkZFIwlO5OA5GbNzB4vMdQPc9pS+FmJLX2RtTfYiX90qohkyfYgvlYuLcKtoBsoKUjIpGEp3JwHIzZuYPF5jqB7ntKXwsxJqUfHsYpihGxrRJs1bJlSRRSKBSJkAMgAADxBSPj2MUxQjY1ok2atkypIopFApEyAGQAAB4grsV8rSNIdO6l2JXLrafQoaFUS8xSlK8xsKUpQClKUApSlAKUpQClKUApSlAKUpQHyc5UyGUOORSgJhHzAFQdkXtbuIltNbutRd4vFPtQtlnUc4ZGVKUwl1lTcEIcSDlmU+nSYogYoiAgIy73/ua/wDCP/8A8GvCGItuT934MYfwkVhs1m3JcORWhXryyJC5QGRBPMEWpkXCLaJdAAEMR2uYBMJilKPgCAge9qV5sTh4k+KyMliThhcdxXIqeIVsuYbwDlUYlArVMHIDIBkmxAFgXMsmqqkZYptGhbMCDUWdpIK4fT8bGYRXWjiWdgiW/JhCDcsQnCFfJndI8UYyZJNRVAq+0ZEy+ghjJ6k9wCHA9NXz73/TrT8VWevFaUc0s6ctq87NwwumBwza4ioqxMQ3td22VaEUjDorrJRIJFct0VHWrwdkuZhMrpAp9Zvr2F174sx44vfCuRcPWWHkqaMaP4451GkqaSdrI7QZDk7IAkFMxPDAD5lHI2Y6Sf2RW8hL7menLuxlw9sdGSVuCUf6ol4zj3KDGHev3HEuwAW6aaLZJRRUxwEP+WU2XlyqTsm/YPECPXk4JjcTVFutsHLN23Iwyom0gbMqT5BE5y5CHhlKJc8wzzAQDy9duFb17ec91etOct+45y4bKkXFyxVtlFyKCZClWW4pZsogodNQhxORQDiTPUcoAYBHRMZrHFlbllMMTAunFe0I+dVcXKk8gEZRw5SM3VBsK8fGtkyuUklzJDpI2OJRAihg8AThmWegKV4zcML7s2xX7aRw7vSRVuHDyZhoBk0jF3yyA8Y6VZMXJ0ymBqcGqqBQFcSlASiTXqDKpycwbJJzU5frrD104ueMuW0DwckaPOLpogQjArs7VTTrIQSgqVYSCACVMSn7CZAB6Quq/LYstVk3n3bki8kVwLNBqwcO1l9hIyyoETQIcxjAQoiBQDM2WRQERAKkLfnoq6YKPuWDci4jpRsm8aLCkdMVElCgYhhIcAMXMBDsMACHlAK8s2VZiDLFeFcrYaT6N5R9x3A5uq5VYNym3et10HQMji/OXbdE2hQImBDqbAF2h2hECG33Ar/wXsX/AO3o/wD9glAXmlKUApSlAKUpQClKUApSlAKUpQFYvn3v+nWn4qs9Vi+fe/6dafiqz1rPu4+pEcTIm0Vmbi1IVxHxh45qrHNjoMzhkZsmKZRKkIecoZF+ipauhAc35FHdYNrmnCI8dte44jQG5p7tWeXdXfqJ4mdjhQpSlSUKUpQClKUApSlAKUpQClKUApSlAKUpQFKgsOrEkoSPkZnC22Gcg6apLO24xLcRRWMQBOTPR25GEQ+ioq1sN8PHE5eCLiwrdVI2mkkkCni0DAkQY5mcSlAS+CGo5zZB2ZmEfGI1ebbReN7di28hJFkXSTJAi7wg5lcqAQAMqHcYczfTURaP6wXv6eS/pjGvYqak++qTuzeaPPq4fb2dVMexbhl+7q2Pqhv/AKKexbhl+7q2Pqhv/oq0UrDX0vifFmmqh4VwKv7FuGX7urY+qG/+irE1aNWLZNmxbJN0ESgVNJIgEIQvmAodgBXNSplSTnibZUYRjhQpSlQUKUpQClKUApSlAKUpQClKUApSlAKUpQCldKbkywsM/mTNHDoGDVV0KDcmpVUCEE2ghfKYcsgDziFeYLM6e9sXFg3cuMcxCW4zYQgsU26TG7knICu7U2Um74FkUFo9UquQKbqIpgXw0zqgA0B6rMUpiiUwAICGQgPiEKi7ZtS1rLiSQNnW1FQUYmoosRlGM02qBVFDCdQwJpgBQExjCYRyzERER7RrzhAdNrrVyCGtazrYuCemLyVsxUYW8ivodNYI1V8k5SfptdSyQkTKU/6AhiCKmQH0AB5+J6Uk7dsRZTK0MNmri67sPLldxzudFBpGpxioovFCugbHFcdzSVMuyTXqATCmACIAehaV4xlcdMfro6OmFpMObhSRxRvRB5MOXTlg1UErJgCqq5DIgQUgFQSoN9RQ7BVzAcwzrZl+kI9mrew/Phha0fclxYhRKkywYyEuaMaptkUkzrmUXKguYpgMqRMpQSHMwjmJQARoDQb597/p1p+KrPXna8cbb+l7mt+1LdwbFeTh1YSUuhg8uJug6jVXgqaGrfQRRB0oUqapjGMsiTICaTGE46ZGU6T7iMnnT89iojYEfdjeyHk+aWEHpZVVUiBRTYlQEp2wLqpJCpxAHARMO0JS5jrJ/ZH1IjiZvFKwe0ulH1pUtFPqNwvWq8ritHPmevhuVHdF4j/lBr3eFz0eDo1+6Nl21+A6Wl43PHMHTPCmNjzXLAT0lbp3VwqKAq8iziVRFyQrUBSSOGRiqEMoIhmAkKOQjkWemKVm/RzvK9MQsELNvjEBrHITk5EoPnAR7gyyJwUKBin7Uk9BjFEBEgFECiIlAxwDUOkUB1JWKi52NdQ03GtZCPfJGQdNHSJVUV0jBkYhyGASmKIDkICAgNfUdGx0PHtomIYN2LFmkVBs2bJFSSRSKGRSEIUAApQAAAAAMgAK7NKAUpSgFKUoBSlKAUpSgFKUoBSlKArF8+9/060/FVnqsXz73/TrT8VWetZ93H1IjiZE2iizb2pCt4+TPItUo5sRB4cczOUwTKBVRHzmDI301LVE2iszcWpCuI+MPHNVY5sdBmcMjNkxTKJUhDzlDIv0VLVNJjdeZ2GFClKVBQpSlAKUpQClKUApSlAKUpQClKUApSlAQ1mco6nwXV/d5Xy1rwO77vh9ou3qz8unLOuhaP6wXv6eS/pjGpe21nji3YtxIRpY50qyQOuzIGRWygkATJB3FHMv0VS7UvSHJihedjGZzoyKkok8BcIB8MeCfLGXYL8EeEBTsH9GKoH8Xg9oV6NtJ1tRlsh1sZotKp7LFS2H8NNzyEXeBW0AoKTsi9my6LhQQ8rZudsCrsPlIEUAfINHuKlsMIaEnl4u8DNp9QEmhELNl1nCYj5XLcjYVWgfKXImAeUa85qXClV/rxC9cuonBXBzLh+J3+r0hy7Rlnlx+zwmv5G7r8mVR7LFS2H8NNzyEXeBW0AoKTsi9my6LhQQ8rZudsCrsPlIEUAfINAXClU97ipbDCGhJ5eLvAzafUBJoRCzZdZwmI+Vy3I2FVoHylyJgHlGpDrxC9cuonBXBzLh+J3+r0hy7Rlnlx+zwmv5G7r8mVAWClU9lipbD+Gm55CLvAraAUFJ2RezZdFwoIeVs3O2BV2HykCKAPkGj3FS2GENCTy8XeBm0+oCTQiFmy6zhMR8rluRsKrQPlLkTAPKNAXClV/rxC9cuonBXBzLh+J3+r0hy7Rlnlx+zwmv5G7r8mVR7LFS2H8NNzyEXeBW0AoKTsi9my6LhQQ8rZudsCrsPlIEUAfINAXClU97ipbDCGhJ5eLvAzafUBJoRCzZdZwmI+Vy3I2FVoHylyJgHlGpDrxC9cuonBXBzLh+J3+r0hy7Rlnlx+zwmv5G7r8mVAWClU9lipbD+Gm55CLvAraAUFJ2RezZdFwoIeVs3O2BV2HykCKAPkGj3FS2GENCTy8XeBm0+oCTQiFmy6zhMR8rluRsKrQPlLkTAPKNAXClV/rxC9cuonBXBzLh+J3+r0hy7Rlnlx+zwmv5G7r8mVR7LFS2H8NNzyEXeBW0AoKTsi9my6LhQQ8rZudsCrsPlIEUAfINAXClU97ipbDCGhJ5eLvAzafUBJoRCzZdZwmI+Vy3I2FVoHylyJgHlGpDrxC9cuonBXBzLh+J3+r0hy7Rlnlx+zwmv5G7r8mVAWClU9lipbD+Gm51CLvAraAUFJ2mvZsui4UEPK2bnbAq7D5SBFAHyDR7ipbDCGhJ5eLvAzafUBJoRCzZdZwmI+Vy3I2FVoHylyJgHlGgLRIMkpJi4j11HCablI6Jzt1zoqlAwCAiRQggYhu3sMUQEB7QEBrFGnRDsA43O9um6bpuiZuhiyjlZqUVZlftUWam61FNRs2SA6iamk4KrgqoIkKBjGAMh1PrxC9cuonBXBzLh+J3+r0hy7Rlnlx+zwmv5G7r8mVR7LFS2H8NNzyEXeBW0AoKTsi9my6LhQQ8rZudsCrsPlIEUAfINAVpt0e4hR7acxcuId7XNLWhcS9ytn8s+bnO4cqNFmu2dNJAiKSJUlzaU26aIaigYcxE4mjkuizZUfHwCMBdV0w0lbclKSDGYZrtReASRVOo7am3UDpGROJ8stvWUClEpwMGqrs9xUthhDQk8vF3gZtPqAk0IhZsus4TEfK5bkbCq0D5S5EwDyjUh14heuXUTgrg5lw/E7/V6Q5doyzy4/Z4TX8jd1+TKgMlt7oT4DxasN1nt/r00t2BJb0Uyu9qzlG7REF1FzrEKohnvnMpkdQRHMpCgAAOoTd2N6J9kW3bUNb1j3dddrK21JST+CkYxVmLiLRfGMZwyRKu2UQ4bwsikOkYSAUukwCUBC+ssVLYfw03PIRd4FbQCgpOyL2bLouFBDytm52wKuw+UgRQB8g0e4qWwwhoSeXi7wM2n1ASaEQs2XWcJiPlctyNhVaB8pciYB5RoDMb96OsCSYtecib/vuKdmWjISWWazAGXm26BznSM6cqpncAqUTKhuoKJHyVMAiIAUC2V30a7Je3YtPOJufNCuplG5HVqmWbmiV5hISmTenAyIudYHTTPtguCInIU4pibMRk73vaGNeMBYoMp/mRZRo6FcbffhH6PC7Af7PCCft/5e7r+TUsyxUth/DTc8hF3gVtAKCk7IvZsui4UEPK2bnbAq7D5SBFAHyDWssEfUiOJlIhOizZkBeUfdjG7bqFtD3BJXLGwhl2gR7N4/IqDrSBW4LGKcyxz5KKmEph8EQKIlHuwfRosGBQtRq3kpxdK0GUuwZlWcJfpkpIf0+6JUwERD+wJdOXl1VanuKlsMIaEnl4u8DNp9QEmhELNl1nCYj5XLcjYVWgfKXImAeUakOvEL1y6icFcHMuH4nf6vSHLtGWeXH7PCa/kbuvyZVkWdPCzDxrhTYkVh9H3FLzTGERBqyXleH4hNuXsTSEW6SRDFIUAKAiXUIB4RjDmNWyqeyxUth/DTc8hF3gVtAKCk7IvZsui4UEPK2bnbAq7D5SBFAHyDR7ipbDCGhJ5eLvAzafUBJoRCzZdZwmI+Vy3I2FVoHylyJgHlGgLhSq/wBeIXrl1E4K4OZcPxO/1ekOXaMs8uP2eE1/I3dfkyqPZYqWw/hpueQi7wK2gFBSdkXs2XRcKCHlbNztgVdh8pAigD5BoC4UqnvcVLYYQ0JPLxd4GbT6gJNCIWbLrOExHyuW5GwqtA+UuRMA8o1IdeIXrl1E4K4OZcPxO/1ekOXaMs8uP2eE1/I3dfkyoCwUqnssVLYfw03PIRd4FbQCgpOyL2bLouFBDytm52wKuw+UgRQB8g0e4qWwwhoSeXi7wM2n1ASaEQs2XWcJiPlctyNhVaB8pciYB5RoC4Uqv9eIXrl1E4K4OZcPxO/1ekOXaMs8uP2eE1/I3dfkyqPZYqWw/hpueQi7wK2gFBSdkXs2XRcKCHlbNztgVdh8pAigD5BoC4UqnvcVLYYQ0JPLxd4GbT6gJNCIWbLrOExHyuW5GwqtA+UuRMA8o1IdeIXrl1E4K4OZcPxO/wBXpDl2jLPLj9nhNfyN3X5MqAsFKp7LFS2H8NNzyEXeBW0AoKTsi9my6LhQQ8rZudsCrsPlIEUAfINHuKlsMIaEnl4u8DNp9QEmhELNl1nCYj5XLcjYVWgfKXImAeUaAuFKr/XiF65dROCuDmXD8Tv9XpDl2jLPLj9nhNfyN3X5Mqy/HDHGWhsA8RcRsK0ZRlOWM1M9KFxWZLIoLigcqiqZUlUUlFkjpkUIK6Qimnr3DHKUomADSb597/p1p+KrPXh3owf/AFC7a6W7uGs51YEzb12R0k1dPBQTM6izkARDUDgAAUTGHMQIoAB5AOca9xVrPu4+pEcTOhAc35FHdYNrmnCI8dte44jQG5p7tWeXdXfqJtFFm3tSFbx8meRapRzYiDw45mcpgmUCqiPnMGRvpqWqJ4mdjhQpSlSUKUpQClKUApSlAKUpQClKUApSlAKUpQEdbaLxvbsW3kJIsi6SZIEXeEHMrlQCABlQ7jDmb6aiLR/WC9/TyX9MY1IHs+0VIoYI9rRBo0yorCzFikKAqZ569vTp1Z9ueWdV617bt1xdl1SDiBjlXUdOIkZrnakMo2Lytj2JmEMyB82VemNmSm69mXmvMxdpOK6uZeaVHI23brd48kG8DHJOpEuh4uRqQqjkvmUMAZnD5866/Uyz+UdX+qkNyvc3eB4FLh9fj1benTn35VjVDN8P6aVyyJmlRy1t264eM5BxAxyrqOLoZrnakMo2L5kzCGZA+bKiNt263ePJBvAxyTqRLoeLkakKo5L5lDAGZw+fOuVRz64jtJGlQ3Uyz+UdX+qkNyvc3eB4FLh9fj1benTn35V2Frbt1y8ZyDiBjlXUcUCs1ztSGUbF8yZhDMgfNlXaoZvh/RXLIkaVHI23brd48kG8DHJOpEuh4uRqQqjkvmUMAZnD5866/Uyz+UdX+qkNyvc3eB4FLh9fj1benTn35Uqhm+H9FcsiZpUctbduuHjOQcQMcq6ji6Ga52pDKNi+ZMwhmQPmyojbdut3jyQbwMck6kS6Hi5GpCqOS+ZQwBmcPnzrlUc+uI7SRpUN1Ms/lHV/qpDcr3N3geBS4fX49W3p059+Vdha27dcPGcg4gY5V1HF0M1ztSGUbF8yZhDMgfNlXaoZvh/RXLIkaVHI23brd48kG8DHJOpEuh4uRqQqjkvmUMAZnD5866/Uyz+UdX+qkNyvc3eB4FLh9fj1benTn35Uqhm+H9FcsiZpUctbduuHjOQcQMcq6ji6Ga52pDKNi+ZMwhmQPmyojbdut3jyQbwMck6kS6Hi5GpCqOS+ZQwBmcPnzrlUc+uI7SRpUN1Ms/lHV/qpDcr3N3geBS4fX49W3p059+Vdha27dcPGcg4gY5V1HF0M1ztSGUbF8yZhDMgfNlXaoZvh/RXLIkaVHI23brd48kG8DHJOpEuh4uRqQqjkvmUMAZnD5866/Uyz+UdX+qkNyvc3eB4FLh9fj1benTn35Uqhm+H9FcsiZpUctbduuHjOQcQMcq6ji6Ga52pDKNi+ZMwhmQPmyojbdut3jyQbwMck6kS6Hi5GpCqOS+ZQwBmcPnzrlUc+uI7SRpUN1Ms/lHV/qpDcr3N3geBS4fX49W3p059+Vdha27dcPGcg4gY5V1HF0M1ztSGUbF8yZhDMgfNlXaoZvh/RXLIkaVHI23brd48kG8DHJOpEuh4uRqQqjkvmUMAZnD5866/Uyz+UdX+qkNyvc3eB4FLh9fj1benTn35Uqhm+H9Fcsjo3z73/AE60/FVnql31BwpndrPzQ7EXLOZaIt1hbk3EU/C8Ahssyl7A7A7OwKsaNt263ePJBvAxyTqRLoeLkakKo5L5lDAGZw+fOtJKOrj25/veRGu2yRpUN1Ms/lHV/qpDcr3N3geBS4fX49W3p059+Vdha27dcPGcg4gY5V1HF0M1ztSGUbF8yZhDMgfNlWdUM3w/pdcsiRpUcjbdut3jyQbwMck6kS6Hi5GpCqOS+ZQwBmcPnzrr9TLP5R1f6qQ3K9zd4HgUuH1+PVt6dOfflSqGb4f0VyyJmlRy1t264eM5BxAxyrqOLoZrnakMo2L5kzCGZA+bKiNt263ePJBvAxyTqRLoeLkakKo5L5lDAGZw+fOuVRz64jtJGlQ3Uyz+UdX+qkNyvc3eB4FLh9fj1benTn35V2Frbt1w8ZyDiBjlXUcXQzXO1IZRsXzJmEMyB82Vdqhm+H9FcsiRpUcjbdut3jyQbwMck6kS6Hi5GpCqOS+ZQwBmcPnzrr9TLP5R1f6qQ3K9zd4HgUuH1+PVt6dOfflSqGb4f0VyyJmlRy1t264eM5BxAxyrqOLoZrnakMo2L5kzCGZA+bKiNt263ePJBvAxyTqRLoeLkakKo5L5lDAGZw+fOuVRz64jtJGlQ3Uyz+UdX+qkNyvc3eB4FLh9fj1benTn35V2Frbt1w8ZyDiBjlXUcXQzXO1IZRsXzJmEMyB82Vdqhm+H9FcsiRpUcjbdut3jyQbwMck6kS6Hi5GpCqOS+ZQwBmcPnzrr9TLP5R1f6qQ3K9zd4HgUuH1+PVt6dOfflSqGb4f0VyyJmqtifhrauL9jSeHF7oO14KZBIj9Bq8VanXSIqRQUhUSEpwIfQBTAUQzIYxc+2pha27dcPGcg4gY5V1HF0M1ztSGUbF8yZhDMgfNlRG27dbvHkg3gY5J1Il0PFyNSFUcl8yhgDM4fPnXKo59cR2lILh7Y2GFuWvaOHlpRVuwzWdabbKOakQT1eFmYQKHhGHLtMOZhHtERGtIqh3nadrN4mBgELaik4w882EzIjNMEDCOrMRTANI5+Xsq1rW3brh4zkHEDHKuo4uhmudqQyjYvmTMIZkD5sq1mo2I9uez+kRtWn2ZHFaKzNxakK4j4w8c1Vjmx0GZwyM2TFMolSEPOUMi/RUtSlYydptmiVSqFKUrh0UpSgFKUoDG7YkL3nLbiZt1iPNJrSDFB0oRJpHgQplEymEC5thHIBHszER7xqT2rw/eZP/8ApY3/AGtR2H36hW36IZ/+ySvu+ZY0DZc9OEJIGNHxrlyARxCHdDoTMb9CBwMUVOzwdQCGeWYCHZX6GkjCMn9q4L4PjwlNpfc+LOV69uCNTTVksWpdqRZZNumZdKMIB1TmApCAIte0xjCAAHjERyCv1g8uCVaEfxeLUu8bKCYCLN0oxRMwlMJTABitRAcjAID5hAQrx9Yl1O7kdLME7hRkYZxK2i+bmZX+/utuKykiqRY6b10kkKZ/AKU6KP6MhihlpMIgG/dF1rBR+ELOOgZVd8VnJSbdzxEqtIKoOCPFQOkc6yhzlMXIMyCIZCIjlmI54xcJPCuC+DSSlFYnxfyaXtXh+8yf/wDSxv8AtabV4fvMn/8A0sb/ALWu9XC8eNI5os+fOE0G6BBUVVUNpKQoeMRGtLMX+K4L4ItS8T4s6Lxxc0c0WfPsVJtBugQVFVVG8aUpCh4xEeFrvWPGYiTZFJubvqdaRyxiGYNVWbAjlRMM8zrf9mDQB+zIgABgAMxEBHSX5ta1nd3u29z3O0UQikDgtFxaxdJlTB2lcuCj5fKRMfc9hjeFkBNLrx6VTwh/1wiq9rqXBdh6qCilL75t1b2dDlzzm/Mufv8Ah9vRy/Qhw+f7ee3u5/8AUy7q4EYWSSZvGx7ulllHRhFJwdJoCjUPMmBUQIIf5ynGpalfOtvpI9dlEStCySrNm2Jd0sio1MAquCJNBUdB5lAMiJAD/IUg1A2mxdGvW85Es08I3JMJJiwAiOwc3LWQ7giKe7q7QDsOBewOzx53SqvaP6wXv6eS/pjGtaObsz3ZLNESiq47+TJJGFkkmbxse7pZZR0YRScHSaAo1DzJgVECCH+cpxotCySrNm2Jd0sio1MAquCJNBUdB5lAMiJAD/IUg1LUrO2/Lgi7K6Z0OXPOb8y5+/4fb0cv0IcPn+3nt7uf/Uy7q4EYWSSZvGx7ulllHRhFJwdJoCjUPMmBUQIIf5ynGpalctvpIWURK0LJKs2bYl3SyKjUwCq4Ik0FR0HmUAyIkAP8hSDXPy55zfmXP3/D7ejl+hDh8/289vdz/wCpl3V36UtvpIWURKMLJJM3jY93Syyjowik4Ok0BRqHmTAqIEEP85TjRaFklWbNsS7pZFRqYBVcESaCo6DzKAZESAH+QpBqWpXbb8uCFldM6HLnnN+Zc/f8Pt6OX6EOHz/bz293P/qZd1cCMLJJM3jY93Syyjowik4Ok0BRqHmTAqIEEP8AOU41LUrlt9JCyiJWhZJVmzbEu6WRUamAVXBEmgqOg8ygGREgB/kKQa5+XPOb8y5+/wCH29HL9CHD5/t57e7n/wBTLurv0pbfSQsoiUYWSSZvGx7ulllHRhFJwdJoCjUPMmBUQIIf5ynGi0LJKs2bYl3SyKjUwCq4Ik0FR0HmUAyIkAP8hSDUtSu235cELK6Z0OXPOb8y5+/4fb0cv0IcPn+3nt7uf/Uy7q4EYWSSZvGx7ulllHRhFJwdJoCjUPMmBUQIIf5ynGpalctvpIWURK0LJKs2bYl3SyKjUwCq4Ik0FR0HmUAyIkAP8hSDXPy55zfmXP3/AA+3o5foQ4fP9vPb3c/+pl3V36UtvpIWURKMLJJM3jY93Syyjowik4Ok0BRqHmTAqIEEP85TjRaFklWbNsS7pZFRqYBVcESaCo6DzKAZESAH+QpBqWpXbb8uCFldM6HLnnN+Zc/f8Pt6OX6EOHz/AG89vdz/AOpl3V0XDNWHh5RzK30/SQAh3BpB0DNPgEigImEptkEwKAAIiKgGyAO0anapON//AIM33/8Abcl/8Y9ctvpIWUSMQo1u224eYtbEdxIxyxCuUZaOUYuE5JIfEbWVIyRiD50gL3DUty55zfmXP3/D7ejl+hDh8/289vdz/wCpl3V57mrqthtiNFQuI+JU1anDwkIvZrONmHDVSWcnMcHZU2iXgyZgyQIdE6a4JkMBtJBPqrP7ulLrgMMIS43l7vRirhvSZTuaSuHEWUt1m2bouXZGSASSBVjxyesiRA2ipFVMUhDm8PSZbfSQso9eowskkzeNj3dLLKOjCKTg6TQFGoeZMCogQQ/zlONdYqHH6YZlfz0X0OdPjxQFkdwfUXUUrggoiBNRe0NJSCIdoV4qxOxSuxrhhbLKSvNRxcxbRkZmJcJ4iSsEnImTVU2FGRUI8rqcdESImJk1UipHKJT6Dbuupq/Jlzb09f8AM29dYovpp3aru5Bf3w/im7eGVZDrci4R3jRqJliAmLpBENPhF1EDMxe235cELK6Z6TxBloZjelpxD2/EkZKUkkVWNvLOGpDOE0h/SrpJiQFz6NRdQgYShrDMAzCrijCySTN42Pd0sso6MIpODpNAUah5kwKiBBD/ADlONeYLJlZuZtvBt5MXGznUfZAekjHzSYdzCR2IN3QIlLIOm6Cr4ChmUHAkMCgFA24oOZh9a1cpuxFckSoq0yJWhZJVmzbEu6WRUamAVXBEmgqOg8ygGREgB/kKQa5+XPOb8y5+/wCH29HL9CHD5/t57e7n/wBTLurv0rO2+kirKIlGFkkmbxse7pZZR0YRScHSaAo1DzJgVECCH+cpxotCySrNm2Jd0sio1MAquCJNBUdB5lAMiJAD/IUg1LUrtt+XBCyumdDlzzm/Mufv+H29HL9CHD5/t57e7n/1Mu6uBGFkkmbxse7pZZR0YRScHSaAo1DzJgVECCH+cpxqWpXLb6SFlEStCySrNm2Jd0sio1MAquCJNBUdB5lAMiJAD/IUg1z8uec35lz9/wAPt6OX6EOHz/bz293P/qZd1d+lLb6SFlESjCySTN42Pd0sso6MJknB0mgKNQ8yYFRAgh/nKcaLQskqzZtiXdLIqNTAKrgiTQVHQeZQDIiQA/yFINS1K7bflwQsrpnQ5c85vzLn7/h9vRy/Qhw+f7ee3u5/9TLurgRhZJJm8bHu6WWUdGEUnB0mgKNQ8yYFRAgh/nKcalqVy2+khZRErQskqzZtiXdLIqNTAKrgiTQVHQeZQDIiQA/yFINc/LnnN+Zc/f8AD7ejl+hDh8/289vdz/6mXdXfpS2+khZREowskkzeNj3dLLKOjCKTg6TQFGoeZMCogQQ/zlONFoWSVZs2xLulkVGpgFVwRJoKjoPMoBkRIAf5CkGpaldtvy4IWV0zocuec35lz9/w+3o5foQ4fP8Abz293P8A6mXdXAjCySTN42Pd0sso6MIpODpNAUah5kwKiBBD/OU41LUrlt9JCyij3xFvgZ2s2G5JEVEJtqB3Apt9xcfC7ThtaAH/AClKFWnlzzm/Mufv+H29HL9CHD5/t57e7n/1Mu6oe+fe/wCnWn4qs9azk9XH12ERirT9CJRhZJJm8bHu6WWUdGEUnB0mgKNQ8yYFRAgh/nKcaLQskqzZtiXdLIqNTAKrgiTQVHQeZQDIiQA/yFINS1Kztvy4IuyumRQiZG5iEUuFYQdM1TpxZ00tGSZ0wMsQwEBTs3CgIGMIeGGQBlUrUS5WZluuObnjDndHjnp0ngB4KKZVGwHSEfOcTJmD+ENS1JXJ+QjexSlKgoUpSgMKsW4EG9k28gaHuI4pxTQgmRt9+qmYQRKGZTkREpg8xiiICHaAiFTfWVt/cdz/AGakfyK0m3Fnjm3YtxIRpY50qyQOuzIGRWygkATJB3FHMv0VI19Sk09W39vv/Dww0T7V93sZL1lbf3Hc/wBmpH8inWVt/cdz/ZqR/IrWqVH168Pv/Dv0j8Xt/TJesrb+47n+zUj+RUlbdovrokErguxko2jWiu5GxSxcjKHKPguXBfOAhmRMfc9hjeFkBNIpUUmnSlGqCqLhoqTrk6xSlK8J6hSlKAVV7R/WC9/TyX9MY1aKq9o/rBe/p5L+mMa1o8M93NETvjv5MtFKUrIsUpSgFKUoBSo25ElV7dlEEEzKKKMlyEIQBExjCmIAAAHjGvCeE+DOKdpWBZzbDqzJS17tmMCHcdJvlY1RopzwmxwiTxQxSiVdPUqVMFDAchQEAyAvYB7+rqS0oxg4t5NSi+wyj26jpyrpMbQkmUTHNkUBEcgARyABGvANm4R31FYdXTe1m2nIJydqDb0+wgGOHD210nkxHmE7oUUXLxVZ47WQOZBVwVMqao6NJ1BAdPHhbgljDHzsnaF4WhLOYOOt6YxIaO3LFQdVxzTI6KrBIQIBd1A53XgAYx8ligIeUQPZeHuO1gYpOGyNnNrwVSeNeNbPZCyZqNZLIiACBiOnbRNA2oDAJQA+Zg7QAa0KvFWHwzrjo3SmHx7qxvm542HDiPJbdwYcLRzFq5Ky0iig5CHbCocDeAQpnCgn8mse2qhfPRzEkbejyFwcfmfkwrt1/GHQh1jKdZkFFQM4SyKIjIkJpAVA/TgUchHIcqA/oJUJbF6W1eXNerclxnJJJaIffoVE9l2lluJ+GUNWWoPCLmUc+wRrwY+tRK58S8V0oXDqalMSkcUbeVt24GsUqoMRojopR2dR8AaWZNop90qhiAsAlIAKiGgLw/sOVTnXj7E7DWdn8NgxLuN9NwoW65lAeFVQTBg7NHppqKPECqgfISJKAUwlP2AQTAB7WpX897usjGGwbAsl01byrOYxBNM4Yt2oGTBxFw0k+OtEHWKftAzRqU5dGZjE15CBtOQTeImCt8NMeEY1nGu02TJza6FjScfYTuWdRjFpoBymjKkfN20WnmRTiCLdq6aggUqwiCYge6V1kmyKjhY2lNIonOOWeRQDMR7KzCyuk5g1f8rERFvT0wmpcIKDDLylsSkW0lBIUTGI0cu2ySLg+kDHAiZzGEpTGABAoiHmuzsL8UCdIt/NXO1dJ3Ajck6+XlWWHzvcfQSqJytWq8+d6Vsq20mbgRomidQiiICKYAUxwkMO07jvDBzBDBqHsW9425rTmIyTm3MzaUlGMotFkKh1DC6doJJLGMIkTKRA6hjbmeWgpzFA9ovHjSPaLv37lJu2bJmWWWVOBSJplDMxjGHsAAABERHzV1oGcirmhGFxwTwruNk26bto4IAgVVE5QMQ4AIAOQgID2hXgrCTBG/38hcrC97YcLzq9p3JH3UT2PnLJvOu11c2wPZVy9MjLq6g1oHQbnKmQTlMZHMCmpuIdlysxg1a9sw2Bt2xfV2wY9e3DxWGz9SS6wpLnF6kO+2EkXpMQqorJppOHImKKa5gKUpwP6FyuJ9mwTsjKbeSDBRaab2+gZzEu003D5ZMDpkRUMkBVSCA5bpBMmBgMUTAYogE7OQsZckM/t6abcRHybZRo6R1mJuIqFEpy6iiBgzARDMBAfMNeN21i3+pfdyyStl3CZJ1jdbkwmseNXyVZJwjNNV0BhL2pFUKchlPcgYpgEQEBCvrovWLd9hdI2eIlZ8o/i5dGXcy1wzVpvIKVZLGeAdFo5dlOZhOFHMwpuCCoqQom8IpR0iB7Dt2AjrWgmNuRJngso5AjZDjHy7xbQUMg1rrnOqoOX9o5jD31I0pQClKUBn+JNowkpcllXY+TeHkIWZTTZaX7gjcm6AlOYzcpwRUPkGQHOQxigJgKIAY2egVWL597/p1p+KrPWssEfUiOJilKVkWKUpQClKUApSlAKUpQClKUApSlAKUpQClKUBWL597/AKdafiqz1WL597/p1p+KrPWs+7j6kRxMUpSsizoLc356z2drlfCOeJz93xGtHZy7tO/n36a79RLlFma645weTOR0SOekSZgPgrJmUbCdUQ85BKmUP4o1LVUrl1tZKvYpSlSUKUpQEdbaLxvbsW3kJIsi6SZIEXeEHMrlQCABlQ7jDmb6akahrM5R1Pgur+7yvlrXgd33fD7RdvVn5dOWdTNXSY3vJhhQpSlQUKUpQClKUApSlAKq9o/rBe/p5L+mMatFY+ph7dtz3veslCY6XxaLcJhukMfDM4RVuJgjGWamb2PcK6hzABDc0+CGRQ7c9aPDPdzRE747+TNgpWVew3iL8bHFX6ttX1NT2G8RfjY4q/Vtq+pqyLNVpWVew3iL8bHFX6ttX1NT2G8RfjY4q/Vtq+pqA1WlZV7DeIvxscVfq21fU1PYbxF+Njir9W2r6moDVaVlXsN4i/GxxV+rbV9TU9hvEX42OKv1bavqagNVpWVew3iL8bHFX6ttX1NT2G8RfjY4q/Vtq+pqA1WlZV7DeIvxscVfq21fU1PYbxF+Njir9W2r6moDRY234GGdyMhEQkexdTDgHciu2bESUeLgmVMFVjFABUOBCEJqNmOkhQ8QBUhWVew3iL8bHFX6ttX1NT2G8RfjY4q/Vtq+pqAvj2zLPkrlYXnI2pDurgikVG7CWWYpHeNEj+7IksJdaZTeUCiAD5amayr2G8RfjY4q/Vtq+pqew3iL8bHFX6ttX1NQGq0rKvYbxF+Njir9W2r6mp7DeIvxscVfq21fU1AarSsq9hvEX42OKv1bavqansN4i/GxxV+rbV9TUBqtKyr2G8RfjY4q/Vtq+pqew3iL8bHFX6ttX1NQGq0rKvYbxF+Njir9W2r6mp7DeIvxscVfq21fU1AarULeN62lh5brm7r5uJhBQjM6KbmQfrlRboCqqRJPWc3glAVFCFzEQANXaIBVE9hvEX42OKv1bavqasz6S2B2LspgNe0Jb+NGKN/ScvFnjGluqsrVSSequDFRLuH5UkJEyCpuHMVRMxSpmEpymABADdLsfMpNnbEjHO0HTR1MslkF0FAUTVTMBhKYpg7DAICAgIdg1ba8B9DPoWY1dGFpCSeJeNTt23fSrcAsuOVMtFtVTiJhWMor41vIO0QnaHadQuQV78rWfdx9SI4mKUpWRYpSlAKUpQClKUApSlAKUpQClKUApSlAKUpQFYvn3v8Ap1p+KrPVYvn3v+nWn4qs9az7uPqRHExSlKyLIlyszLdcc3PGHO6PHPTpPADwUUyqNgOkI+c4mTMH8Ialq6C3N+es9na5Xwjnic/d8RrR2cu7Tv59+mu/VSuXW1kq9ilKVJQpSlAR1trPHFuxbiQjSxzpVkgddmQMitlBIAmSDuKOZfoqRqOttF43t2LbyEkWRdJMkCLvCDmVyoBAAyodxhzN9NSNVPE6iY4UKUpUlClKUApSlAKUpQCqvaP6wXv6eS/pjGrRVXtH9YL39PJf0xjWtHhnu5oid8d/JlopSlZFilKUApSlAKUpQFCm8dMLrevxrhrL3EujOulm7YCkjHajVFdcDCgiu8IkLZBVQCG0JqqFMfs0gOYZorHTC2cGJLE3PxBp2Zkbfjg4JyTfkGAqg6R8JMNOgUFQ1GyKbT4ImzDPIsU+jbiHc+PjDFrD17C2s7F1FA+uWPnpFnILRjZQTLx7qNAijKRIoAiBVDnQMTMuYH2w1dazejZinbV6Wwms7tU9q2nfNx3Wg6LIOTSDxGUB0cEzIcOCaRk1HIlyBU4GKGrMohpMBcsNelzhjfEC2fzizm3JJZjIyRmi7J4q3MgyUOVxsPNgqLk5Ck1HSSEyhc8hL2V2nHTD6PTRJw4c3pIJItWbaSVVNbcoCZWC/wDy32rhshaeQzkB2SD2HOUeyspjOivjS/s63LBuyTslGPs1pcKsa9jnjtRZ88kEnKKKSyaiBSopJEciJlCnUMcwBkQgeOVvXor4hXJZ9zW+xmLeI4mcHUMPUDKuFwIWRIJ81TiCIiCHhB4QAJ/H4FAXjEzpV2hhe8lG8pGPJgGMvCxCacEzfSC4HkA1EUWIk1EpCgUDCTaOsKg6SgBTmKUYqQ6S2IDd3iDNxuEES+s3DWTMyl3vWhZKXVQI3SXWXRYGY7ZhImtntndEEdAhmA5BUPevRrxIlHdzTUA+tpZ49l7Rl41s8eroJqmiALvJLKkQUFIDiUdJikU7yh4q+neDOPqnssWkyjrCQgMVpRV0rMmuF4d7FoLs0W6wFZcACa5ygmcS5uUwHMojlkIUBqjvpDYRMbhjLXc3SqD2WI0OidOMdqtEhdFEzZNw7IkLdsoqAfo01lCHOIlAoCJgzrlpdLLDW5ramLqcxt2RrWLuF3bqTc9rya714q3E2s6LZFuZVQABNQxtsp9spf0mgcyhnT7obyTXFFWViTtZS1JWQhJJ2MleE60OxPHIpJlKSMZqJtHpjcMiYqiyhNswmESKgAFH4kejZjOWNXt5FGy5y3y3lNzqkLJXA+bMZ1nIbhyEfoptDlMLdQ5RBubeSVyzESCBcgL9iH0rbStSzJW+bTLGXQwZ2I8vpkim+cNl3yCBwLoDNqZNMoiOkTGPuFN2bI5CIW1bpBYXMLpirHl51drOypWZQSJGu1mrdd0QToILvCJC2QVUAptBFVCGP2aQHUGfngehjiiOEXsfhM2gm/LhNLWEU6K7gjUHzl3upKFDZExUAJ2D2CYo9gFMHbVnvnowYkS2MkFiVYj+CteQbjCoSNzRk/JNHy8c0HNwwcxuhRnIkUDUBFDmQMTMuYH2w1Aep6UpQClKUApSlAKUpQFYvn3v+nWn4qs9Vi+fe/6dafiqz1rPu4+pEcTFKUrIsUpSgFKUoBSlKAUpSgFKUoBSlKAUpSgFKUoCsXz73/TrT8VWeqxfPvf9OtPxVZ61n3cfUiOJilKVkWRLlFma645weTOR0SOekSZgPgrJmUbCdUQ85BKmUP4o1LVEuVmZbrjm54w53R456dJ4AeCimVRsB0hHznEyZg/hDUtVyuW7myY3sUpSoKFKUoCGszlHU+C6v7vK+WteB3fd8PtF29Xfpyz76majrbWeOLdi3EhGljnSrJA67MgZFbKCQBMkHcUcy/RUjV0mN7yYYUKUpUFClKUApSlAKUpQCqvaP6wXv6eS/pjGrRWPqYF4I4i3vetwYg4OWPc8oWYbtwfTNvNHrgEixjISk3FUzG0gJjCAZ5BmPnrWjwz3c0RO+O/kzYKVlXtTuix8WnCr7Gx35NPandFj4tOFX2NjvyayLNVpWVe1O6LHxacKvsbHfk09qd0WPi04VfY2O/JoDVaVlXtTuix8WnCr7Gx35NPandFj4tOFX2NjvyaA1WlZV7U7osfFpwq+xsd+TT2p3RY+LThV9jY78mgNVpWVe1O6LHxacKvsbHfk09qd0WPi04VfY2O/JoDVaVlXtTuix8WnCr7Gx35NPandFj4tOFX2NjvyaA1WlZV7U7osfFpwq+xsd+TT2p3RY+LThV9jY78mgNVpWVe1O6LHxacKvsbHfk09qd0WPi04VfY2O/JoDVaVlXtTuix8WnCr7Gx35NPandFj4tOFX2NjvyaA1WlZV7U7osfFpwq+xsd+TT2p3RY+LThV9jY78mgNVpWVe1O6LHxacKvsbHfk09qd0WPi04VfY2O/JoDVaVlXtTuix8WnCr7Gx35NPandFj4tOFX2NjvyaA1WqZjJiUng9hlP4nubZlJ9pbbYH71jGAmLkWhTl4hUgKGKUdpIVFRATBmCYhnnVd9qd0WPi04VfY2O/JqmYydCXA++MMp+z8OsHsKbQn5lsVk3neo7FU8emocpV1UikIQ26CIq7ZgOUSqCQ2YZUBIWN0m8EOkZEW/K4T34wllk5loo6jTm2X7QPCAd1ufI4FAw6dYAJBEB0mNW8V5OwX6CGA/RV6vTFmRbuWutSVbN3FxSqu45MQ2rURIhck0SCPkKXUIdhjGr1jWs+7j6kRxMUpSsixSlKAUpSgFKUoBSlKAUpSgFKUoBSlKAUpSgKxfPvf8ATrT8VWeqxfPvf9OtPxVZ61n3cfUiOJilKVkWdBbm/PWeztcr4RzxOfu+I1o7OXdp38+/TXfqJcoszXXHODyZyOiRz0iTMB8FZMyjYTqiHnIJUyh/FGpaqlcutrJV7FKUqShSlKAjrbReN7di28hJFkXSTJAi7wg5lcqAQAMqHcYczfTUjUNZnKOp8F1f3eV8ta8Du+74faLt6s/LpyzqZq6TG95MMKFKUqChSlKAUpSgFKUoBVXtH9YL39PJf0xjVoqr2j+sF7+nkv6YxrWjwz3c0RO+O/ky0UpSsixSlKAUpSgMngMY7uuq9ZBrbeG7Z9ZERMuYCQuAJ8ibxu6bp6lleBOkBTNynyT1lXFXVmO1pDOqhHdLF6s0i7nlMOUmdqXczlHNovyTQqu3x2SKi2h224cCtAVTRUMQxFVwyANWkRAKvjDAmIib8d3lD3vd8fHyEmaaeWy1fIpRTmQMmCZl1NKXEmAwAAmR39gxg1CmI9tQkb0V7Dj1OGVuG5XsMxbSDaAhXK7YWdvg9Icjg7TSgCpjiVQ5Si4UW0AYQJpAcqAzic6WmIknhbdM1E4cx1uTvsbJ39bxnE2LoNhQmRyuC8KAJrJH7SkDdIoGnMxMxAIy1ekniFh/AzyuIBJW75m3bDtm5HCKkqwI3crybtymIJGQjGxiGApCZibUTIpSgUogdVTX3fRdsB5CnglZi4AQPYoYfCYrhDXy7/8Aq57WW/8AKy0fIril+irh7NDNi6mbiJz63IS2HO24QDQ1i1lFW5yZojkoYypgOI5lEADSUvjECnX50rcRrBc3e1f4IxL09iRsXMzPC3ebIzR6ssmBW2tkXdXICRDaD7SY6zBuhpATSzjpRS8XE3ijcViwUTcdqzLGJTaOLpyYPBeIgs3Erjhd8ypijp4dFqsqKmkqZVAHUFvvPo7WTfLq9nctKTaJ78io+IkgbrolBJFmc50jI6kjaTiKg6hNqAQyyAK6F0dGO0LjmpS6Gt2XPCTshMx08hJx6rQVo92zbC2TFAq7dRMSmSMYpyqkUAdQ5aezIDNrc6VmI2Jj3B2QsyxYyIjbwnJ2JuJpKSK6TlurGgsmqmjraAfTqTMoG4mioIlKQxEszCEnZ3Sbu+4bYg2VlWKN1XErCvrjlCTdwJMQbsEXaqBQKs3ZaFVzmTECJ7KRNJR1qAIZmtNvdE+0LVi7TYQN93m2c2fcMjcbWQO4ZruXSz8yhniK4qtjEMkqKp8xKQqgZ+CctfaXRTs+MiIaNta97xt1zEsXcSpJRzlpxT6OcrmXVariq3Onp3DCJTpkTVJ/ZULmOYFHlOm8RdGSnrGw3LNW3EWZB325kHcwZisMbIKrkMQiANlM10yo6gIY5SnzMGsmkNUpJSWKt/YyYkwtsY23BakZacJDvohiyioldsos5QWUOLniWii5yiZMuZSLJjkIgAlHIQs77ol4UuGNyxMaMtERtzWjG2UoyYLJERZxzE6xkOHA6ZhKp/2g4GMcTgIAXsAcxHsTvRyQk7wm7vg8Xr8tk1yR7OMl2MSMWKDtBsmZMga3DJVdIwkOcBMkqQe3MBKIAIAYtH//AFE4BCNto9ww9rNXasDDytxIursRYuwVfHEm1FM1EzHfinpFQ4GOjpIYgAJzCIBbIrpLYlRS2K0heNv2WDO27xRtq20zXKo2KuJ0EjlTUEWZlTnOBymKVAjhY6iopERECgc1+T6MVjxM3Hyli3HdNlMmsdHRDyJt1+m2ayTNiYRapLGMmZdPQBjFEzdVE5yDpUMcoAAdSf6LFszNwTFzMMQbyg3spcLe6m5o80eYIyUSQ2DLt99ooI7iQaDkWFUmXaUpB7aAz5l0spS/7OtS6YOEl7ZezbS727hkZVIybZ7EpKlETkctAXUKCiQiUBBscPEomPaQOrFdNV3AzuF2GtyQca8mrttOFnHcpLzqMKMgo7OVJQseQ6INnKxDCBzoGXQMIHKCRVBzKGjW90R8PbchYqERuS63hIhW4F013btA6yykwB+LMoYEQ1DqUOYmQBkI9uoOyvy5uiXZd12/BWZKXveRrXhmMawXgTumi7KRKwMUzdRQi7c5kFcyhqUaGbmN5RHIMgNwpX4UpSFAhAyKUMgDzBX7QClKUApSlAVi+fe/6dafiqz1WL597/p1p+KrPWs+7j6kRxMUpSsixSlKAUpSgFKUoBSlKAUpSgFKUoBSlKAUpSgKxfPvf9OtPxVZ6rF8+9/060/FVnrWfdx9SI4mKUpWRZEuVmZbrjm54wx3R456dJ4AeCimVRsB0hHznEyZg/hDUtXQW5vz1ns7XK+Ec8Tn7viNaOzl3ad/Pv0136qVy62slXsUpSpKFKUoCOttZ44t2LcSEaWOdKskDrsyBkVsoJAEyQdxRzL9FSNR1tovG9uxbeQkiyLpJkgRd4QcyuVAIAGVDuMOZvpqRqp4nUTHChSlKkoUpSgFKUoBSlKAV5M6SvTUs7ogjdLyds24LhlpmbLy1u0bmRZmOWLZDks8MUSJ+IfBKBz5ZCJAKOqvWdUdjbtv3aviDbt1QcfMRT6aSSdMX7YjhuuQYxj4J0zgJTB3CFa0eGe7miJ3x38mZF0Kekvc/SDwnd4iX/HrNn7xy7kWrSMtiTSZNI1M2ymgk7UTMk/X1IqnNsKHMAqaBIUSiUNg9l61OpvXvlN68t4jhtjqRNcx155Z8v4Xi9Hy9rR5c8q48IsFcPMCoCQtTDGHWiYWQlFpbgBdqrotllSEKoVEFDGFNMRT1bYDpAxjZAADlV5rIsrT3EKBYTMJArsLlM5n0wVaHQtiSWbpgPkcuCICk0H5K50xDzUZYhQL+Zm4FBhcpXMAmKrs69sSSLdQA8jZwdAEnY/JQOoI+arLSgKV7L1qdTevfKb15bxHDbHUia5jrzyz5fwvF6Pl7Wjy55VIPcQoFhMwkCuwuUzmfTBVodC2JJZumA+Ry4IgKTQfkrnTEPNVlpQFaZYhQL+Zm4FBhcpXMAmKrs69sSSLdQA8jZwdAEnY/JQOoI+ao/2XrU6m9e+U3ry3iOG2OpE1zHXnlny/heL0fL2tHlzyq60oCtPcQoFhMwkCuwuUzmfTBVodC2JJZumA+Ry4IgKTQfkrnTEPNRliFAv5mbgUGFylcwCYquzr2xJIt1ADyNnB0ASdj8lA6gj5qstKApXsvWp1N698pvXlvEcNsdSJrmOvPLPl/C8Xo+XtaPLnlUg9xCgWEzCQK7C5TOZ9MFWh0LYklm6YD5HLgiApNB+SudMQ81WWlAVpliFAv5mbgUGFylcwCYquzr2xJIt1ADyNnB0ASdj8lA6gj5qj/ZetTqb175TevLeI4bY6kTXMdeeWfL+F4vR8va0eXPKrrSgK09xCgWEzCQK7C5TOZ9MFWh0LYklm6YD5HLgiApNB+SudMQ81GWIUC/mZuBQYXKVzAJiq7OvbEki3UAPI2cHQBJ2PyUDqCPmqy0oCley9anU3r3ym9eW8Rw2x1ImuY688s+X8Lxej5e1o8ueVSD3EKBYTMJArsLlM5n0wVaHQtiSWbpgPkcuCICk0H5K50xDzVZaUBWmWIUC/mZuBQYXKVzAJiq7OvbEki3UAPI2cHQBJ2PyUDqCPmqP9l61OpvXvlN68t4jhtjqRNcx155Z8v4Xi9Hy9rR5c8qutKArT3EKBYTMJArsLlM5n0wVaHQtiSWbpgPkcuCICk0H5K50xDzUZYhQL+Zm4FBhcpXMAmKrs69sSSLdQA8jZwdAEnY/JQOoI+arLSgKV7L1qdTevfKb15bxHDbHUia5jrzyz5fwvF6Pl7Wjy55VIPcQoFhMwkCuwuUzmfTBVodC2JJZumA+Ry4IgKTQfkrnTEPNVlpQFaZYhQL+Zm4FBhcpXMAmKrs69sSSLdQA8jZwdAEnY/JQOoI+ao/2XrU6m9e+U3ry3iOG2OpE1zHXnlny/heL0fL2tHlzyq60oDN8Qb7hGsxZEGoxuIzmblmjhsdO3JBRumUdXY4XKgKTU3b7hY5DePs7BrSKrF8+9/wBOtPxVZ61lgj6kRxMUpSsixSlKAUpSgFKUoBSlKAUpSgFKUoBSlKAUpSgKxfPvf9OtPxVZ6rF8+9/060/FVnrWfdx9SI4mKUpWRZEuUWZrrjnB5M5HRI56RJmA+CsmZRsJ1RDzkEqZQ/ijUtUS5WZluuObnjDndHjnp0ngB4KKZVGwHSEfOcTJmD+ENS1XK5bubJjexSlKgoUpSgIazOUdT4Lq/u8r5a14Hd93w+0Xb1Z+XTlnUzUdbazxxbsW4kI0sc6VZIHXZkDIrZQSAJkg7ijmX6KkaukxveTDChSlKgoUpSgFKUoBSlKAVV7R/WC9/TqX9MY1aKq9o/rBe/p5L+mMa1o8M93NETvjv5MtFKUrIsUpSgFKUoDO+kHcV6Wrg3dE5h09imtzIM9MUeSeN2iJnJzlKQgKuf0BFDCbSmKuZNZiagEMwHywh0lMZXsPbuGzWQxF62LXs+t64TqQ9uN7hjxRjxepskVV1CRDkxgEDA4BMutAg5JAcQPXuCVioudjXUNNxrWQj3yRkHTR0iVVFdIwZGIchgEpiiA5CAgIDVWLgpg0WyzYblwkssLSOvxJoEIFry4VtQG3Bbbe1q1AA6tOeYZ0B5gXxi6QVxx0WkbEFO2XKWFktdLxSKQiX4uJBm9AiCoKlBy3EiiZRBUiZxL4ZgIYhgAQr+OeKd9YnYfYkMpO+wgIuEwxgpoYJuybCnLryRTiqsqqqQywEKYgJJlROnkcBEwn9yHtg1j2UfQJ7PhDbcaaGJnHojpjxyzaB4PYgOQZp+57A7KjZvCPCi5hjxuTDG05UYloZhHi+hWy/CNTABTIpayDtpiAAAkLkAgAdlAYNb9m4cYqYv4lMceYOFnTWvGw5oFnOARVGMh1Ges75sRQRK3OdwC4Hck0n/QFATBoLl1cQsUbpaObyb4a4sGgbcwyseOueFUTO2lU7lBUFjBxLp4VZRZuIIESA6KqaomUMYVBES5ehrxwowtxE4D2QMNbVublQiLDnEM3e8JnlntbpDbeekvucvEHmrsz+HeH91v4iVuixbemHsApvRLl/GIOFY9TsHW3OcoikbwS9pBAewPNQHlq9cb8aUZG9LsY3evCsLSWsxyjb4RzQ5FQkQSB41cHVRFbT+kHSJDkOUwePLwaz6FiHFv4yYp3stKEmpZzjpb1u78vDRjpRJkZBqqBE1Ragqnp3AKTScAIBCmKAKCdQ/ux/Y9lShpE8nZ8I8NLmQPICvHoqC8MgICiK2oo7gpiACQTZ6cgyyrjHD+wzLuXI2TACs9kkplyoMajqXkEylKm7OOnMy5SkIBVB8IAKAAPYFAeUrdxRxwmLPibuWxgkSOJ7Ft9ZQNQh4zh2kajKvUCiQOH3DLbSRC6zHEuRCDoE2sx/wAtDGHGiCvKzAuTFV7cMW9xIuGw37R3DsEwcMmbN25RdmM2QTPxQGblKO2JEhL2bWrwh9YIWHYzVohHtrMgkWrWRPLoIJxyJU0n51DKHdFKBcirCc5zioHhCYxhEcxGvwlhWMk4bO0rLgiLs5FaYbKljkQOi/VKYirog6cyrHKc5TKB4RgMYBEQEaA8KXBjtjPdtu3oUmJcwhbl2YVSl4wRzFjm8oxFFUpSmIi3bamaShTmKBFnDpbSXPcSUAwBaVsS72wol715RINZN7D4Y2NtTMhEMQdJGdvXiCjlyq3RSMqmiQQOVMf0ZdIiBQExxN6qh8EMF7efPZOAwhsqMeSSblJ44ZwDRFVyRxp3yqGImAnBTQTWAiIG0lzzyCpCCwww0tdusztnDy2YhBwwJFLJMIlu3IoyIJxI2MBCAApAKqogmPggKh8g8IcwPMt44q40WVc0hhXD4nu5wzC7rRZFueQjGAueHkzqA6ZKlbt022spEwOQxUinAFSagN4zbP0dLruy4oG6om8biXn3tq3bJwKUo5boIuHbdExRTMqRummlrAp9IiRMgDpAcg7auMLhXhhbcE0te3cOLXi4Zg9LJNI5lDt0Grd2U2orhNIhAIRUB7QOAAYB7c6mouDhYTiuSw7Jhxzk7x1wrciW+4PlrVPpANRzZBmYcxHIMxoDvUpSgFKUoBSlKArF8+9/060/FVnqsXz73/TrT8VWetZ93H1IjiYpSlZFilKUApSlAKUpQClKUApSlAKUpQClKUApSlAVi+fe/wCnWn4qs9Vi+fe/6dafiqz1rPu4+pEcTFKUrIs6C3N+es9na5Xwjnic/d8RrR2cu7Tv59+mu/US5RZmuuOcHkzkdEjnpEmYD4KyZlGwnVEPOQSplD+KNS1VK5dbWSr2KUpUlClKUBHW2i8b27Ft5CSLIukmSBF3hBzK5UAgAZUO4w5m+mpGoazOUdT4Lq/u8r5a14Hd93w+0Xb1Z+XTlnUzV0mN7yYYUKUpUFClKUApSlAKUpQCsfUl8bmN73qjh9h7Y81F84bmFzM3i7i3AK8sZai7KUY5LpANORtzMcx8EMsxtqOLtkOUU3LVaaXRVKB01UrekDkOUQzAxTAhkICHaAh2DULbmIluMJi6XTtvPkSkpZNy2N1dkB3EgYtUhNkCGYeGkoGQ5D4OfiEBH1w0amUZVwd2TzR55U9E3H7lfn5M6/WPpT/ubwq+8uR9RU6x9Kf9zeFX3lyPqKrL7K9n/sz/ANm5L8insr2f+zP/AGbkvyKz+lp/A+DL19F4lxRWusfSn/c3hV95cj6ip1j6U/7m8KvvLkfUVWX2V7P/AGZ/7NyX5FPZXs/9mf8As3JfkU+lp/A+DGvovEuKK11j6U/7m8KvvLkfUVOsfSn/AHN4VfeXI+oqsvsr2f8Asz/2bkvyK+22KVoPHqUc3GbM6WATESG35AphKAlAx8hR9yAnIAm8Qai5iGYUejUy7XB8GNfRP8lxKv1j6U/7m8KvvLkfUVOsfSn/AHN4VfeXI+oq0bnTPm/JNl/xG3ua+AX4fLzb+jaz+Tqz7q4EbnjV2bx8RtLAmwMJVSniHZFDD/hpmTA6od5AMFZWJZF2o5lA6x9Kf9zeFX3lyPqKnWPpT/ubwq+8uR9RVf1rnjUGbN8dtLCm/MBUikiHZ1Cj/iJlTE6Qd5wKFc/OmfN+SbL/AIjb3NfAL8Pl5t/RtZ/J1Z91LEshajmZz1j6U/7m8KvvLkfUVOsfSn/c3hV95cj6iq/o3PGrs3j4jaWBNgYSqlPEOyKGH/DTMmB1Q7yAYKLXPGoM2b47aWFN+YCpFJEOzqFH/ETKmJ0g7zgUK7q53VMW45lA6x9Kf9zeFX3lyPqKnWPpT/ubwq+8uR9RVo3OmfN+SbL/AIjb3NfAL8Pl5t/RtZ/J1Z91cCNzxq7N4+I2lgTYmEqpTxDsihh/w0zJgdUO8gGCuWJZC1HMoHWPpT/ubwq+8uR9RU6x9Kf9zeFX3lyPqKr+tc8agzZvjtpYU35gKkUkQ7OoUf8AETKmJ0g7zgUK5+dM+b8k2X/Ebe5r4Bfh8vNv6NrP5OrPupYlkLUczOesfSn/AHN4VfeXI+oqdY+lP+5vCr7y5H1FV/RueNXZvHxG0sCbAwlVKeIdkUMP+GmZMDqh3kAwUWueNQZs3x20sKb8wFSKSIdnUKP+ImVMTpB3nAoV3VzuqYtxzKB1j6U/7m8KvvLkfUVOsfSn/c3hV95cj6irRudM+b8k2X/Ebe5r4Bfh8vNv6NrP5OrPurgRueNXZvHxG0sCbAwlVKeIdkUMP+GmZMDqh3kAwVyxLIWo5lA6x9Kf9zeFX3lyPqKnWPpT/ubwq+8uR9RVf1rnjUGbN8dtLCm/MBUikiHZ1Cj/AIiZUxOkHecChXPzpnzfkmy/4jb3NfAL8Pl5t/RtZ/J1Z91LEshajmZz1j6U/wC5vCr7y5H1FTrH0p/3N4VfeXI+oqv6Nzxq7N4+I2lgTYGEqpTxDsihh/w0zJgdUO8gGCi1zxqDNm+O2lhTfmAqRSRDs6hR/wARMqYnSDvOBQrurndUxbjmUDrH0p/3N4VfeXI+oqx7pfXfj9HdGq/5K8LOsK0o9lF8UnMw2KEmm+ZvE1SHaGQ0wyQmUFyVApSbiYHEwEE5QMJg9T86Z835Jsv+I29zXwC/D5ebf0bWfydWfdXSUnIOUjni7mMkVmzBUhlEnEK61GOQwGKZNM6WpXIxSmAyYGyEAEB7K5YlkLUczwx0JcTenNfsRb3ti7JTCziyLU0bcEwnwMw4P26C7ABmsnp7d05CCOercUzyr+gdUe+J5iLO1nwISO26m2piFGNcAoABq92no1kHuMADVp50z5vyTZf8Rt7mvgF+Hy82/o2s/k6s+6tZwlq49mZEZK0+3I79KiUbnjV2bx8RtLAmwMJVSniHZFDD/hpmTA6od5AMFFrnjUGbN8dtLCm/MBUikiHZ1Cj/AIiZUxOkHecChWerndUy7ccyWpXQ50z5vyTZf8Rt7mvgF+Hy82/o2s/k6s+6uBG541dm8fEbSwJsDCVUp4h2RQw/4aZkwOqHeQDBXLEshajmS1KiVrnjUGbN8dtLCm/MBUikiHZ1Cj/iJlTE6Qd5wKFc/OmfN+SbL/iNvc18Avw+Xm39G1n8nVn3UsSyFqOZ36VEo3PGrs3j4jaWBNgYSqlPEOyKGH/DTMmB1Q7yAYKLXPGoM2b47aWFN+YCpFJEOzqFH/ETKmJ0g7zgUK7q53VMW45ktSuhzpnzfkmy/wCI29zXwC/D5ebf0bWfydWfdXAjc8auzePiNpYE2BhKqU8Q7IoYf8NMyYHVDvIBgrliWQtRzJalRK1zxqDNm+O2lhTfmAqRSRDs6hR/xEypidIO84FCufnTPm/JNl/xG3ua+AX4fLzb+jaz+Tqz7qWJZC1HM79KiUbnjV2bx8RtLAmwMJVSniHZFDD/AIaZkwOqHeQDBRa541BmzfHbSwpvzAVIpIh2dQo/4iZUxOkHecChXdXO6pi3HMlqV0OdM+b8k2X/ABG3ua+AX4fLzb+jaz+Tqz7q4EbnjV2bx8RtLAmwMJVSniHZFDD/AIaZkwOqHeQDBXLEshajmS1KiVrnjUGbN8dtLCm/MBUikiHZ1Cj/AIiZUxOkHecChXPzpnzfkmy/4jb3NfAL8Pl5t/RtZ/J1Z91LEshajmQ98+9/060/FVnqh3jcsc6aRb1NtKlTYTzYFQUiXSahstee2QyYGV7tsDZ+SrMtc8agzZvjtpYU35gKkUkQ7OoUf8RMqYnSDvOBQradHOxFVPaRGcbT7SWpSlec1IlyszLdcc3PGHO6PHPTpPADwUUyqNgOkI+c4mTMH8Ialq6C3N+es9na5Xwjnic/d8RrR2cu7Tv59+mu/VSuXW1kq9ilKVJQpSlAR1trPHFuxbiQjSxzpVkgddmQMitlBIAmSDuKOZfoqRqOttF43t2LbyEkWRdJMkCLvCDmVyoBAAyodxhzN9NSNVPE6iY4UKUpUlClKUApSlAKUpQGO4ffqFbfohn/AOySp+oDD79Qrb9EM/8A2SVP1+jpMb3nxYYUKrz+/wC0oyZPb76W2pAizJuZHYVNko7McrcNQFEvhCmftzyDLwsswrKOlFEurhG2IFSx46djnSjrcWlLQfXSyQcaClRTPHtVkikOfUYSulzbaOgwZl3NQZnH4ev30Jaj/EPDaSlQiS2OosR7b6z5VBREzlNcSpaFD5p7hQOJc9BTZmHT21hKbTqSNlBNVs9iUpX4YxSFE5zAUpQzERHIADz1oZgxikKJzmApShmIiOQAHnrjsBFzcVxheqKApRDZiuwYrH7DPd1RE51il8iYbBQKb+1mYQDTpE3Qg4NXEpUrx4U6dpJmzIQcwNMGAfGPmbB/+7/k93qpCETIVNMgFKUAApQDIAAPIFeTS6dUadHG/b5f39b7vTo9C5tTd2zz/h9UpSvlHvFKUoBSlKAUpSgFKUoBSlKAUpSgFKUoBWZ3FiXJ21iXLsZaQimdn25aZJ+REzBZV6qqdZYgbapVQKUpSoD4GycxxOGRi5ZDplY7fOHMreuJNxRElBSRbauuy0oc821WaiRk6Scrn0mTUU3ROILEMQSpHJmUQMJezMDvvceDR0S2WfYP4gIz8hIhGx9tmbMONfGFIVhVSWB3wW2CRDnMJnJRLpEpgA4lIMPL9KyzmEchJxFkXnPpjCrT74kc0agpGtEFzIOd8q7hMdxFQhinTT1nHIdAHyGuzI4SYuzDOJm5TGKDUvO35HjIp6naAkiUUjIGQVROy4wXB9wihjCbjAyOUglApQEhuOM6OSUZBy0SW8ll1pq1nsA7dLMgEx3Ttyu4XeaQOAAAqOD5JBkAAABqoCm3ZjZeb/Glnap4MY60GE9b7Vo5Wi0VlZBd4msqChFySAGST0JiAFO01AJRERHMC1bWvShi5GJipSMwlv54afSeuIZqmnGAtIINSpmWVJqegRMobhgDeMmJhTNkA6k9fBeuDO3cUDP9ZM9Vy26vtcH/AP2Ldwjlq1/297PPLwdOXhZ5hY7cwU6vtbLbdZd/qhBP4TVwWniuJBEN3/mDo07PufCz1eMMu3SVdiPqQsTKu/6SDi6LHnJ7D2BkYN7HwbW6Y1a6YgDtpaLObtOkki6KskIgUxP022chhKbbUL2DuqZhOmUw+MQAawW68Fp62sOlWFskeXTJJWO0sdBm1SbtjKCVTteGOu4IQpAAwmMTUJgKUdOs2RR3lIBKmQoh2gUAGsyz7pSlAKUpQClKUApSlAKUpQClKUApSlAKUpQFYvn3v+nWn4qs9Vi+fe/6dafiqz1rPu4+pEcTIm0UWbe1IVvHyZ5FqlHNiIPDjmZymCZQKqI+cwZG+mpaom0Vmbi1IVxHxh45qrHNjoMzhkZsmKZRKkIecoZF+ipappMbrzOwwoiXKLM11xzg8mcjokc9IkzAfBWTMo2E6oh5yCVMofxRqWqJcrMy3XHNzxhzujxz06TwA8FFMqjYDpCPnOJkzB/CGpakrlu5sRvYpSlQUKUpQENZnKOp8F1f3eV8ta8Du+74faLt6s/LpyzqZqOttZ44t2LcSEaWOdKskDrsyBkVsoJAEyQdxRzL9FSNXSY3vJhhQpSlQUKUpQClKUApSlAYHZF72WxsuAZPbuhW7hvFtUlUlZBIh0zlSKBimKJswEBAQEB8VTXsg2F8N4D6yR/1VpNmco6nwXV/d5Xy1rwO77vh9ou3qz8unLOuhaP6wXv6eS/pjGvsS02EpTdh9nn51ZHzVosko/df5eW8ovsg2F8N4D6yR/1U9kGwvhvAfWSP+qtipWX18PA+P8NPpJeL2/pjvsg2F8N4D6yR/wBVd2FgV8Rl+JfpqI2oifsTMAlNLmAfKHjBsA//AOz/ACe71WlRPT641UcannXXyRUdEqdc3Wt39PkhCJkKmmQClKAAUoBkAAHkCvqlK+eewUpSgFKUoBSlKAUpSgFKUoBSlKAUpVExKxwwywiXYtb9uBdkvIorukUWsY7fKFbIaN5yqVskoKKCe4TWsoBUy6i5mDOgL3Ss+nsfcJLauhjZ8xdoJyEgLQpFEmLldmiZ0bS1K4dppmbtjLGyBIFlCCoIgBAMIhnxs+kJhHIXgnYjS51zy6sq4gilGKeFbhIoE1qNTORSBAqugBMUgnATgAiQDAFAaLSsSV6VliSN9w9lWW3XnSyQzKa0gKLlo3IpHpCdQG6iqAJvCicBTMoicxSGDtER7K69rdMHCt/hvat9Xq4dW89uS1Wt3LRTZi9lDMWKogBlTqN245ppmHI6glKBQ8IwFL20ButKwY3Swt8MdLiwpUhAZ2/aNuN7imbqfneINiJrgcyYI/8AZDIKEECh+kM4TA4iYqYKGIcC2lLpL4MGt9e5XdzvY5o1kmcQujJwUgxeIunZilalO0cIEcFKqJi6DimBDeQ3YNAWm+fe/wCnWn4qs9YO76TODF8TFrQFv3JIi/c3UlGbL235FjsPkgMJmi4uECA3cacjFRVEihyiBilMUc6sTrpPYPoqTzRtLy7t7ARLubM1St9+U8gzbG0rKsDHRKR8UphKUTNzKFATBmIAOdaywR9SI4matSsasnpO2VdkXG3DJKIW7GPLQJdzjmwO2rpogKmg2pNZsRMUgHsBQFdRxyEpBKIHGUDpMYLlth5dz6530awj5BlFu05OCkGLxu4eKETago0XQI4IRQyhNKgpgQQER1ZAIhkWajSq1YeIto4lRjuWtB+5XSYPVo14k7j3LFy2cpCGtJVu5TTVTMGYD4RQzAQEMwEBqy0ApSlAKUpQClKUApSlAKUpQClKUApSlAVi+fe/6dafiqz1WL597/p1p+KrPWs+7j6kRxM6EBzfkUd1g2uacIjx217jiNAbmnu1Z5d1d+om0UWbe1IVvHyZ5FqlHNiIPDjmZymCZQKqI+cwZG+mpaoniZ2OFHQW5vz1ns7XK+Ec8Tn7viNaOzl3ad/Pv0136iXKLM11xzg8mcjokc9IkzAfBWTMo2E6oh5yCVMofxRqWpK5dbWFexSlKkoUpSgI63EXja3YtvISRZF0kyQIu8IOZXKgEADKh3GHM301I1DWZyjqfBdX93lfLWvA7vu+H2i7erPy6cs6maukxveTDChSlKgoUpSgFKUoBSlKAjrbWeOLdi3EhGljnSrJA67MgZFbKCQBMkHcUcy/RURaP6wXv6eS/pjGpe20Xje3YtvISRZF0kyQIu8IOZXKgEADKh3GHM301md0Y1YVYHFvm6sV75i7bjwnSbYu1f0rgSxbERKiiXNRYwB26UymHLtyrdf+lWXNGXh62M12lZl0e8eILpHWGriZaVuzMZby0m5YxLiUTTTPJoI6SGdJkIY2lMVd1MAMIGzSERAM8q02sDUUpSgFKUoBSlKAUpSgFKUoBSlKAUpSgFKUoBXnjpXdHm58a14CWs6OgiTsE2fIxc6a4pKAl4JyuQpQdNHjMiwKFyAQO3VS0n7B3C9oD6HpQHk2Z6Id7P8AEQ0++nGVzMZ88A5n3sldM5Him4jyJlVULFsFE2r0yu0UxDLKEBE456VShoGzF6N94ceg5GRgykLiytfaolWVAxo86J0wT/5XauGoPBHwcg93XoylAeXLJ6N+Ltuv7Gg5OStJa3MPErgZMHiLxyL6QbvkjFQMqiKAJonJq0nKVRQDAGoDB7iujafRMxBgrBjrXey1tKPmeDI4dCqm4XEnMR8apRFEB4fxeFlr7PcV6xpQHlh90Srxmn97mf3JDNELjsW1reYKImVWMlIRKiypjqpiQgGQMcyYBkbUJdWZS9mfNcPRuxRxAuV3idda9qxFzSEnahVIuOknDtghHQ71RyYwODtUlFF1BXVyLtEIUAIXUPaavUNKA8t3VgDeTWcYSRpaIIm8xrQvRMSKqicjIzUUgJkKeW8Bgz0+5y/teSq9YXRHxZjsQC3deTizTuS2dcFrPrgSlnshMTqz5RIyDx2dduQSgmVICFbgocqQCIJm05FD09fPvf8ATrT8VWetJKqEXvIT+5o8lI9FHE65bWYQ93yVrwztjh4ztEho1+4kEuNZvU10Fh3G6AmROCJNZcgEBMYoagDUPbvboyYo4oPZi/LpVtOJueakrPTPFspJw8jkY2FlOMUNxB2qSii6u4sAF2SkDIhRMPaevVVKzLM4wnw4nLEuTEiYl3TFZG8LpNNsStjnMZNAWqCOlUDFKAH1ImHIomDIQ7fGAaPSlAKUpQClKUApSlAKUpQClKUApSlAKUpQFYvn3v8Ap1p+KrPVYvn3v+nWn4qs9az7uPqRHEyJtFZm4tSFcR8YeOaqxzY6DM4ZGbJimUSpCHnKGRfoqWroQHN+RR3WDa5pwiPHbXuOI0Buae7Vnl3V36ieJnY4URLlZmW645ueMOd0eOenSeAHgoplUbAdIR85xMmYP4Q1LV0Fub89Z7O1yvhHPE5+74jWjs5d2nfz79Nd+krl1tYV7FKUqShSlKAjrbWeOLdi3EhGljnSrJA67MgZFbKCQBMkHcUcy/RUjUdbaLxvbsW3kJIsi6SZIEXeEHMrlQCABlQ7jDmb6akaqeJ1ExwoUpSpKFKUoBSlKAUpSgIazOUdT4Lq/u8r5a14Hd93w+0Xb1Z+XTlnWFYv9EXBDpSOrxZYpW0opIspgiMfNMFth+yKaMZDkQ+QlOXMRHQoU5MxEdOfbWz2rekBI2k3mHEpDs+DaI8zSReJClHLaA1onMA5E0jmXIcvFURa93Wo3lLqkHFzxKTWRn0SM1zvUypuTDGMcgTMJsjj82derVzrpOx9NGFuNUO3qpmNdHroB4NYR2GtY+IWH+HOIajOTcKxU1JWWy48WCmk5EXSihTmVUIoZYAPqyEm2AAUA0hp3tTuix8WnCr7Gx35NaNz+C5v1f50w5pt7vA8STiNH7W3nqy78sq4EbutRwzeSDe54lVrHGEjxcj1MybYweMFDAbIg/PlXnsSyNbUcyge1O6LHxacKvsbHfk09qd0WPi04VfY2O/Jq/rXdajdmzkHFzxKTWRMBGa53qZU3Jh8QJmE2Rx+bOufn8Fzfq/zphzTb3eB4knEaP2tvPVl35ZUsSyFqOZnPtTuix8WnCr7Gx35NPandFj4tOFX2Njvyav6N3Wo4ZvJBvc8Sq1jjCR4uR6mZNsYPGChgNkQfnyotd1qN2bOQcXPEpNZEwEZrneplTcmHxAmYTZHH5s67q53VMW45lA9qd0WPi04VfY2O/Jp7U7osfFpwq+xsd+TWjc/gub9X+dMOabe7wPEk4jR+1t56su/LKuBG7rUcM3kg3ueJVaxxhI8XI9TMm2MHjBQwGyIPz5VyxLIWo5lA9qd0WPi04VfY2O/Jp7U7osfFpwq+xsd+TV/Wu61G7NnIOLniUmsiYCM1zvUypuTD4gTMJsjj82dc/P4Lm/V/nTDmm3u8DxJOI0ftbeerLvyypYlkLUczOfandFj4tOFX2Njvyae1O6LHxacKvsbHfk1f0butRwzeSDe54lVrHGEjxcj1MybYweMFDAbIg/PlRa7rUbs2cg4ueJSayJgIzXO9TKm5MPiBMwmyOPzZ13VzuqYtxzKB7U7osfFpwq+xsd+TT2p3RY+LThV9jY78mtG5/Bc36v86Yc0293geJJxGj9rbz1Zd+WVcCN3Wo4ZvJBvc8Sq1jjCR4uR6mZNsYPGChgNkQfnyrliWQtRzKB7U7osfFpwq+xsd+TT2p3RY+LThV9jY78mr+td1qN2bOQcXPEpNZEwEZrneplTcmHxAmYTZHH5s65+fwXN+r/OmHNNvd4HiScRo/a289WXfllSxLIWo5mc+1O6LHxacKvsbHfk09qd0WPi04VfY2O/Jq/o3dajhm8kG9zxKrWOMJHi5HqZk2xg8YKGA2RB+fKi13Wo3Zs5Bxc8Sk1kTARmud6mVNyYfECZhNkcfmzrurndUxbjmUD2p3RY+LThV9jY78mntTuix8WnCr7Gx35NaNz+C5v1f50w5pt7vA8STiNH7W3nqy78sq4EbutRwzeSDe54lVrHGEjxcj1MybYweMFDAbIg/PlXLEshajmUD2p3RY+LThV9jY78mntTuix8WnCr7Gx35NX9a7rUbs2cg4ueJSayJgIzXO9TKm5MPiBMwmyOPzZ1z8/gub9X+dMOabe7wPEk4jR+1t56su/LKliWQtRzM59qd0WPi04VfY2O/Jp7U7osfFpwq+xsd+TV/Ru61HDN5IN7niVWscYSPFyPUzJtjB4wUMBsiD8+VFrutRuzZyDi54lJrImAjNc71Mqbkw+IEzCbI4/NnXdXO6pi3HMoHtTuix8WnCr7Gx35NPandFj4tOFX2Njvya0bn8Fzfq/zphzTb3eB4knEaP2tvPVl35ZVwI3dajhm8kG9zxKrWOMJHi5HqZk2xg8YKGA2RB+fKuWJZC1HMx68uix0YmvI+G6OWF6O9MtklNu0I8usg6syjkj2gPm8VWL2p3RY+LThV9jY78mp2+Lkt0zO1pAJ6OFq8m2pm64OibaxQ1ZiQ2eRg7Q8VWnn8Fzfq/zphzTb3eB4knEaP2tvPVl35ZVrOErEezMiMlafbkZz7U7osfFpwq+xsd+TT2p3RY+LThV9jY78mr+jd1qOGbyQb3PEqtY4wkeLkepmTbGDxgoYDZEH58qLXdajdmzkHFzxKTWRMBGa53qZU3Jh8QJmE2Rx+bOs9XO6pl245lA9qd0WPi04VfY2O/Jp7U7osfFpwq+xsd+TWjc/gub9X+dMOabe7wPEk4jR+1t56su/LKuBG7rUcM3kg3ueJVaxxhI8XI9TMm2MHjBQwGyIPz5VyxLIWo5lA9qd0WPi04VfY2O/Jp7U7osfFpwq+xsd+TV/Wu61G7NnIOLniUmsiYCM1zvUypuTD4gTMJsjj82dc/P4Lm/V/nTDmm3u8DxJOI0ftbeerLvyypYlkLUczOfandFj4tOFX2Njvyae1O6LHxacKvsbHfk1f0butRwzeSDe54lVrHGEjxcj1MybYweMFDAbIg/PlRa7rUbs2cg4ueJSayJgIzXO9TKm5MPiBMwmyOPzZ13VzuqYtxzKB7U7osfFpwq+xsd+TT2p3RY+LThV9jY78mtG5/Bc36v86Yc0293geJJxGj9rbz1Zd+WVcCN3Wo4ZvJBvc8Sq1jjCR4uR6mZNsYPGChgNkQfnyrliWQtRzKB7U7osfFpwq+xsd+TT2p3RY+LThV9jY78mr+td1qN2bOQcXPEpNZEwEZrneplTcmHxAmYTZHH5s65+fwXN+r/OmHNNvd4HiScRo/a289WXfllSxLIWo5mc+1O6LHxacKvsbHfk09qd0WPi04VfY2O/Jq/o3dajhm8kG9zxKrWOMJHi5HqZk2xg8YKGA2RB+fKi13Wo3Zs5Bxc8Sk1kTARmud6mVNyYfECZhNkcfmzrurndUxbjmUD2p3RY+LThV9jY78mntTuix8WnCr7Gx35NaNz+C5v1f50w5pt7vA8STiNH7W3nqy78sq4EbutRwzeSDe54lVrHGEjxcj1MybYweMFDAbIg/PlXLEshajmUD2p3RY+LThV9jY78mntTuix8WnCr7Gx35NX9a7rUbs2cg4ueJSayJgIzXO9TKm5MPiBMwmyOPzZ1z8/gub9X+dMOabe7wPEk4jR+1t56su/LKliWQtRzMmlOjv0f7MmLXuKz8DMPoKVazzQyD6Nthk1cJD4XaVRNIDF+ga2iqHeN12s7aRb9pcsUs2jZ5sDxZN4mZNsIa8wUMA5EyyHPPKrMtd1qN2bOQcXPEpNZEwEZrneplTcmHxAmYTZHH5s61lRysR7MyIzjafaLRRZt7UhW8fJnkWqUc2Ig8OOZnKYJlAqoj5zBkb6alqibRWZuLUhXEfGHjmqsc2OgzOGRmyYplEqQh5yhkX6KlqzpMbrzLhhREuUWZrrjnB5M5HRI56RJmA+CsmZRsJ1RDzkEqZQ/ijUtUS5WZluuObnjDndHjnp0ngB4KKZVGwHSEfOcTJmD+ENS1JXLdzYjexSlKgoUpSgIazOUdT4Lq/u8r5a14Hd93w+0Xb1Z+XTlnUzUdbazxxbsW4kI0sc6VZIHXZkDIrZQSAJkg7ijmX6KkaukxveTDChSlKgoUpSgFKUoBSlKAjrbReN7di28hJFkXSTJAi7wg5lcqAQAMqHcYczfTURaP6wXv6eS/pjGu/ZnKOp8F1f3eV8ta8Du+74faLt6s/LpyzroWj+sF7+nkv6Yxr0baTr8kZbIdbGWilKV5zUUpSgFKUoBSlKAUpSgFKUoBSlKAUpSgFKUoBSlKAUpSgFUm6cQJCAxBtmzGsLHrM5dlIyUlJPJMzbgGrQEgExEwROCxhMuTMDHSApQMbUIgBRu1Y7ivBmnsVLWiHjGa5bO2zcUCq/Yxrhwk0VcA1Eu6qkQSIZlTVEplTEKIl0gOYgAgfcD0nMO7hn5dqyXXRgYaASnlZh40dNN1NRwdEgJILIkOqmfQApqp6iq6gBPV2CM43x9wvd2urdiErLmQQfjFqR/V6RCXK8AuvYGMFDjdzb/AEmnZzFP9IAaPCrLJXo/YrX7CP46/HdrRyqVtx0HHBCyj79OsxelcprqLAmiq3BXQUBBIROj2iVRQchDktjAfEy0UGl6w0PbnWxlcKksEPI3zOyzd0gdkLMSrS79NZcVAIOsolaFIAFBPT2irQFhuTHCBnrkgImHI2VjjzVvqNZA66peJB6DsQKCQIiJDk4YQ0nEvaIgYSCXIbLb3SQwZuhw8QjLtVSIxjVZg7l/FPWLVVmkJQWWQXcIkSXKmYxSqbRjiQw6TaR7KoF5YVYhSF427edyyFumdOLhtpd0RiK5EymaFfAqUhTgYRD/ALSmBRE3haTCIE7C1+y/RluC4MPrcsV/NRrQsbZkpbrxdsqtnxTlRqdNRPSBDiTNubUYDEOGYae3tDSVdiPqQsTLsrj7By8I1n7Dj1JRFOdjoeXaTCD2DfsCPFSJprcK6agqbMVSGKByplOTUJTjlkOqV5fj8LbosOAUXuC2Vgmrlui20iIRlx3FeJ00Gj1NUyjh/IBqSSAu8YA2kkyB2CdQxgy9QVmWKUpQClKUApSlAKUpQClKUApSlAKUpQClKUBWL597/p1p+KrPVYvn3v8Ap1p+KrPWs+7j6kRxM6EBzfkUd1g2uacIjx217jiNAbmnu1Z5d1d+om0UWbe1IVvHyZ5FqlHNiIPDjmZymCZQKqI+cwZG+mpaoniZ2OFHQW5vz1ns7XK+Ec8Tn7viNaOzl3ad/Pv0136iXKLM11xzg8mcjokc9IkzAfBWTMo2E6oh5yCVMofxRqWpK5dbWFexSlKkoUpSgI620Xje3YtvISRZF0kyQIu8IOZXKgEADKh3GHM301I1DWZyjqfBdX93lfLWvA7vu+H2i7erPy6cs6maukxveTDChSlKgoUpSgFKUoBSlKAjrbWeOLdi3EhGljnSrJA67MgZFbKCQBMkHcUcy/RURaP6wXv6eS/pjGpe20Xje3YtvISRZF0kyQIu8IOZXKgEADKh3GHM301EWj+sF7+nkv6Yxrdf+lWXNGXh62MtFKUrA1FKUoBSlKAUpSgFKUoBSlKAUpSgFKUoBSlKAUpSgFKUoBSlKAUpSgKxfPvf9OtPxVZ6rF8+9/060/FVnrWfdx9SI4mKUpWRYpSlAKUpQClKUApSlAKUpQClKUApSlAKUpQFYvn3v+nWn4qs9Vi+fe/6dafiqz1rPu4+pEcTIm0Vmbi1IVxHxh45qrHNjoMzhkZsmKZRKkIecoZF+ipauhAc35FHdYNrmnCI8dte44jQG5p7tWeXdXfqJ4mdjhREuVmZbrjm54w53R456dJ4AeCimVRsB0hHznEyZg/hDUtXQW5vz1ns7XK+Ec8Tn7viNaOzl3ad/Pv0136SuXW1hXsUpSpKFKUoCOttZ44t2LcSEaWOdKskDrsyBkVsoJAEyQdxRzL9FSNR1tovG9uxbeQkiyLpJkgRd4QcyuVAIAGVDuMOZvpqRqp4nUTHChSlKkoUpSgFKUoBSlKAhrM5R1Pgur+7yvlrXgd33fD7RdvVn5dOWddC0f1gvf08l/TGNS9trPHFuxbiQjSxzpVkgddmQMitlBIAmSDuKOZfoqItH9YL39PJf0xjXo20nX5Iy2Q62MtFKUrzmopSlAKUpQCvOLrpKzNv3TekOhbUhPrMcSY2yGLd1JoIpJC7jmy4KJik0A5EimVETFUFY/acwH06Uy+jqyhXo3WMtcUrcxpWdB1L3myvlcgLo7ZX7Vok2TTKG1mCIkRKJiiImEwiIHAMgADE776RuNV2yuFFv2Qyj7NcT1/ytp3Vsy6Tk5Dx6KyiibdZxHKkMiciQn3BRIccip6SahVJocF0on009t50+shKKtS/nMjGWhNFlRcPHTpqksoAuWfDlI3IoRsudMxVlewpQOBBNkFkb9GWwm0/A3ESWnjObevCTvVsQy6IpnfPkFUVkzhtZiiBVjCUoCBgEAzMYMwH8t/oy2PATrOSCcuB/Fwrh48t6BeLNzx8C4dFOVdZrpRKuYwlVWAu+qqBAVMBAIA5ABlnRfxTuW97Xg7zuvFzFudmFoZeSfRMhYaUfbyihSmESpSBIZIpihkGgSOzahD+32hUjaPS7vO97OQnG2FcVDvrhw4Xv2203NwqOE1dkCgqg60tCCkBTKEEpibm4Ue0Ex7A0HDno9O8NIdhacZjjiBI2vGs1GDeCkEIQWxUDFMUCiqlHJuR06swHezzAM9QZgP5a3Rgw9tOOtiLZyU85b2rZa9iNSuXCQitHK7es6okSKIrfoi5GLpL2j4PiyAxd308xw9sq0QxEZ2WNyr2cyu2fSdXinHGVaLDkUI9NRsAvHZykUPw2SRCiAF3RzAausx0wzQzfEu5nVixyVo4bvkI1aUXuLaXfuXLRou1BNEW+2mQTPAKoc6wAmUoHDczEpLDG9FKEh4+CaRWLeIjF3DxSVvuJJm7YNnkpFJK7iLNwok0LoKn2lKq3BFcCmNmqIjnU+v0c8P3kdiJFvl5dyhiXJoy8nuOS62rpJs3QSO2OBAMQScKkoAnE46wEREQHTQGbW500Ubtg1GlrWvbE/d5rrbWk0awt5Jv4N0su34kq5ZRNvqBIqIKa822sFEzEApuww59KdIbEM7O3Av/ABoDDBjIYo3HbcrLAaHIVoxaIKmbtyrvWyiGncIUAUMmChgEM8hHIPQL/o5xczbCcPcOJ1+S822m0riY3O9ftjyMe+SKBEzNkgbgyRIBAEgpFbAmbUcxymOYxh+LX6Mtk2q8gpFC4rmfOoG55O7UlnrpFQzh8/SOmuCuSQZp5KGEpS6dI5BnpDTQGVQHSku+1cK15xdeNxFWUuOVj7Zlnr0I5W5oxsAHK4boMGa6rtTtOQBaNBTMVIyhhTJ4QzK/TNeS9qx914e4UnmkPY9LiLLov5oGCjNmoQwot0hBBUi65zEUDIxkygUmerMdNapipglE4pycNOmu+5bXloVF4zSfwKrYiyrR0QpHDc/EILFAhgIQdRAKoUSgJTlGsFxO6G18oRkFaOBs+0ZQTWxFbCkV5KcOxeuGWoNneMkxXByQhROIFSFopn2bwlOIABNXF08rOt+8I621463CJ6YIssi7u1BrKpqyhUxIDFidPN8REFUzKn3EhAurSU4hpr1NWQMOjdCRkzGzkVf14QwpNopKZYw75No1nFI9MCN1HIgmLgnYUAMVFZMqhQAigKFzAdfoBSlKAUpSgFKUoCsXz73/AE60/FVnqsXz73/TrT8VWetZ93H1IjiYpSlZFilKUApSlAKUpQClKUApSlAKUpQClKUApSlAVi+fe/6dafiqz1WL597/AKdafiqz1rPu4+pEcTIm0UWbe1IVvHyZ5FqlHNiIPDjmZymCZQKqI+cwZG+mpaom0Vmbi1IVxHxh45qrHNjoMzhkZsmKZRKkIecoZF+ipappMbrzOwwoiXKLM11xzg8mcjokc9IkzAfBWTMo2E6oh5yCVMofxRqWqJcrMy3XHNzxhzujxz06TwA8FFMqjYDpCPnOJkzB/CGpakrlu5sRvYpSlQUKUpQENZnKOp8F1f3eV8ta8Du+74faLt6s/LpyzqZqOttZ44t2LcSEaWOdKskDrsyBkVsoJAEyQdxRzL9FSNXSY3vJhhQpSlQUKUpQClKUApSlAR1tovG9uxbeQkiyLpJkgRd4QcyuVAIAGVDuMOZvpry70lempZ3RBG6Xk7ZtwXDLTM2Xlrdo3MizMcsWyHJZ4YokT8Q+CUDnyyESAUdVemrM5R1Pgur+7yvlrXgd33fD7RdvVn5dOWdQDG3bfu1fEG3bqg4+Yin00kk6Yv2xHDdcgxjHwTpnASmDuEK9G2k6/JGWyHWxmAdFPppPMUsJk8RcVoG6AfT0k7Xjmlr4a3G/ZMmCZ9lNEXaDVZJwprSVOY5FBABU05FEglDYvbLYdfBzFX7p7q9XVOYRYK4eYFQEhamGMOtEwshKLS3AC7VXRbLKkIVQqIKGMKaYinq2wHSBjGyAAHKrzXnNTKvbLYdfBzFX7p7q9XU9sth18HMVfunur1dWq0oDKvbLYdfBzFX7p7q9XU9sth18HMVfunur1dWq0oDKvbLYdfBzFX7p7q9XU9sth18HMVfunur1dWq0oDKvbLYdfBzFX7p7q9XU9sth18HMVfunur1dWq0oDKvbLYdfBzFX7p7q9XU9sth18HMVfunur1dWq0oDKvbLYdfBzFX7p7q9XU9sth18HMVfunur1dWq0oDKvbLYdfBzFX7p7q9XU9sth18HMVfunur1dWq0oDKvbLYdfBzFX7p7q9XU9sth18HMVfunur1dWq0oDKvbLYdfBzFX7p7q9XU9sth18HMVfunur1dWq0oDKvbLYdfBzFX7p7q9XU9sth18HMVfunur1dWq0oDKvbLYdfBzFX7p7q9XU9sth18HMVfunur1dWq0oDKvbLYdfBzFX7p7q9XU9sth18HMVfunur1dWq0oDF5THOyrrmLXg4uExBQcuZ5oBDyWHdwRzcPde6XdMk0ifOY4VtFVi+fe/wCnWn4qs9aywR9SI4mKUpWRYpSlAKUpQClKUApSlAKUpQClKUApSlAKUpQFYvn3v+nWn4qs9Vi+fe/6dafiqz1rPu4+pEcTOhAc35FHdYNrmnCI8dte44jQG5p7tWeXdXfqJtFFm3tSFbx8meRapRzYiDw45mcpgmUCqiPnMGRvpqWqJ4mdjhR0Fub89Z7O1yvhHPE5+74jWjs5d2nfz79Nd+olyizNdcc4PJnI6JHPSJMwHwVkzKNhOqIecglTKH8UalqSuXW1hXsUpSpKFKUoCuWrby7CJbqP7jfyjxwwRScuBeHMkooCYAZVIueRNQ5mAQ89drqwhyjk/N5nRubm/wAwU4j5tzPVl3UszlHU+C6v7vK+WteB3fd8PtF29Wfl05Z1M1rOclN9u0zhGLiiNWhElnjN4MhIkMyKBSpkdnKmr3qFAcjj89EYRJF48eBISJzPSiUyZ3ZzJpd6ZRHIg/NUlSotyurKsohurCHKOT83mdG5ub/MFOI+bcz1Zd1c60Iks8ZvBkJEhmRQKVMjs5U1e9QoDkcfnqSpXdZLMWY5EajCJIvHjwJCROZ6USmTO7OZNLvTKI5EH5q4OrCHKOT83mdG5ub/ADBTiPm3M9WXdUzSmslmLMciNWhElnjN4MhIkMyKBSpkdnKmr3qFAcjj89EYRJF48eBISJzPSiUyZ3ZzJpd6ZRHIg/NUlSuW5XViyiqrYa2s4Zs27hBwqvHGzZvjrCZ42D9lNYfDIXuAQCoS1rLglrzvCXFJUjhKWSaqCRQSg5SGOZmEiwB/zAExzmEDZhmYw+MRrRaq9o/rBe/p5L+mMa3hTUjjP7ndzRnKjhXHs28mfKOGNlIs3kWEIgeMemE5o45CmZpH/bTRENBDd4BnRbDW1nDNm3cIOFV442bN8dYTPGwfsprD4ZC9wCAVaqVnr6XxMrVQyK51AtksvzxBjsPFE9t0dEdHGl/8xkH6b+fOuBHDGykWbyLCEQPGPTCc0cchTM0j/tpoiGghu8Azq1Upr6TxM7q4ZFVWw1tZwzZt3CDhVeONmzfHWEzxsH7Kaw+GQvcAgFc/UC2Sy/PEGOw8UT23R0R0caX/AMxkH6b+fOrHSmupPExq4ZFVRwxspFm8iwhEDxj0wnNHHIUzNI/7aaIhoIbvAM6LYa2s4Zs27hBwqvHGzZvjrCZ42D9lNYfDIXuAQCrVSmvpfEzmqhkVzqBbJZfniDHYeKJ7bo6I6ONL/wCYyD9N/PnXAjhjZSLN5FhCIHjHphOaOOQpmaR/200RDQQ3eAZ1aqU19J4md1cMiqrYa2s4Zs27hBwqvHGzZvjrCZ42D9lNYfDIXuAQCufqBbJZfniDHYeKJ7bo6I6ONL/5jIP038+dWOlNdSeJjVwyKqjhjZSLN5FhCIHjHphOaOOQpmaR/wBtNEQ0EN3gGdFsNbWcM2bdwg4VXjjZs3x1hM8bB+ymsPhkL3AIBVqpTX0viZzVQyK51AtksvzxBjsPFE9t0dEdHGl/8xkH6b+fOuBHDGykWbyLCEQPGPTCc0cchTM0j/tpoiGghu8Azq1Upr6TxM7q4ZFVWw1tZwzZt3CDhVeONmzfHWEzxsH7Kaw+GQvcAgFc/UC2Sy/PEGOw8UT23R0R0caX/wAxkH6b+fOrHSmupPExq4ZFVRwxspFm8iwhEDxj0wnNHHTKZmkf9tNEQ0EN3gGdFsNbWcM2bdwg4VXjjZs3x1hM8bB+ymsPhkL3AIBVqpTX0viZzVQyK51AtksvzxBjsPFE9t0dEdHGl/8AMZB+m/nzrgRwxspFm8iwhEDxj0wnNHHIUzNI/wC2miIaCG7wDOofGmVuOOh7da2zcryCcS10Rcau8aIN1VgbqrZKEKDhJRMNQBpzEgiACOQgOQhn10473wN3QLiEgEWNit7xdQEjLFfpLunoNGbwzkpmhkv0SQLIFAihFjKGEg5kIUcxa+k8TO6uGRrK2GtrOGbNu4QcKrxxs2b46wmeNg/ZTWHwyF7gEArn6gWyWX54gx2Hiie26OiOjjS/+YyD9N/PnXnWJ6ZzTEe3JpK0H9ptpRNkxmYxSBultOqJMlX6CJk36QJF4N1pWLml+lKGo2lUwkGpx70xoRziU9w1gC2cu6M/kIBiipeCJJkJRsiofU4jNkx0WZjJHKVcDqHz0Ds6Taga6k8TGrhkbOjhjZSLN5FhCIHjHphOaOOQpmaR/wBtNEQ0EN3gGdFsNbWcM2bdwg4VXjjZs3x1hM8bB+ymsPhkL3AIBXnZ100l8OsPrKWxFCyesr20mlzzRZO8UYoXLY+Yf8PBRsUHjswEOfh9KKZR0l3Q1FEdxwxnZeYuW90XlzPJeNSfsnMUVyi2ILRu4YorbJBRTIJiAY4iAqCc/bkJxDLJr6XxM5qoZHHeljW0hLQU23jiJPHEu1QdqJgBeML4X/PyD9KPZ4zZ+WpxHDGykWbyLCEQPGPTCc0cchTM0j/tpoiGghu8Azr7vn3v+nWn4qs9aypqRUcfuZMaOFp9hVVsNbWcM2bdwg4VXjjZs3x1hM8bB+ymsPhkL3AIBXP1AtksvzxBjsPFE9t0dEdHGl/8xkH6b+fOrHSstdSeJl6uGRVUcMbKRZvIsIRA8Y9MJzRxyFMzSP8AtpoiGghu8AzothrazhmzbuEHCq8cbNm+OsJnjYP2U1h8Mhe4BAKtVKa+l8TOaqGRXOoFsll+eIMdh4ontujojo40v/mMg/Tfz51wI4Y2UizeRYQiB4x6YTmjjkKZmkf9tNEQ0EN3gGdWqlNfSeJndXDIqq2GtrOGbNu4QcKrxxs2b46wmeNg/ZTWHwyF7gEArn6gWyWX54gx2Hiie26OiOjjS/8AmMg/Tfz51Y6U11J4mNXDIqqOGNlIs3kWEIgeMemE5o45CmZpH/bTRENBDd4BnRbDW1nDNm3cIOFV442bN8dYTPGwfsprD4ZC9wCAVaqU19L4mc1UMiudQLZLL88QY7DxRPbdHRHRxpf/ADGQfpv5864EcMbKRZvIsIRA8Y9MJzRxyFMzSP8AtpoiGghu8Azq1Upr6TxM7q4ZFVWw1tZwzZt3CDhVeONmzfHWEzxsH7Kaw+GQvcAgFc/UC2Sy/PEGOw8UT23R0R0caX/zGQfpv586sdKa6k8TGrhkVVHDGykWbyLCEQPGPTCc0cchTM0j/tpoiGghu8AzothrazhmzbuEHCq8cbNm+OsJnjYP2U1h8Mhe4BAKtVKa+l8TOaqGRXOoFsll+eIMdh4ontujojo40v8A5jIP038+dcCOGNlIs3kWEIgeMemE5o45CmZpH/bTRENBDd4BnVqpTX0niZ3VwyM1vWwreTZ2w223B1ms02SbvTqiZ2gmOrwE1h8MhewMgAQDsCrP1AtksvzxBjsPFE9t0dEdHGl/8xkH6b+fOuO+fe/6dafiqz1pOmpLEfue0iNHC0+zIimNuM45RwZo6fESXSBErcHJtluQAyAESe5TyDxaQDKuPqwhyjk/N5nRubm/zBTiPm3M9WXdUzSsdZK+s0sRyKy+jWCl6QYqEkhdN452dFyRwYEwTIo2A6agf2hOJyG7fHtd1WaugtzfnrPZ2uV8I54nP3fEa0dnLu07+ffprv0nJtKvLmxFVNilKVBQpSlAR1trPHFuxbiQjSxzpVkgddmQMitlBIAmSDuKOZfoqRqOttF43t2LbyEkWRdJMkCLvCDmVyoBAAyodxhzN9NSNVPE6iY4UKUpUlClKUApSlAKUpQCqvaP6wXv6eS/pjGrRVXtH9YL39PJf0xjWtHhnu5oid8d/JlopSlZFilKUApSlAKUpQClKUApSoS2L0tq8ua9W5LjOSSS0Q+/QqJ7LtLLcT8MoastQeEXMo59gjQE3SsytTpF4Y3vNEhLVC8JA53y8cD1Ox5wI4HCKhk1Si+M0BqBSnIYonFXTmHjrTaAUpUHG3rbMvdUzZUdJbs1b6TVaSbbKhdgjgpjIjrEoENqAhvciOWXblQE5SlKAUpSgKNi3a903PEQY2ehFLyEPcMdLijJPVGqKqSCupQu4miqYDaRHT4AgIgACIZ5hDPOj3bEhdhLjd3NcoxycspOp26VyiEWR8qgqiurpBEFjgoVZQTJmVFMDjrKUpsxHUqUBlMd0fIxrCPbblMSb5mopZFs0YM379vsxbVBcqyaKJUkCApkKZCbrjeW0Fy3O0RGRaYLMGF2LT7K+7ubRC7pzIGthB6ilFcY4KYFlx0JA5PqE5z7R1zIAc2sEwMACGi0oDISdHGNZw8NEweKN9wqkXFpwTh9GumSLqSjEziZJqsfhR0AmBjFKsgCK4AYf0uYiNWmxLZuWGue9JmfbxyLeZkW5owrV+q6UM1RapIlOuKiRNCphIYRIAqAAZeGYRHK60oCsXz73/TrT8VWeqxfPvf9OtPxVZ61n3cfUiOJilKVkWKUpQClKUApSlAKUpQClKUApSlAKUpQClKUBWL597/p1p+KrPVYvn3v+nWn4qs9az7uPqRHExSlKyLIlyizNdcc4PJnI6JHPSJMwHwVkzKNhOqIecglTKH8UalqiXKzMt1xzc8Yc7o8c9Ok8APBRTKo2A6Qj5ziZMwfwhqWq5XLdzZMb2KUpUFClKUBDWZyjqfBdX93lfLWvA7vu+H2i7erPy6cs6majrbWeOLdi3EhGljnSrJA67MgZFbKCQBMkHcUcy/RUjV0mN7yYYUKUpUFClKUApSlAKUpQCqvaP6wXv6eS/pjGrRVXtH9YL39PJf0xjWtHhnu5oid8d/JlopSlZFilKUApSlAK8RXHh/e8J02Ov1rWvK3AtNTrQjkZu03qXJmJY8yR3UfcDQ4tzNRHLXHuxDM4GEqQHMBx9u0oD+fOFOHmNVqPbmuItqPXl9x1p3GnNoJWXIQ6VwP1VdTUjyaM/ylFREupBRoiIpkMcmtATFA1XYYVXA8jLzhbTw2vYsBN3Bh5KHZmsJxbzQy5JUnMTNmZUEzFIkRMNaiutbQQDqKnKJVB/pdSgPJ8xhxYlr40vmF2YCy8ywb8j9jVW17eV2IRNIw8Qig6b6EYsCrZqqa1UCqkNl+ky01X4vCObjcR2eITbD6UTnxxveKGleVqcQnBLNjlUEFdOorM45CI57YmyHx5V7QpQHjvoxKTNprhbdyXhjbFuz3POGC2FsOlQgTEWfODJGNIDDiYEzFOVQD8aAZiHhafBqm2V0cGb9HC8bpwZcLnewN3Nrm4+GVNv8A6UVGKL0Dl8IAOOpAinYAgApgAgA172pQH854y32ruLsOAxuwrum65UmAzZurHLQTmRftpXfKRLcbgArJLgfsBYxQBIQETHT8Y28cNcbUou6ULot2ekVjRmH5LmBBJRQ0yzakNzVuicoZOjacwUTJqE4aiZGE4APtvkcLznrHydlzbhuD4/hycRw+rVtbmWrRq8LTnln25Z13qA8M3HbjnDnD28McbFsV/btn4f3czu2zrfUi1IlQrIrcEJUqLBYhDtiL7q5ipHInqOAm0F1gY1YxBwOxDYwGHadwQR5aNkLXln0jpsd7dXC3XILkcHWI2bOkBbOcjmKi9VHbR2zFE6evM3vS5rMs+9EWbe8bThp1KPdJvmZJNgk6K3ckHMiyYKFECKF8hwyEPINTNAeCbxwkxed4zx5roPKv5IprU6tXAlYDmUkGibYqfHaJRORTaxQCoVYXJFTnFYihgJv5gQfe1KUApSlAKUpQClKhbxvW0sPLdc3dfNxMIKEZnRTcyD9cqLdAVVSJJ6zm8EoCooQuYiABq7RAKA6V8+9/060/FVnqpXY+ZSbO2JGOdoOmjqZZLILoKAomqmYDCUxTB2GAQEBAQ7Bq21rPu4+pEcTFKUrIsUpSgFKUoBSlKAUpSgFKUoBSlKAUpSgFKUoCsXz73/TrT8VWeqxfPvf9OtPxVZ61n3cfUiOJilKVkWdBbm/PWeztcr4RzxOfu+I1o7OXdp38+/TXfqJcoszXXHODyZyOiRz0iTMB8FZMyjYTqiHnIJUyh/FGpaqlcutrJV7FKUqShSlKAjrbReN7di28hJFkXSTJAi7wg5lcqAQAMqHcYczfTUjUNZnKOp8F1f3eV8ta8Du+74faLt6s/LpyzqZq6TG95MMKFKUqChSlKAUpSgFKUoBWPqYe3bc973rJQmOl8Wi3CYbpDHwzOEVbiYIxlmpm9j3CuocwAQ3NPghkUO3PYKq9o/rBe/p5L+mMa1o8M93NETvjv5MqXsN4i/GxxV+rbV9TU9hvEX42OKv1bavqatVpWRZlXsN4i/GxxV+rbV9TU9hvEX42OKv1bavqatVpQGVew3iL8bHFX6ttX1NT2G8RfjY4q/Vtq+pq1WlAZV7DeIvxscVfq21fU1PYbxF+Njir9W2r6mrVaUBlXsN4i/GxxV+rbV9TU9hvEX42OKv1bavqatVpQGVew3iL8bHFX6ttX1NT2G8RfjY4q/Vtq+pq1WlAZV7DeIvxscVfq21fU1PYbxF+Njir9W2r6mrVaUBlXsN4i/GxxV+rbV9TU9hvEX42OKv1bavqatVpQGVew3iL8bHFX6ttX1NT2G8RfjY4q/Vtq+pq0K5bkgbOt6Suy6JVvGQ8O1Vevnjg2lNBBMomOcw+YAARqjMukfg+/tN9eaNxv02Mc+RjHDVxBSCEkDtUCmRQLHqIFdnUUKcpiFKkInAcy5h20B1vYbxF+Njir9W2r6mp7DeIvxscVfq21fU1c63SUwYShIWfJdTpy3uHjSxyDSGfuHiyrPPikBapomXIulpMB0TkBQBKYBLmUQDoXp0o8JbUtJnc7KcPMqTMA5uKHbMmTtXiWaKeoVVjpon4NLUJSCquBClMOQ9oCFAdj2G8RfjY4q/Vtq+pqew3iL8bHFX6ttX1NVaYdIHEy8btj7Sw2wqth8svZ8ZdrpWcu9xHFRK8McpUEwRjnIqCUUxzMOjPMOyrHdfSYwow3dOITEy4yw81EtWDqbQZx7+QaxZHYnKkqq5TbAUjcTpnLvqgmQMg16BMAUB9ew3iL8bHFX6ttX1NT2G8RfjY4q/Vtq+pq5B6TWChIV3POLucNm7CZbW+4Scwz9F0m/cZC3SFsdEFh3QMUUzgTQfMNJhzCoWS6VFkGdWMNqNHcuxu253tsPjuWzqOdw67Zi5dK7rJdAF9YcNp2jEIIgoUwCIZAYCW9hvEX42OKv1bavqasz6S2B2LspgNe0Jb+NGKN/ScvFnjGluqsrVSSequDFRLuH5UkJEyCpuHMVRMxSpmEpymABDXfbCYNBFxc2pfTRKPmIBzdDV0sismlytACbzlQxiACJS7hQyU0mEREAARAQDgadI7CB5ar28CXFIItI52gwcNHMDIN5MHK4AKCRY9RArs51QMAplKkInDtLmACNAeTuhn0LMaujC0hJPEvGp27bvpVuAWXHKmWi2qpxEwrGUV8a3kHaITtDtOoXIK9+V56xw6S1iW9hNa2LFuScXIxz+7GcW3VlXasS1budxRNQr5RRE6rMEjEOVUDoidMSiBiAIDlcz48Rto2REXJjNAO7SmJQ7hMsLGFWuNVUEdRjLt+XpKKLNxSKCu4KRBKQ5dwqY9laSasRW8iK+5s1KlZtN9IvBy33EQlIXcY6E2k0Xav2ca7dsE03R9DY7h4ikdu1BU3YQVlCau3LPKuT2weEvMbljOsrnVZ6i6M645Q94RgsiCYmRUc7OzuiCyYkSA4nU1eAU2Q5Zlmi0rBrm6YWHUStaakEylZZrO3Qta8omeKkGknEOE45Z6AGjFG3FqqHKmmBEgTKY4LFMTV2ANuf8ASOwfj7Mhr9Pcj1zFXBvDHEYwb949W2QMK3/YkUDOSbWg25qSDbyyPpoDS6ViWLHS1wtw3tl/KxEiF0SiFvkuVqxj03CiCrJQwlQUWeJIqItSqmAwJiqJdYlECgYa2Zi54xk3eaNG+kRTTnnlqAByz+mgOelKUApSlAKUpQClKUApSlAKUpQFYvn3v+nWn4qs9Vi+fe/6dafiqz1rPu4+pEcTFKUrIsiXKzMt1xzc8Yc7o8c9Ok8APBRTKo2A6Qj5ziZMwfwhqWroLc356z2drlfCOeJz93xGtHZy7tO/n36a79VK5dbWSr2KUpUlClKUBHW2s8cW7FuJCNLHOlWSB12ZAyK2UEgCZIO4o5l+ipGo620Xje3YtvISRZF0kyQIu8IOZXKgEADKh3GHM301I1U8TqJjhQpSlSUKUpQClKUApSlAKq9o/rBe/p5L+mMatFZFdGNWFWBxb5urFe+Yu248J0m2LtX9K4EsWxESoolzUWMAdulMphy7cq1o8M93NETvjv5M12lZl0e8eILpHWGriZaVuzMZby0m5YxLiUTTTPJoI6SGdJkIY2lMVd1MAMIGzSERAM8q02sixSlKAUpSgFKUoBSlKAUpSgFKUoBSlKArOJlqqXzh7cVnJs4d2aajXDHh5hBRZktuEEokXIkchxIOeQiUwGDPMO0Mq8rQ3QwxMa2ArbylwFj20Lc0bPWpaKN/zLljFoNm4oqtEZjYSftU1AMYxQIQ+0JQy16jV7PpQHnGxOjXc1syWHUu5Lb7VS3HtxScw3QlpORHiJFMSk2nL8yq7k5ezcVUMlrHUYqZNWgKrEdFjGKzrVjo+2ZWz3sg9sF7Y00R89cpIN9xwssg7bnI3MZbIVjFMkcqWfjA/ZkPrilAeSZjorXSe8oS45fBzB3E9pH2NE2wLW75BRIGbtqZQVVkNUW7ASHA4Bn4BvB7Qqfvno43/eTbExRqW1YZS+LUgIVixQernbsV2SihlSCcG5P0IAcpSGKQBHLtISvS9KA8m4xYM4lR09J3XbjRpKK3HiNZ0oySbouHAtkGSRUl1HRSEDbTASiOsBMBSiBh/ZHvxXRnxFNf8Hivcb+3G8opiQ4vmfjWLtw5QbNuRqRiLdqqZuQ7hTIETmE6aQDmfIOwAH1HSgPEuHnRlm8SbRxrjnbiVgomf4i27CWlIt3HrtIwHJ3us7ZUElyEF2sYniIJkkCCXyGGeddD+8Zm01ZB8kwjbsQuKMm0WzfEa5nvGJs0TpbK004PxaAmBZUSGboE2vBLkr2jXrylAeWbmwIuSIwDh8NVLOsKeczV2C9nYGYl5d3HvCOVVDHTCSdmcO94AEoi5MkOo5RMVFLUAFqbDoRXrbFlWSjbz9q4k7SPOoN7fC/J2JYMmEioU6bVKUZl4xUjcU0wyOkUFSmOAgn2V6rvn3v+nWn4qs9aSX2Re8iOJni+/ehniXLso+1oAtiycHGsbfSiDTUrKCW21WCoHchHNFSuQKZcCgHEGX3gKOkwqFyCtPkujrdUtY2KVtnnY1o/u+8huyEXTOqdNEyZmyqCbkNJR7VG2RwLqACmzDMeyvQNKzLMGnMM8bcSLrw0u+/krFixsm8VZxWNiXrt2BGQxjlsUpXKqCfELCsuU/aigUhAyzOIZmziS6HuICUFa0jHyEbIXBbb65s2KV4zFvtHDWVdmXIYXseQHAHTyS1J6BIcBOXUGQGr2BSgPIVx9EjE6Ktm6LJw0eWZya9LJjLbeEfvH6HK3TEpylO3A5XSi6KhFNOSqwHTEoG1K56Q9axzc7SPatFBKJ0USJmEviEQKADl/wD4rsUoBSlKAUpSgFKUoBSlKAUpSgFKUoCsXz73/TrT8VWeqxfPvf8ATrT8VWetZ93H1IjiYpSlZFkS5RZmuuOcHkzkdEj3pEmYD4KyZlGwnVEPOQSplD+KNS1RLlZmW645ueMOd0eOenSeAHgoplUbAdIR85xMmYP4Q1LVcrlu5smN7FKUqChSlKAhrM5R1Pgur+7yvlrXgd33fD7RdvVn5dOWdTNR1trPHFuxbiQjSxzpVkgddmQMitlBIAmSDuKOZfoqRq6TG95MMKFKod/yU+ncsHCw9xO4lF0xfulztUW5zqGSUalIH6ZNQADJY/iAB8Xb2VFbV4fvMn//AEsb/ta9NHoUqSCmpJV792RhPSYwk41Ps3fJqNKy7avD95k//wCljf8Aa1HJz0gq+5YljS/O8Fc7bhyhFCrvEICh09PDZ6ikMUwlyzAogI9g1f0EvEvf4J+rj4X7fJsVKy7avD95k/8A+ljf9rTavD95k/8A+ljf9rT/AI+fiXv8D6yPhft8mo0rLtq8P3mT/wD6WN/2tfhi3cQonPidPFKUMxEWsaAAHn/7rT/j5+Je/wAD6yPhft8mpV5xxf6IuCHSkdXiyxStpRSRZTBEY+aYLbD9kU0YyHIh8hKcuYiOhQpyZiI6c+2tfsVGfmLCjpKWuyUUkJqObPDrig1IZoookUxipFBEC5AIjkChTj310LXhZJWUupsS7pZFRrPoiq4Ik0FR0HLGPYoBkRIAf5CkGsY0ahbi2uzfmvI0c7VmSXVTMa6PXQDwawjsNax8QsP8OcQ1Gcm4VipqSstlx4sFNJyIulFCnMqoRQywAfVkJNsAAoBpDTvandFj4tOFX2Njvya0blzzm/Mufv8Ah9vRy/Qhw+f7ee3u5/8AUy7q4EYWSSZvGx7ulllHRhFJwdJoCjUPMmBUQIIf5ynGsLKz/fwa1vIoHtTuix8WnCr7Gx35NPandFj4tOFX2Njvyav60LJKs2bYl3SyKjUwCq4Ik0FR0HmUAyIkAP8AIUg1z8uec35lz9/w+3o5foQ4fP8Abz293P8A6mXdSys/38Ct5Gc+1O6LHxacKvsbHfk09qd0WPi04VfY2O/Jq/owskkzeNj3dLLKOjCKTg6TQFGoeZMCogQQ/wA5TjRaFklWbNsS7pZFRqYBVcESaCo6DzKAZESAH+QpBrtlZr3+BaeRQPandFj4tOFX2Njvyae1O6LHxacKvsbHfk1o3LnnN+Zc/f8AD7ejl+hDh8/289vdz/6mXdXAjCySTN42Pd0sso6MIpODpNAUah5kwKiBBD/OU41yys/38Ct5FA9qd0WPi04VfY2O/Jp7U7osfFpwq+xsd+TV/WhZJVmzbEu6WRUamAVXBEmgqOg8ygGREgB/kKQa5+XPOb8y5+/4fb0cv0IcPn+3nt7uf/Uy7qWVn+/gVvIzn2p3RY+LThV9jY78mntTuix8WnCr7Gx35NX9GFkkmbxse7pZZR0YRScHSaAo1DzJgVECCH+cpxotCySrNm2Jd0sio1MAquCJNBUdB5lAMiJAD/IUg12ys17/AALTyKB7U7osfFpwq+xsd+TT2p3RY+LThV9jY78mtG5c85vzLn7/AIfb0cv0IcPn+3nt7uf/AFMu6uBGFkkmbxse7pZZR0YRScHSaAo1DzJgVECCH+cpxrllZ/v4FbyKB7U7osfFpwq+xsd+TT2p3RY+LThV9jY78mr+tCySrNm2Jd0sio1MAquCJNBUdB5lAMiJAD/IUg1z8uec35lz9/w+3o5foQ4fP9vPb3c/+pl3UsrP9/AreRnPtTuix8WnCr7Gx35NPandFj4tOFX2Njvyav6MLJJM3jY93Syyjowik4Ok0BRqHmTAqIEEP85TjRaFklWbNsS7pZFRqYBVcESaCo6DzKAZESAH+QpBrtlZr3+BaeRQPandFj4tOFX2Njvyae1O6LHxacKvsbHfk1o3LnnN+Zc/f8Pt6OX6EOHz/bz293P/AKmXdXAjCySTN42Pd0sso6MIpODpNAUah5kwKiBBD/OU41yys/38Ct5FA9qd0WPi04VfY2O/Jp7U7osfFpwq+xsd+TV2l24xkIm9k79fRjaJIZy+kVuCTBRIgZmMuY6O2QgAAiIlAmQeUKi4a+7DuK6mCFv4vxMm4lIoJVjCM5JgsV0xEQAHqRSFFc6QiIfpCnFPMQpZWf7+BW8iu+1O6LHxacKvsbHfk09qd0WPi04VfY2O/Jq/owskkzeNj3dLLKOjCKTg6TQFGoeZMCogQQ/zlONFoWSVZs2xLulkVGpgFVwRJoKjoPMoBkRIAf5CkGu2Vmvf4Fp5FA9qd0WPi04VfY2O/Jp7U7osfFpwq+xsd+TV6lHDOEkUpqavQ7BiuYjRJk6UapNTrn7CAUxiAqKhh8RQU7R8QV07YdR90W6rLWxiYrPsJMxjM5VksxcJpABhKIInSS2jgAgIeGBxzAQEa5ZWf7+BW8jL7y6LHRia8j4bo5YXo70y2SU27Qjy6yDqzKOSPaA+arF7U7osfFpwq+xsd+TU7fEW+BnazYbkkRUQm2oHcCm33Fx8LtOG1oAf8pShVp5c85vzLn7/AIfb0cv0IcPn+3nt7uf/AFMu6tZxViPbmRFu0+zIzn2p3RY+LThV9jY78mntTuix8WnCr7Gx35NX9GFkkmbxse7pZZR0YRScHSaAo1DzJgVECCH+cpxotCySrNm2Jd0sio1MAquCJNBUdB5lAMiJAD/IUg1nZWa9/gu08ige1O6LHxacKvsbHfk09qd0WPi04VfY2O/JrRuXPOb8y5+/4fb0cv0IcPn+3nt7uf8A1Mu6uBGFkkmbxse7pZZR0YRScHSaAo1DzJgVECCH+cpxrllZ/v4FbyKB7U7osfFpwq+xsd+TT2p3RY+LThV9jY78mr+tCySrNm2Jd0sio1MAquCJNBUdB5lAMiJAD/IUg1z8uec35lz9/wAPt6OX6EOHz/bz293P/qZd1LKz/fwK3kZz7U7osfFpwq+xsd+TT2p3RY+LThV9jY78mr+jCySTN42Pd0sso6MIpODpNAUah5kwKiBBD/OU40WhZJVmzbEu6WRUamAVXBEmgqOg8ygGREgB/kKQa7ZWa9/gWnkUD2p3RY+LThV9jY78mntTuix8WnCr7Gx35NaNy55zfmXP3/D7ejl+hDh8/wBvPb3c/wDqZd1cCMLJJM3jY93Syyjowik4Ok0BRqHmTAqIEEP85TjXLKz/AH8Ct5FA9qd0WPi04VfY2O/Jp7U7osfFpwq+xsd+TV/WhZJVmzbEu6WRUamAVXBEmgqOg8ygGREgB/kKQa5+XPOb8y5+/wCH29HL9CHD5/t57e7n/wBTLupZWf7+BW8jOfandFj4tOFX2Njvyae1O6LHxacKvsbHfk1f0YWSSZvGx7ulllHRhFJwdJoCjUPMmBUQIIf5ynGi0LJKs2bYl3SyKjUwCq4Ik0FR0HmUAyIkAP8AIUg12ys17/AtPIoHtTuix8WnCr7Gx35NPandFj4tOFX2Njvya0blzzm/Mufv+H29HL9CHD5/t57e7n/1Mu6uBGFkkmbxse7pZZR0YRScHSaAo1DzJgVECCH+cpxrllZ/v4FbyKB7U7osfFpwq+xsd+TT2p3RY+LThV9jY78mr+tCySrNm2Jd0sio1MAquCJNBUdB5lAMiJAD/IUg1z8uec35lz9/w+3o5foQ4fP9vPb3c/8AqZd1LKz/AH8Ct5GTSnR36P8AZkxa9xWfgZh9BSrWeaGQfRtsMmrhIfC7SqJpAYv0DW0VQ7xhpFFpFt1LrlV1HU82FJdRNqCjTPXkCYFRAo5eTcKfvzqzLQskqzZtiXdLIqNTAKrgiTQVHQeZQDIiQA/yFINayirEe1bc/giMnafYS1K6HLnnN+Zc/f8AD7ejl+hDh8/289vdz/6mXdXDAiZM0izUuFaWVavBIcVk0iHbCZJNQER2yFKORTlMA5Z5HDMRyzrKz2Vpl19tVRzLc356z2drlfCOeJz93xGtHZy7tO/n36a79RLlFma645weTOR0SOekSZgPgrJmUbCdUQ85BKmUP4o1LUlcutrCvYpSlSUKUpQEdbaLxvbsW3kJIsi6SZIEXeEHMrlQCABlQ7jDmb6akahrM5R1Pgur+7yvlrXgd33fD7RdvVn5dOWdTNXSY3vJhhRn19fr7bnoiW/95hXzX1fX6+256Ilv/eYV819jR+4huf7Z82m72XWxHlrpbX48hZ00HFTTmPlGdurS0cVS+nkBvLlMfwmbVmgc8qsQE9SiCxgSKTRmAAc5g+YpCDdY2W9cE9NOWqxr3kkGoll12iDhwpCNTkTFIihU1jGEg5FMUwiAGAAyzCvU9K66Ot1tnLdSqqFKV+GMUhROcwFKUMxERyAA89aEAxikKJzmApShmIiOQAHnqMg4NXEpUrx4U6dpJmzIQcwNMGAfGPmbB/8Au/5PdoODVxKVK8eFOnaSZsyEHMDTBgHxj5mwf/u/5Pd6qQhEyFTTIBSlAAKUAyAADyBXl0nSdT9kMX6/v633eigoNZ90rv3/AD97rxCETIVNMgFKUAApQDIAAPIFVm0f1gvf08l/TGNWiqvaP6wXv6eS/pjGvnUeGe7mj2yvjv5MtFKUrIsUpSgFKUoBSlKAUpSgFKUoBSlKAUpSgFKUoBSlKAoOP/8A4G4gf/bUl/8AHPWBX60Sta6b/uVC6bmhmL5jZqdwv28++ISPilVlSPF0g3BIzAEieEskCYpFFRQDkHUavVVwwETdUDI2zPNRcxsq1VZu0QUOnuIqFEpy6iCBi5gIhmUQEPIIV9QMKxtuFYwEYd2ZpHIEbIC8erO1xIQMg1rLmOqobIO0xzGMPlEaA8u2diswtaXgZZ/ic+VwyG4JuKt+elZhVw3kkDNGxmxDPVTm4z/tHFpoKKHMZTRkUxxyEawD+575w1NdTvEO+2DiEwlaXOyBrPvmCnMtx2Yi7ghFCiqYATApklgMQ3iOU2kuXtilAeO7snYuYxOTZ3hf8p11b3xbikTbYy6pUBhM2wg6LHlEEjJisotqdaBMCgAlu5ACdehMEf1Pf/8A3NcH9Uc1fjkBQhkzCYAMAgOkwlHt8wh2h84VEWjaEFY0ElbltoOUmSKqywcS9XdrHUVUMooc6y5zqHMY5zGETGEe2gOjfPvf9OtPxVZ6rF8+9/060/FVnrWfdx9SI4mKUpWRYpSlAKUpQClKUApSlAKUpQClKUApSlAKUpQFYvn3v+nWn4qs9Vi+fe/6dafiqz1rPu4+pEcTFRMKszVkp8jaMO1URkSEcKiGQOlOEbmBUPOAEMRP50xqWroR3N+MlOZbXD8WXl+jx8PsJZ6u/e3voyqI3PrajrvRwOVmZbrjm54w53R456dJ4AeCimVRsB0hHznEyZg/hDUtXQW5vz1ns7XK+Ec8Tn7viNaOzl3ad/Pv0136SuXW1hXsUpSpKFKUoCOttZ44t2LcSEaWOdKskDrsyBkVsoJAEyQdxRzL9FSNR1tovG9uxbeQkiyLpJkgRd4QcyuVAIAGVDuMOZvpqRqp4nUTHCin3lastPT8RIw09Hxy7Jm9QErtoZzuEVO3ERKQqqYhkKQZm1DlqAMu3MI7qLfvw0gPs8t/vKtDrlHXCM3t3mnLX3DZe44fda72ffq2Mv5qma9MdKpaKEYxfZuWb8jF0FHSScmu3e8jPuot+/DSA+zy3+8p1Fv34aQH2eW/3laDSn11PmuC+B9LRZe7+TPuot+/DSA+zy3+8oGGUtKqJoXfczN/GFOB1WTKNO1Bzl4iKmMuoJk88hEoZasshEQEQHQaUem072+y+B9LRZe7PkhCJkKmmQClKAAUoBkAAHkCvqlK8h6BVXtH9YL39PJf0xjVoqr2j+sF7+nkv6YxrWjwz3c0RO+O/ky0UpSsixSlKAUpSgFKUoBSlKAUpSgFKUoBSlKAUpSgFKV5N6TGNWNlt4nyVoYbITTFrbdpJXMm5aqQCLF64O5OmKcitLrJCmzKCRSmFqJVQFbPWGRQoD1lSvGEzitj1ITctKMsV3MKgyxVjLOSiUYiOXbkYPWjYVQOoZIyh1UzqKGSOVQC5j4YLFyLXYicWsXpeWsjDp/jK4i1JC/rqtF5OljI0H79uxQOdqIFUQFsVxqAO0iIFMBR/R9tAex6V4Gte9cVsUMQrHlWlyab1aWFiNERc8DJDJ+qylmTds9FHRsfpgRIcQKXb8MdIAGWUxI9K3Fq7rAlcSrGdvEod3LWvZjVJkzYGXaSLkSDJromeCREVynXI1IVwfZIqXwijkJRA9w0rxNI46dIgzC17EMndqT+TnbgZqS0StaS86ZuwRIoik43HBolJcBUNvFLkbSiOkhBERCqXZdWL0riXhH0gmqrNxc1rYXKz9wRsQ4buGs1HGfIkfJoqN1FkjZpCK6W2qYonIQNeXbQHt2+fe/6dafiqz1/Ms+Ot2RnRlspbCW6ncO8bM5y+irLosUGQtiSTjaM4WdJrnHtMIAgigAmE3hrpBp1bBeeNuOLmPvG7YPEk0MS2SWY6axqEOyWbLDJESB0msKqZlRTEVRMUCKEOUQ93l2VpJ/ZFbyI4me1KV4qncd8crbVufDVpN3Dc7xlio0s1tPMGMMlMJMF4pF9kUHAIxwrbhxRIZQgF0mDMDnyEfQ3Rvuu+LxwrZymIZiKTKD58xOvxUeuq4SQcHTTUXGPVValXEhS7pEjAUqgHACly0hmWafSlKAUpSgFKUoBSlKAUpSgFKUoBSlKAUpSgKxfPvf9OtPxVZ6rF8+9/wBOtPxVZ61n3cfUiOJiomFRZpSU+dtJndKLSJDuEhHMGqnCNygkHmASFIp86g1LVEwqzNWSnyNow7VRGRIRwqIZA6U4RuYFQ84AQxE/nTGpjc93NHZXoOUWZrrjnB5M5HRI56RJmA+CsmZRsJ1RDzkEqZQ/ijUtUS5WZluuObnjDndHjnp0ngB4KKZVGwHSEfOcTJmD+ENS1JXLdzYjexSlKgoUpSgIazOUdT4Lq/u8r5a14Hd93w+0Xb1Z+XTlnUzUdbazxxbsW4kI0sc6VZIHXZkDIrZQSAJkg7ijmX6KkaukxveTDCiOXWeFuJk3JGlO1OydHVeCHhIqFOgBEg7jgZQw/wAIKkajl0XhriZOCSRSNSMnRFWYj4SyhjoCRUO4gFUKP8UKka5K5dbWFexSlKkoUpSgFKUoBVXtH9YL39PJf0xjVorOrUeX0GKF5sk7cgjWqMokc8mM0sEgVzyxl+jBlwopin4v0nEgPaPgdnbrR4Z7uaInfHfyZotKp7KUxeUhpteRsez0JZBQQhWqF1OlW70nkM5XGOKZsPcRJcA840eymLycNCLx1j2evLLqAE01Xup0k3ZE8pmy4RxjOR7jpIAPnCsiy4Uqv8bf3XLgerNv9U+H1c054tzHfy9xwXCbWjP+3xOfyfJUeylMXlIabXkbHs9CWQUEIVqhdTpVu9J5DOVxjimbD3ESXAPONAXClU97KYvJw0IvHWPZ68suoATTVe6nSTdkTymbLhHGM5HuOkgA+cKkONv7rlwPVm3+qfD6uac8W5jv5e44LhNrRn/b4nP5PkoCwUqnspTF5SGm15Gx7PQlkFBCFaoXU6VbvSeQzlcY4pmw9xElwDzjR7KYvJw0IvHWPZ68suoATTVe6nSTdkTymbLhHGM5HuOkgA+cKAuFKr/G391y4Hqzb/VPh9XNOeLcx38vccFwm1oz/t8Tn8nyVHspTF5SGm15Gx7PQlkFBCFaoXU6VbvSeQzlcY4pmw9xElwDzjQFwpVPeymLycNCLx1j2evLLqAE01Xup0k3ZE8pmy4RxjOR7jpIAPnCpDjb+65cD1Zt/qnw+rmnPFuY7+XuOC4Ta0Z/2+Jz+T5KAsFKp7KUxeUhpteRsez0JZBQQhWqF1OlW70nkM5XGOKZsPcRJcA840eymLycNCLx1j2evLLqAE01Xup0k3ZE8pmy4RxjOR7jpIAPnCgLhSq/xt/dcuB6s2/1T4fVzTni3Md/L3HBcJtaM/7fE5/J8lR7KUxeUhpteRsez0JZBQQhWqF1OlW70nkM5XGOKZsPcRJcA840BcKVT3spi8nDQi8dY9nryy6gBNNV7qdJN2RPKZsuEcYzke46SAD5wqQ42/uuXA9Wbf6p8Pq5pzxbmO/l7jguE2tGf9vic/k+SgLBVfufDywL2eRchedjW/PuoNwDuLXlIxB0oxXAQEFUDKFEUj5lKOouQ5lDzVHspTF5SGm15Gx7PQlkFBCFaoXU6VbvSeQzlcY4pmw9xElwDzjR7KYvJw0IvHWPZ68suoATTVe6nSTdkTymbLhHGM5HuOkgA+cKAlFLFslVRZVWzoM53EinMLGNHoiKj9MAAjow6e1YoFKAKD4QAUMh7Kqt3YAYW3rKQz+btdgZrEO5B8rFlZNhYySz1EUnBniJkxBYTAOYiOQibtMI+KrNxt/dcuB6s2/1T4fVzTni3Md/L3HBcJtaM/7fE5/J8lR7KUxeUhpteRsez0JZBQQhWqF1OlW70nkM5XGOKZsPcRJcA840B3FsPbVTbNQgYePgH8XGKxERJRsc1K5iWqmjUm1FRI5EyZppjt6BTEUyZlHIAqGsfBHD+yMNVMKgiU52DeHdLShJpug45os5VMq4VcpgmVE4qHOYRKVMpO3ICgAAFd17KYvJw0IvHWPZ68suoATTVe6nSTdkTymbLhHGM5HuOkgA+cKkONv7rlwPVm3+qfD6uac8W5jv5e44LhNrRn/b4nP5PkoDov8ACHCaUs5rh3J4X2k8tRiYpmsEvCNlI9ASiIlEjYxBTKICIiGRQyzGptO2bbRkUJdG340j9sy5ci6K0TBZJpmA7BT5aipZlAdADpzAOzsqCZSmLykNNryNj2ehLIKCEK1Qup0q3ek8hnK4xxTNh7iJLgHnGj2UxeThoReOsez15ZdQAmmq91Okm7InlM2XCOMZyPcdJAB84UBV8Q8GcH3zGz4t7hTZzhnEzaRWDdWCanSaFVMYyoJEEmSYHN2m0gGoe0c6uw4c4ei0csBsO3RbPStSOUeVobaxW2XDgcunIwJaS6M/cZBpyyqt3u9vzrjAMTW3ABanNGhiyYTawyAuPC/Riy4TbAnj8Pic/kVLMpTF5SGm15Gx7PQlkFBCFaoXU6VbvSeQzlcY4pmw9xElwDzjWssEfUiOJndk8N8O5phNxUxYVuP2VyrFczTZzFoKpSaxSkIVRyQxRBYwFTTKBjgIgBCh4gCpaFhIW2ohnb9uRDKKi49ErZmyZNyIN26RQyKmmmQAKQoB2AAAABVceymLycNCLx1j2evLLqAE01Xup0k3ZE8pmy4RxjOR7jpIAPnCpDjb+65cD1Zt/qnw+rmnPFuY7+XuOC4Ta0Z/2+Jz+T5KyLLBSqeylMXlIabXkbHs9CWQUEIVqhdTpVu9J5DOVxjimbD3ESXAPONHspi8nDQi8dY9nryy6gBNNV7qdJN2RPKZsuEcYzke46SAD5woC4Uqv8bf3XLgerVv9U+H1c054tzHfy9xwXCbWjP+3xOfyfJUeylMXlIabXkbHs9CWQUEIVqhdTpVu9J5DOVxjimbD3ESXAPONAXClU97KYvJw0IvHWPZ68suoATTVe6nSTdkTymbLhHGM5HuOkgA+cKkONv7rlwPVm3+qfD6uac8W5jv5e44LhNrRn/b4nP5PkoCwUqnspTF5SGm15Gx7PQlkFBCFaoXU6VbvSeQzlcY4pmw9xElwDzjR7KYvJw0IvHWPZ68suoATTVe6nSTdkTymbLhHGM5HuOkgA+cKAuFKr/G391y4Hqzb/VPh9XNOeLcx38vccFwm1oz/t8Tn8nyVHspTF5SGm15Gx7PQlkFBCFaoXU6VbvSeQzlcY4pmw9xElwDzjQFwpVPeymLycNCLx1j2evLLqAE01Xup0k3ZE8pmy4RxjOR7jpIAPnCpDjb+65cD1Zt/qnw+rmnPFuY7+XuOC4Ta0Z/2+Jz+T5KAsFKp7KUxeUhpteRsez0JZBQQhWqF1OlW70nkM5XGOKZsPcRJcA840eymLycNCLx1j2evLLqAE01Xup0k3ZE8pmy4RxjOR7jpIAPnCgLhSq/xt/dcuB6s2/1T4fVzTni3Md/L3HBcJtaM/7fE5/J8lYZ0trhvth0TsWZq+m8LZziLYg4gn8FeTwFRXTWTM0UFcGSJ0FhXBECokA5VDCCYqkKYTgBtl8+9/060/FVnr+fnQlxN6c1+xFve2LslMLOLItTRtwTCfAzDg/boLsAGayent3TkII56txTPKv6B1rPu4+pEcTFdCO5vxkpzLa4fiy8v0ePh9hLPV37299GVd+omFRZpSU+dtJndKLSJDuEhHMGqnCNygkHmASFIp86g1Ebn1tR13o51ub89Z7O1yvhHPE5+74jWjs5d2nfz79Nd+olyizNdcc4PJnI6JHPSJMwHwVkzKNhOqIecglTKH8UalqSuXW1hXsUpSpKFKUoCOttF43t2LbyEkWRdJMkCLvCDmVyoBAAyodxhzN9NSNQ1mco6nwXV/d5Xy1rwO77vh9ou3qz8unLOpmrpMb3kwwohnXKOuEZvbvNOWvuGy9xw+613s+/VsZfzVM1HLrPC3EybkjSnanZOjqvBDwkVCnQAiQdxwMoYf4QVI0lct3NiN7FKUqChSlKAUpSgFVe0f1gvf08l/TGNWiqvaP6wXv6eS/pjGtaPDPdzRE747+TLRSlKyLFKUoBSlKAUrxL0iMNMR7l6Rz6RUYvTtnjGDTs2WaWI7nXEWsk4OZ3wr5N63bxCmrSdVRfSCyYlKAn0bYcTzAc83dLadncLHj56vja9F08XilTHPALNzFV1GEvYxVECgcM9k4j4WrOgPb9Qal62yleiOHqkllcDiNPLps9lTwmhFASMpr06AyOYoaRNq7c8su2vCkJakdbaeE9pYsYYTUjbjC68RECW8rBLvdESDhcWhSR+kVF2wJbW2mmmcNIkEpRKGYSFv4XY9N7dTZW/blxRcqOFk4wgzKAdBVimrLgqyYCuI5IOQaaSlIY+omQZ+5HID3vSvEZ8JG83B4hSGD+HcjYtqM7bjJRiyfQa0EVe7I9YzjiSNl00zibbTSSUcgQCq5h4SmnMKpLWhfWJGFtl41PrYB7DYh3g8u26Ip9aDu50iMlWh0YkHUS0WTWdkSIRHwSCcE1FCKCUQJqKB/QeqDiXjphfhCqgjf9wOWArNzPDi3inj0rVqU5SGcuTNklAbIAYwAKywkTAc/C7By8U4i4N4sL27ZkVcrScmokljqx8GdfDd5MyUXLndmMmKCDeTAsS7KiZAEnbhyJEypaTKJiBgrSelXZ15NrjtC+sOZbFKFxZtm39mLmYa115mFuDMQBSMkEm5lStxOoIG3HAkSLqEwHOKeZAPZCSqS6RF0FCqJqFA5DkEBKYohmAgIeMK+68LXhhvjFP9IoJ27o87eYdS1uvrdk46wncsvGtEkSC9bozRXqLWNQFQroqyagCZUivglVExS1X7es2+H2Mb67hw1uyInJiAvNhc6bKznDONMqYpuBId+qmZeTVU06iqGcKoh4BUiI9hBA/oTUAyvy1JC95TDhnK7lxQ0e1lHzPYUDaauTqkRU3BLtm1GQVDIphMGntAMwz8nFwgtu0cOsGErzwUcy9jcjMa9oRraq8o7WmjR6CbZ29ZpJKOHKhNtRLcOQ5kzGKIiXIBCp4lYKOLkkcRrgh8F7rISKwptctlIy7BV+/ZSLZy+MQqKxjLGM+RIKeYkVOqQFMjD4Y5ge/Kg529rYtmagLdm5PhpC6HSrKKR2VD8QsmkZY5dRSiUmSZDDmcQDsyAc8grxtfGGmKk30kzzM2g7B24mrfeWrMNcP3co7YR6KRBdokmAeoNYxITlclXSVLrVKt4JVRMUtceGWHkxG4r4euJTCa5Wt6xt/wByPbyuNWFcig9RWQd8G4NICTacJGTOkVPScwJB+jEExHQIHumlKUApSlAKUpQFYvn3v+nWn4qs9Vi+fe/6dafiqz1rPu4+pEcTFKUrIsUpSgFKUoBSlKAUpSgFKUoBSlKAUpSgFcLpo1epAg9bJOEwORQCKkA5dZDAYhsh8pTFKYB8ggAh2hXNSgKxfPvf9OtPxVZ6rF8+9/060/FVnrWfdx9SI4mKiYVZmrJT5G0YdqojIkI4VEMgdKcI3MCoecAIYifzpjUtXQjub8ZKcy2uH4svL9Hj4fYSz1d+9vfRlURufW1HXejgcrMy3XHNzxhzujxz06TwA8FFMqjYDpCPnOJkzB/CGpaugtzfnrPZ2uV8I54nP3fEa0dnLu07+ffprv0lcutrCvYpSlSUKUpQEdbazxxbsW4kI0sc6VZIHXZkDIrZQSAJkg7ijmX6KkajrbReN7di28hJFkXSTJAi7wg5lcqAQAMqHcYczfTUjVTxOomOFEcui8NcTJwSSKRqRk6IqzEfCWUMdASKh3EAqhR/ihUjUM65R1wjN7d5py19w2XuOH3Wu9n36tjL+apmuyuW7mxG9ilKVBQpSlAKUpQCqvaQgWfvcxhAACdSERH0Yxq0V486WnRbxS6TcRecDhvjhI2gLeYAjiDOIki5jVFssiuTpBugHaHjBUnYGSYD4Va0eGe7miJ3x38meo7Pv+yMQUJJ1Yt2RU+3iJA8U+XjnRHCSDshCHOiJyCJdZSqkzAB7BNkPaAhVgryh/8AT8wUxTwbwPc4f4kurggJOJevY0kfnFLMR1n3iSbNVJuKymsFgKIOVVcjJGDQQoAQu9dQLr6m9V/ZuvXmXEb3WPhIXmOjPPa0cv4TR5M+H1/K8tZFl1pVae2nPOpmElEMTblZtopMCO45BvGi3lhD+25MdoZUoj/gKIh3BRlac81mZuUXxNuV42lUxI0jl28aDeJEf7bYxGhVTCH+OosHcNAWWlUrqBdfU3qv7N168y4je6x8JC8x0Z57Ojl/CaPJnw+v5WfbUg9tOedTMJKIYm3KzbRSYEdxyDeNFvLCH9tyY7QypRH/AAFEQ7goCy0qtMrTnmszNyi+JtyvG0qmJGkcu3jQbxIj/bbGI0KqYQ/x1Fg7hqP6gXX1N6r+zdevMuI3usfCQvMdGeezo5fwmjyZ8Pr+Vn20BZ3cHCv5JjMvodk4kIzc4J2q3IdZruF0qbRxDUTUAZDpEMw7BrvVWntpzzqZhJRDE25WbaKTAjuOQbxot5YQ/tuTHaGVKI/4CiIdwUZWnPNZmblF8TbleNpVMSNI5dvGg3iRH+22MRoVUwh/jqLB3DQEhc9p2te8I4tq87aip+Id6eIj5Rmm6bLZCAhrSUASmyEAEMw8YVIt26DRBNq1QTRRRICaaaZQKUhQDICgAdgAAdgAFU7qBdfU3qv7N168y4je6x8JC8x0Z57Ojl/CaPJnw+v5WfbUg9tOedTMJKIYm3KzbRSYEdxyDeNFvLCH9tyY7QypRH/AURDuCgLLSq0ytOeazM3KL4m3K8bSqYkaRy7eNBvEiP8AbbGI0KqYQ/x1Fg7hqP6gXX1N6r+zdevMuI3usfCQvMdGeezo5fwmjyZ8Pr+Vn20BdaVWntpzzqZhJRDE25WbaKTAjuOQbxot5YQ/tuTHaGVKI/4CiIdwUZWnPNZmblF8TbleNpVMSNI5dvGg3iRH+22MRoVUwh/jqLB3UBZaVSuoF19Teq/s3XrzLiN7rHwkLzHRnns6OX8Jo8mfD6/lZ9tSD20551MwkohibcrNtFJgR3HIN40W8sIf23JjtDKlEf8AAURDuCgLLSq0ytOeazM3KL4m3K8bSqYkaRy7eNBvEiP9tsYjQqphD/HUWDuGo/qBdfU3qv7N168y4je6x8JC8x0Z57Ojl/CaPJnw+v5WfbQF1pVae2nPOpmElEMTblZtopMCO45BvGi3lhD+25MdoZUoj/gKIh3BRlac81mZuUXxNuV42lUxI0jl28aDeJEf7bYxGhVTCH+OosHcNAWWlUrqBdfU3qv7N168y4je6x8JC8x0Z57Ojl/CaPJnw+v5WfbUg9tOedTMJKIYm3KzbRSYEdxyDeNFvLCH9tyY7QypRH/AURDuCgLLSq0ytOeazM3KL4m3K8bSqYkaRy7eNBvEiP8AbbGI0KqYQ/x1Fg7hqP6gXX1N6r+zdevMuI3usfCQvMdGeezo5fwmjyZ8Pr+Vn20B3r597/p1p+KrPWbYg2xNrTFkSaWI1woNo2WaJOY5NCPFvJm8L9K4EzUVSm7PEiokXtHwfFlpNaywR9SI4mKUpWRYpSlAKUpQClKUApSlAKUpQClKUApSlAKUpQFYvn3v+nWn4qs9Vi+fe/6dafiqz1rPu4+pEcTFRMKizSkp87aTO6UWkSHcJCOYNVOEblBIPMAkKRT51BqWqJhVmaslPkbRh2qiMiQjhUQyB0pwjcwKh5wAhiJ/OmNTG57uaOyvQcoszXXHODyZyOiRz0iTMB8FZMyjYTqiHnIJUyh/FGpaolyszLdcc3PGHO6PHPTpPADwUUyqNgOkI+c4mTMH8IalqSuW7mxG9ilKVBQpSlAQ1mco6nwXV/d5Xy1rwO77vh9ou3qz8unLOpmo621nji3YtxIRpY50qyQOuzIGRWygkATJB3FHMv0VI1dJje8mGFEcus8LcTJuSNKdqdk6Oq8EPCRUKdACJB3HAyhh/hBUjUcui8NcTJwSSKRqRk6IqzEfCWUMdASKh3EAqhR/ihUjXJXLrawr2KUpUlClKUApSlAKq9o/rBe/p1L+mMatFVe0f1gvf08l/TGNa0eGe7miJ3x38mWilKVkWKUpQClKUApSlAKUpQFDxFxxwxwpfsoy+rgXZOHqJnRSt4x28BBsU5SGcODN0jg2QA5ylFZYSJgI9puwa+ZrHXCy3rzaWFK3MdOWdqN0QFOPdLM0FXADw6Th4RMWzdRXT+jIqoQx8y6QHUGeYdKXo8XpjBNw1zYfpQcdcMQwcM4y5S3FJQkvBKqnKIrIqNSKpvEhKAgZqsmQB7f0gahygpjoj3O8xbd3S4kGlwQ1wykNNTDmRuycYGbumCSRDCnEslE2bsxzN0jkOqoQEjGN4CoFAogX22elbYryxj3pebN7Bia4pyAax0e0dzTtyEY7WQUXKi0QMsJNKG4cQTEqYGADGHsEbJO9IvBu3V4lJ/eO8nMtG79B0wjnb5oi1XOBEF3LhukdJokoYciKLmTKYQNkI6TZYA66GuIbSLhpZjIxkjPw07d7orBG8Zm32q7KZfqOUhM9jyA4BRMNoDpaBIfM5dQZAar5aWBmK+Dk43XwhGyFmEnbsRBSJJd5IlTiVGInKCzVE2+q7IZNY4bSrpIxRIURVNqHIDRMLccrdxYum+bWg4SeZqWLLhEOV5CKctUnJ9spjHSOomUhg1CIAUDCYSgU+QFUII6RWW4T4eXlYd+4lSEuEKvB3fOlno5y2eKi7KczZFFRFZuZECEAoo5lOVY4m1ZCUuXbqVAKUpQClKUApSlAKUpQClKUBWL597/p1p+KrPVYvn3v+nWn4qs9az7uPqRHExSlKyLFKUoBSlKAUpSgFKUoBSlKAUpSgFKUoBSlKArF8+9/060/FVnqsXz73/TrT8VWetZ93H1IjiYroR3N+MlOZbXD8WXl+jx8PsJZ6u/e3voyrv1EwqLNKSnztpM7pRaRIdwkI5g1U4RuUEg8wCQpFPnUGojc+tqOu9HOtzfnrPZ2uV8I54nP3fEa0dnLu07+ffprv1EuUWZrrjnB5M5HRI56RJmA+CsmZRsJ1RDzkEqZQ/ijUtSVy62sK9ilKVJQpSlAR1tovG9uxbeQkiyLpJkgRd4QcyuVAIAGVDuMOZvpqRqGszlHU+C6v7vK+WteB3fd8PtF29Wfl05Z1M1dJje8mGFEM65R1wjN7d5py19w2XuOH3Wu9n36tjL+apmo5dZ4W4WTckaU7U7J0dV5l4SKhToARIO44GUMP8IKkaSuW7mxG9ilKVBQpSlAKUpQCqvaP6wXv6eS/pjGrRWPqYF4I4i3vetwYg4OWPc8oWYbtwfTNvNHrgEixjISk3FUzG0gJjCAZ5BmPnrWjwz3c0RO+O/kzYKVlXtTuix8WnCr7Gx35NPandFj4tOFX2NjvyayLNVpWVe1O6LHxacKvsbHfk09qd0WPi04VfY2O/JoDVaVlXtTuix8WnCr7Gx35NPandFj4tOFX2NjvyaA1WlZV7U7osfFpwq+xsd+TT2p3RY+LThV9jY78mgNVpWVe1O6LHxacKvsbHfk09qd0WPi04VfY2O/JoDVaVlXtTuix8WnCr7Gx35NPandFj4tOFX2NjvyaA1WlZV7U7osfFpwq+xsd+TT2p3RY+LThV9jY78mgNVpWVe1O6LHxacKvsbHfk09qd0WPi04VfY2O/JoDVaVlXtTuix8WnCr7Gx35NPandFj4tOFX2NjvyaA1WlZV7U7osfFpwq+xsd+TT2p3RY+LThV9jY78mgNVpWVe1O6LHxacKvsbHfk09qd0WPi04VfY2O/JoDVaVlXtTuix8WnCr7Gx35NPandFj4tOFX2NjvyaA1WqZjJiUng9hlP4nubZlJ9pbbYH71jGAmLkWhTl4hUgKGKUdpIVFRATBmCYhnnVd9qd0WPi04VfY2O/JqmYydCXA++MMp+z8OsHsKbQn5lsVk3neo7FU8emocpV1UikIQ26CIq7ZgOUSqCQ2YZUBIWN0m8EOkZEW/K4T34wllk5loo6jTm2X7QPCAd1ufI4FAw6dYAJBEB0mNW8V5OwX6CGA/RV6vTFmRbuWutSVbN3FxSqu45MQ2rURIhck0SCPkKXUIdhjGr1jWs+7j6kRxMUpSsixSlKAUpSgFKUoBSlKAUpSgFKUoBSlKAUpSgKxfPvf8ATrT8VWeqxfPvf9OtPxVZ61n3cfUiOJiomFWZqyU+RtGHaqIyJCOFRDIHSnCNzAqHnACGIn86Y1LV0I7m/GSnMtrh+LLy/R4+H2Es9Xfvb30ZVEbn1tR13o4HKzMt1xzc8YY7o8c9Ok8APBRTKo2A6Qj5ziZMwfwhqWroLc356z2drlfCOeJz93xGtHZy7tO/n36a79JXLrawr2KUpUlClKUBHW2s8cW7FuJCNLHOlWSB12ZAyK2UEgCZIO4o5l+ipGo620Xje3YtvISRZF0kyQIu8IOZXKgEADKh3GHM301I1U8TqJjhRHLovDXEycEkikakZOiKsxHwllDHQEiodxAKoUf4oVI1DOuUdcIze3eactfcNl7jh91rvZ9+rYy7tVTNdlct3NiN7FKUqChSlKAUpSgFVe0f1gvf08l/TGNWiqvaP6wXv6eS/pjGtaPDPdzRE747+TLRSlKyLFKUoBSlKAV5o6QPSIxBgEL9hcMLcQRTsYsSnKXCs/TBZB08WTEqSDNRA5FigiYBOc6hMtfgFOIdnpesdxE6L9mYizs7NOLquqETupFknOsIly3TbSSjQ4GbrKbqChynJpAv6M5CmL2HKbIMgKcbprWgTGs+E2xbnDoXEjaaih7pQJNHkFEQPvJxW3qOzKcwJCuKoG1gbJISgBhojDpyr2NYltJ3o6tmVuSTbz0u7cXBcjW3UBYspBVBNFuOyYF3ZwACpogQgG2zCdQo5avQUdgRDQ2ITy+4S9rwjWsnIlmX9utJBNKLdyIIgjxKgAlxA5kKTUiCwIGMUDGSE2YjXU+ifZ8awhULUv297afwqEiyCVinzYjx0xfORcrtVTHbnIBd3ISKJlIsnl4ChREwiBn0h0wrgt66r9uudhYP2NoC0YGciDllRSerLSQmBEFgOhtEAxh0nNvaUipgYNwTm0SrfpP3ZidgdidP4RQMNLXxZBuESQtOdQuJk7MdJNYqrJyCaYLmBM5w0HRKIKpmLpOGQmv109GeyLunpyakp+5Co3HBs4ORYEdpHSW4Q4naO91RI7grhIxhMBwVAph7TlONSzXBpVKyJm0X+LuI0hITbji1LjVmSIyTZUAICYtwQSTbIEKCZf0REASOOoVCKCc4mA8/Yf8ATUtGJwWbXyvi82vV3N3QSAYp3qVpaziDdGQBRRnLuUUtgu0Caxt5JsAGASlApx8Me1G9NJGbui1r4NJt2Vjp2PeExcTCPcN5FA72Jds0dbd4BCiqmAHW2zhtlUKoUxiAOQF1YnRbtQWD5d3e11u7rfzje4xvBQzAkqk/QS2UVCETalZgUqOpPQLYSmKY2oDCOddtTozWPIvoiSuufui53EZbctbC55mQK4GSbSSiKjo7gQIAgcTIF0AkKaZAMJSkAAKBQM0s/p0wl2xss2YwdqyVyInh04ljb16JSrJ0pJqCk3ScuyIFFqqRQh98gJK6CgBiCqIgWp69cZsfYG7cKoB3hrbEANzXG+jp1Ne5TOiGat2yipVGqxGgiZMxCmU/SJpKakypiUhTioFnJ0aIRzZr+zrixLv2fKudipGv5GRb78KZkIGaGZppIEblOmcoG1qJKHUHsVMoUAKHZd9HlhIp206lMUL7fzlsTis8hNu3bNZyuqqkZFVE6RmwtU0DJGEm2iikBfdF0mETCBlln/8A1AcPrmlJMF2kEMUjBy8+xNE3OhIyZUI8wAonIMCkKZiqoUdaRQOqAlA2oSCGQ2zCTF3Fe9cb1rcvm3mdtxa9hMbibRDSRTkUyKru1CgcznYSU3NsClOnkKZR9yY/aarJbnRps+320nArXVdsrab6PeRTa1XsiQImPaujiddNJNFNM6oiI5FO4OsdMoiVMxAMYB7OGPR8g8Mbo63o3xdtxSRYBvbKRppy2ORGPQVMoimUqCCQai6hLrHMxgANYmMGqgNTpSlAKUpQClKUApSlAVi+fe/6dafiqz1WL597/p1p+KrPWs+7j6kRxMUpSsixSlKAUpSgFKUoBSlKAUpSgFKUoBSlKAUpSgKxfPvf9OtPxVZ6rF8+9/060/FVnrWfdx9SI4mKiYVFmlJT520md0otIkO4SEcwaqcI3KCQeYBIUinzqDUtUTCrM1ZKfI2jDtVEZEhHCohkDpThG5gVDzgBDET+dMamNz3c0dleg5RZmuuOcHkzkdEjnpEmYD4KyZlGwnVEPOQSplD+KNS1RLlZmW645ueMOd0eOenSeAHgoplUbAdIR85xMmYP4Q1LUlct3NiN7FKUqChSlKAhrM5R1Pgur+7yvlrXgd33fD7RdvVn5dOWdTNR1trPHFuxbiQjSxzpVkgddmQMitlBIAmSDuKOZfoqRq6TG95MMKI5dZ4W4mTckaU7U7J0dV4IeEioU6AESDuOBlDD/CCpGo5dF4a4mTgkkUjUjJ0RVmI+EsoY6AkVDuIBVCj/ABQqRrkrl1tYV7FKUqShSlKAUpSgFY+pjHaViXvesJNxF8OXAzDdcDw1izcu30mjGQAG+yaKpAbsHMurUHZmAZhnsFVe0f1gvf08l/TGNa0eGe7miJ3x38mVL2y2HXwcxV+6e6vV1PbLYdfBzFX7p7q9XVqtKyLMq9sth18HMVfunur1dT2y2HXwcxV+6e6vV1arSgMq9sth18HMVfunur1dT2y2HXwcxV+6e6vV1arSgMq9sth18HMVfunur1dT2y2HXwcxV+6e6vV1arSgMq9sth18HMVfunur1dT2y2HXwcxV+6e6vV1arSgMq9sth18HMVfunur1dT2y2HXwcxV+6e6vV1arSgMq9sth18HMVfunur1dT2y2HXwcxV+6e6vV1arSgMq9sth18HMVfunur1dT2y2HXwcxV+6e6vV1arSgMq9sth18HMVfunur1dT2y2HXwcxV+6e6vV1arSgMq9sth18HMVfunur1dT2y2HXwcxV+6e6vV1arSgMq9sth18HMVfunur1dT2y2HXwcxV+6e6vV1arSgMq9sth18HMVfunur1dT2y2HXwcxV+6e6vV1arSgMq9sth18HMVfunur1dVCx56VyNuYPXXcuF8Xe7S5oSPNKMjz2FFzljzg3EFlUlznZJlTIokRRPcMoQpNYHEwAURr0lVWxPw1tXF+xpPDi90Ha8FMgkR+g1eKtTrpEVIoKQqJCU4EPoApgKIZkMYufbQHkbowf/ULtrpbu4aznVgTNvXZHSTV08FBMzqLOQBENQOAABRMYcxAigAHkA5xr3FWblw9sbDC3LXtHDy0oq3YZrOtNtlHNSIJ6vCzMIFDwjDl2mHMwj2iIjWkVrPu4+pEcTFKUrIsUpSgFKUoBSlKAUpSgFKUoBSlKAUpSgFKUoCsXz73/TrT8VWeqxfPvf8ATrT8VWetZ93H1IjiYroR3N+MlOZbXD8WXl+jx8PsJZ6u/e3voyrv1EwqLNKSnztpM7pRaRIdwkI5g1U4RuUEg8wCQpFPnUGojc+tqOu9HOtzfnrPZ2uV8I54nP3fEa0dnLu07+ffprv1EuUWZrrjnB5M5HRI56RJmA+CsmZRsJ1RDzkEqZQ/ijUtSVy62sK9ilKVJQpSlAR1tovG9uxbeQkiyLpJkgRd4QcyuVAIAGVDuMOZvpqRqGszlHU+C6v7vK+WteB3fd8PtF29Wfl05Z1M1dJje8mGFEM65R1wjN7d5py19w2XuOH3Wu9n36tjLu1VM1HLrPC3EybkjSnanZOjqvBDwkVCnQAiQdxwMoYf4QVI0lct3NiN7FKUqChSlKAUpSgFVe0f1gvf08l/TGNWiqvaP6wXv6eS/pjGtaPDPdzRE747+TLRSlKyLFKUoBSlKAzvpB3Felq4N3ROYdPYprcyDPTFHknjdoiZyc5SkICrn9ARQwm0pirmTWYmoBDMB8sIdJTGV7D27hs1kMReti17PreuE6kPbje4Y8UY8XqbJFVdQkQ5MYBAwOATLrQIOSQHED17glYqLnY11DTca1kI98kZB00dIlVRXSMGRiHIYBKYogOQgICA1Vi4KYNFss2G5cJLLC0jr8SaBCBa8uFbUBtwW23tatQAOrTnmGdAeYF8YukFccdFpGxBTtlylhZLXS8UikIl+LiQZvQIgqCpQctxIomUQVImcS+GYCGIYAEK/jninfWJ2H2JDKTvsICLhMMYKaGCbsmwpy68kU4qrKqqkMsBCmICSZUTp5HARMJ/ch7YNY9lH0Cez4Q23GmhiZx6I6Y8cs2geD2IDkGafuewOyo2bwjwouYY8bkwxtOVGJaGYR4voVsvwjUwAUyKWsg7aYgAAJC5AIAHZQGDW/ZuHGKmL+JTHHmDhZ01rxsOaBZzgEVRjIdRnrO+bEUEStzncAuB3JNJ/wBAUBMGguXVxCxRulo5vJvhriwaBtzDKx4654VRM7aVTuUFQWMHEunhVlFm4ggRIDoqpqiZQxhUERLl6GvHCjC3ETgPZAw1tW5uVCIsOcQzd7wmeWe1ukNt56S+5y8QeauzP4d4f3W/iJW6LFt6YewCm9EuX8Yg4Vj1Owdbc5yiKRvBL2kEB7A81AeWr1xvxpRkb0uxjd68KwtJazHKNvhHNDkVCRBIHjVwdVEVtP6QdIkOQ5TB48vBrPoWIcW/jJiney0oSalnOOlvW7vy8NGOlEmRkGqoETVFqCqencApNJwAgEKYoAoJ1D+7H9j2VKGkTydnwjw0uZA8gK8eioLwyAgKIraijuCmIAJBNnpyDLKuMcP7DMu5cjZMAKz2SSmXKgxqOpeQTKUqbs46czLlKQgFUHwgAoAA9gUB5St3FHHCYs+Ju5bGCRI4nsW31lA1CHjOHaRqMq9QKJA4fcMttJELrMcS5EIOgTazH/LQxhxogryswLkxVe3DFvcSLhsN+0dw7BMHDJmzduUXZjNkEz8UBm5SjtiRIS9m1q8IfWCFh2M1aIR7azIJFq1kTy6CCcciVNJ+dQyh3RSgXIqwnOc4qB4QmMYRHMRr8JYVjJOGztKy4Ii7ORWmGypY5EDov1SmIq6IOnMqxynOUygeEYDGAREBGgPClwY7Yz3bbt6FJiXMIW5dmFUpeMEcxY5vKMRRVKUpiIt22pmkoU5igRZw6W0lz3ElAMAWlbEu9sKJe9eUSDWTew+GNjbUzIRDEHSRnb14go5cqt0UjKpokEDlTH9GXSIgUBMcTeqofBDBe3nz2TgMIbKjHkkm5SeOGcA0RVckcad8qhiJgJwU0E1gIiBtJc88gqQgsMMNLXbrM7Zw8tmIQcMCRSyTCJbtyKMiCcSNjAQgAKQCqqIJj4ICofIPCHMDzLeOKuNFlXNIYVw+J7ucMwu60WRbnkIxgLnh5M6gOmSpW7dNtrKRMDkMVIpwBUmoDeM2z9HS67suKBuqJvG4l597a12ycClKOW7dFw6bomKKZlSN000tYAfSIkTIA6QHIO2rjC4V4YW3BNLXt3Di14uGYPSyTSOZQ7dBq3dlNqK4TSIQCEVAe0DgAGAe3OpqLg4WE4rksOyYcc5O8dcK3IlvuD5a1T6QDUc2QZmHMRyDMaA71KUoBSlKAUpSgKxfPvf9OtPxVZ6rF8+9/wBOtPxVZ61n3cfUiOJilKVkWKUpQClKUApSlAKUpQClKUApSlAKUpQClKUBWL597/p1p+KrPVYvn3v+nWn4qs9az7uPqRHExUTCrM1ZKfI2jDtVEZEhHCohkDpThG5gVDzgBDET+dMalq6EdzfjJTmW1w/Fl5fo8fD7CWerv3t76MqiNz62o670cDlZmW645ueMOd0eOenSeAHgoplUbAdIR85xMmYP4Q1LV0Fub89Z7O1yvhHPE5+74jWjs5d2nfz79Nd+krl1tYV7FKUqShSlKAjrbWeOLdi3EhGljnSrJA67MgZFbKCQBMkHcUcy/RUjUdbaLxvbsW3kJIsi6SZIEXeEHMrlQCABlQ7jDmb6akaqeJ1Exwojl0XhriZOCSRSNSMnRFWYj4SyhjoCRUO4gFUKP8UKkahnXKOuEZvbvNOWvuGy9xw+613s+/VsZfzVM12Vy3c2I3sUpSoKFKUoBSlKAV486Wt9dMSyIe83fRWsCOmgNLgMpIJgDuUY5RbLSLZkYNKo+LtAFR7RDbAA117Dqr2j+sF7+nkv6YxrWjwz3c0RO+O/kzy9/wDTTvLEu8sBZSeupyjPTLiZkVJV/K3O7cSQzRTFILNy2UaaWKRESNgKVJVYNIgbQUTCQvpTm2NHU3juoFldbOI08r63u+XbGfu+N5bu68v7HDZfK8tW9Bo1bHXVbNkkjuVN5cxCAUVT6Sl1GEPdDpKUuY9uRQDyBXNWRZWnr/ElOZhEI607aXiV0wGadL3C4ScMj+UrZAGRiuQ7zqoD3BRk/wASVJmbQkbTtpCJQTEYV0hcLhVw9P5CuUBZFK2DvIquPcNWWlAUrm2NHU3juoFldbOI08r63u+XbGfu+N5bu68v7HDZfK8tSD1/iSnMwiEdadtLxK6YDNOl7hcJOGR/KVsgDIxXId51UB7gqy0oCtMn+JKkzNoSNp20hEoJiMK6QuFwq4en8hXKAsilbB3kVXHuGo/m2NHU3juoFldbOI08r63u+XbGfu+N5bu68v7HDZfK8tXWlAVp6/xJTmYRCOtO2l4ldMBmnS9wuEnDI/lK2QBkYrkO86qA9wUZP8SVJmbQkbTtpCJQTEYV0hcLhVw9P5CuUBZFK2DvIquPcNWWlAUrm2NHU3juoFldbOI08r63u+XbGfu+N5bu68v7HDZfK8tSD1/iSnMwiEdadtLxK6YDNOl7hcJOGR/KVsgDIxXId51UB7gr8xExIs3Cm2j3dfUqowjCuUGZTIs13aqrhdQqaKSaKBDqqnOcxSlKQoiIj4qkbfuSPuZsq7jm8oiRFTaMEhFOmBxNpKbMpHCZDGLkYPCABDPMM8yiAAR7J/iSpMzaEjadtIRKCYjCukLhcKuHp/IVygLIpWwd5FVx7hqP5tjR1N47qBZXWziNPK+t7vl2xn7vjeW7uvL+xw2XyvLV1pQFaev8SU5mEQjrTtpeJXTAZp0vcLhJwyP5StkAZGK5DvOqgPcFGT/ElSZm0JG07aQiUExGFdIXC4VcPT+QrlAWRStg7yKrj3DX3L3/AGpCv5GIcyKriTioznDqOYM13zwjTUJSnK3QIdU4mMUwFIUomMJR0gOQ1PpKFWSIsQDAU5QMAHIJTZCHlAchAe4QzoCm82xo6m8d1AsrrZxGnlfW93y7Yz93xvLd3Xl/Y4bL5XlqQev8SU5mEQjrTtpeJXTAZp0vcLhJwyP5StkAZGK5DvOqgPcFWWlAVpk/xJUmZtCRtO2kIlBMRhXSFwuFXD0/kK5QFkUrYO8iq49w1H82xo6m8d1AsrrZxGnlfW93y7Yz93xvLd3Xl/Y4bL5Xlq60oCtPX+JKczCIR1p20vErpgM06XuFwk4ZH8pWyAMjFch3nVQHuCjJ/iSpMzaEjadtIRKCYjCukLhcKuHp/IVygLIpWwd5FVx7hqy0oClc2xo6m8d1AsrrZxGnlfW93y7Yz93xvLd3Xl/Y4bL5XlqQev8AElOZhEI607aXiV0wGadL3C4ScMj+UrZAGRiuQ7zqoD3BVlpQFaZP8SVJmbQkbTtpCJQTEYV0hcLhVw9P5CuUBZFK2DvIquPcNR/NsaOpvHdQLK62cRp5X1vd8u2M/d8by3d15f2OGy+V5autKAzfEF9iEWYshBpa9uqRS0s0NLOlJ5cjhot4WZG6IMxK4L4/COoiPYHg9vZpFVi+fe/6dafiqz1rLBH1IjiYpSlZFilKUApSlAKUpQClKUApSlAKUpQClKUApSlAVi+fe/6dafiqz1WL597/AKdafiqz1rPu4+pEcTFRMKizSkp87aTO6UWkSHcJCOYNVOEblBIPMAkKRT51BqWqJhVmaslPkbRh2qiMiQjhUQyB0pwjcwKh5wAhiJ/OmNTG57uaOyvQcoszXXHODyZyOiRz0iTMB8FZMyjYTqiHnIJUyh/FGpaolyszLdcc3PGHO6PHPTpPADwUUyqNgOkI+c4mTMH8IalqSuW7mxG9ilKVBQpSlAQ1mco6nwXV/d5Xy1rwO77vh9ou3qz8unLOpmo621nji3YtxIRpY50qyQOuzIGRWygkATJB3FHMv0VI1dJje8mGFEcus8LcTJuSNKdqdk6Oq8EPCRUKdACJB3HAyhh/hBUjUcui8NcTJwSSKRqRk6IqzEfCWUMdASKh3EAqhR/ihUjXJXLrawr2KUpUlClKUApSlAKq9o/rBe/p5L+mMatFVe0f1gvf08l/TGNa0eGe7miJ3x38mWilKVkWKUpQClKUArjXBUyKhUDlKqJRAhjBmAGy7BEPnrkpQHiO2rCl/Y3uaJtTCW8YjHo9sSrGeupJg4jG8i6M4A3hP1DJov1lgKAoKkFcUAEQ1IgIgaNubDNxJ2TiSjgnhPcdr2ZK2/CNDwydtuold5PJviC4cosjpEVMcrcCFUclTAqglAQMpozL7upQHgjGPABR8je1oxODCr23QxTsmWjWCVvCs0FFQW5ZRyiQExLoMXdBwcoaRAVNY9ps5aTwalZ/EiFh5zC5++tc+OMs+dtl4dQ7E0Sa31kSKqFEm2LUxxKlmb9GYR0dueVe4aUB4cU6PrZ9cLGQe4QuFD+zU7TOqaIU8G3VWxiHJnpyKwUyKUxf+SfxGAc6p8vh5dxsHYfCy7sJLiUtQkzfSLMELOcTTuOEskoEQ3aslUlWzVFREwgm7WQMRNMMkzJa9wP6J0oD+btwYVXG7sC6JSTweuR7eFz9HtrFsnxrTdrv1JVNFcrhsqsCInRciTZJtqmKc4AUoAbLINKxSw+ueRnrrTk8PJ2XvqRYwZcLJ1CFXcJQJ0kUwWAHpSCnFiRcDqK7p0t0ogAAp7mvbFKA8VMsIrkY364v89iSp7kJjeRylKhGqiqnEKtEk3KiKmjMrNQS+GJckzCGY9oV7VpSgFKUoBSlKAUpSgFKVC3jetpYeW65u6+biYQUIzOim5kH65UW6AqqkST1nN4JQFRQhcxEADV2iAUB0r597/p1p+KrPVSux8yk2dsSMc7QdNHUyyWQXQUBRNVMwGEpimDsMAgICAh2DVtrWfdx9SI4mKUpWRYpSlAKUpQClKUApSlAKUpQClKUApSlAKUpQFYvn3v+nWn4qs9Vi+fe/wCnWn4qs9az7uPqRHExXQjub8ZKcy2uH4svL9Hj4fYSz1d+9vfRlXfqJhUWaUlPnbSZ3Si0iQ7hIRzBqpwjcoJB5gEhSKfOoNRG59bUdd6Odbm/PWeztcr4RzxOfu+I1o7OXdp38+/TXfqJcoszXXHODyZyOiRz0iTMB8FZMyjYTqiHnIJUyh/FGpakrl1tYV7FKUqShSlKAjrbReN7di28hJFkXSTJAi7wg5lcqAQAMqHcYczfTUjUNZnKOp8F1f3eV8ta8Du+74faLt6s/LpyzqZq6TG95MMKIZ1yjrhGb27zTlr7hsvccPutd7Pv1bGX81TNRy6zwtxMm5I0p2p2To6rwQ8JFQp0AIkHccDKGH+EFSNJXLdzYjexSlZpE4m3pNxTKZZWTClbv26bpIFZ9UpwIcoGLqAGggA5CGYAI/ONXRaPSUybgrvNL9k0lLCiqtO80ulZ916v34FwH2hW/wBnTr1fvwLgPtCt/s61+hp8lxXyZ/VUWfs/g0GlZ916v34FwH2hW/2dOvV+/AuA+0K3+zp9DT5LivkfVUWfs/g0GsfUw9u2573vWShMdL4tFuEw3SGPhmcIq3EwRjLNTN7HuFdQ5gAhuafBDIoduc/16v34FwH2hW/2dRkRP37FSE2+6qQCvOX5HujnyxdrS1QQ058IOr/kas+z3WWXZmOkNDpkpJpdqzWa8yZaTRtrt9nk/I/PYbxF+Njir9W2r6mp7DeIvxscVfq21fU1Ssfft6vrga28ezoRNZy2WebgTypilSSOkQ//APKAImzXJkHiHI2YhkGdx3p3m+zy5hyvbz4njT8Rr82ztacu/cz7q81JQTonVP8Aa+TaFLGkVcf0zOfYbxF+Njir9W2r6mp7DeIvxscVfq21fU1X9FzdZmbw7iFiSOiGEGaRJNQyaxfIKhxbgKY9wFP89FnN1lZszt4WJO6OYAeJHk1Cpol8opnBuIqD3CUnz1Fh+XFFWl0igew3iL8bHFX6ttX1NT2G8RfjY4q/Vtq+pq0beneb7PLmHK9vPieNPxGvzbO1py79zPurgRc3WZm8O4hYkjohhBmkSTUMmsXyCocW4CmPcBT/AD1yw+mhaRQPYbxF+Njir9W2r6mp7DeIvxscVfq21fU1X9ZzdZWbM7eFiTujmAHiR5NQqaJfKKZwbiKg9wlJ89c+9O832eXMOV7efE8afiNfm2drTl37mfdSw+mhaRnPsN4i/GxxV+rbV9TU9hvEX42OKv1bavqar+i5uszN4dxCxJHRDCDNIkmoZNYvkFQ4twFMe4Cn+eizm6ys2Z28LEndHMAPEjyahU0S+UUzg3EVB7hKT567YflxQtLpFA9hvEX42OKv1bavqansN4i/GxxV+rbV9TVo29O832eXMOV7efE8afiNfm2drTl37mfdXAi5uszN4dxCxJHRDCDNIkmoZNYvkFQ4twFMe4Cn+euWH00LSKB7DeIvxscVfq21fU1PYbxF+Njir9W2r6mq/rObrKzZnbwsSd0cwA8SPJqFTRL5RTODcRUHuEpPnrn3p3m+zy5hyvbz4njT8Rr82ztacu/cz7qWH00LSM59hvEX42OKv1bavqansN4i/GxxV+rbV9TVf0XN1mZvDuIWJI6IYQZpEk1DJrF8gqHFuApj3AU/z0Wc3WVmzO3hYk7o5gB4keTUKmiXyimcG4ioPcJSfPXbD8uKFpdIoHsN4i/GxxV+rbV9TU9hvEX42OKv1bavqatG3p3m+zy5hyvbz4njT8Rr82ztacu/cz7q4EXN1mZvDuIWJI6IYQZpEk1DJrF8gqHFuApj3AU/z1yw+mhaRQPYbxF+Njir9W2r6mp7DeIvxscVfq21fU1X9ZzdZWbM7eFiTujmAHiR5NQqaJfKKZwbiKg9wlJ89c+9O832eXMOV7efE8afiNfm2drTl37mfdSw+mhaRnPsN4i/GxxV+rbV9TU9hvEX42OKv1bavqar+i5uszN4dxCxJHRDCDNIkmoZNYvkFQ4twFMe4Cn+eizm6ys2Z28LEndHMAPEjyahU0S+UUzg3EVB7hKT567YflxQtLpFA9hvEX42OKv1bavqansN4i/GxxV+rbV9TVo29O832eXMOV7efE8afiNfm2drTl37mfdXAi5uszN4dxCxJHRDCDNIkmoZNYvkFQ4twFMe4Cn+euWH00LSKB7DeIvxscVfq21fU1Zn0lsDsXZTAa9oS38aMUb+k5eLPGNLdVZWqkk9VcGKiXcPypISJkFTcOYqiZilTMJTlMACHotZzdZWbM7eFiTujmAHiR5NQqaJfKKZwbiKg9wlJ89c+9O832eXMOV7efE8afiNfm2drTl37mfdSw+mhaR4S6GfQsxq6MLSEk8S8anbtu+lW4BZccqZaLaqnETCsZRXxreQdohO0O06hcgr35VDvFzdJmkWd3DRSblOebcGmnJKHTWDw8tw4oAKfkzyKfLvqzLObrKzZnbwsSd0cwA8SPJqFTRL5RTODcRUHuEpPnracHYit+1ERkrT+CWpXQ3p3m+zy5hyvbz4njT8Rr82ztacu/cz7q4EXN1mZvDuIWJI6IYQZpEk1DJrF8gqHFuApj3AU/z1jYfTRdpEtSolZzdZWbM7eFiTujmAHiR5NQqaJfKKZwbiKg9wlJ89c+9O832eXMOV7efE8afiNfm2drTl37mfdSw+mhaR36VEoubrMzeHcQsSR0QwgzSJJqGTWL5BUOLcBTHuAp/nos5usrNmdvCxJ3RzADxI8moVNEvlFM4NxFQe4Sk+eu2H5cULS6RLUrob07zfZ5cw5Xt58Txp+I1+bZ2tOXfuZ91cCLm6zM3h3ELEkdEMIM0iSahk1i+QVDi3AUx7gKf565YfTQtIlqVErObrKzZnbwsSd0cwA8SPJqFTRL5RTODcRUHuEpPnrn3p3m+zy5hyvbz4njT8Rr82ztacu/cz7qWH00LSO/SolFzdZmbw7iFiSOiGEGaRJNQyaxfIKhxbgKY9wFP89FnN1lZszt4WJO6OYAeJHk1Cpol8opnBuIqD3CUnz12w/LihaXSJaldDeneb7PLmHK9vPieNPxGvzbO1py79zPurgRc3WZm8O4hYkjohhBmkSTUMmsXyCocW4CmPcBT/AD1yw+mhaRLUqJWc3WVmzO3hYk7o5gB4keTUKmiXyimcG4ioPcJSfPXPvTvN9nlzDle3nxPGn4jX5tna05d+5n3UsPpoWkd+lRKLm6zM3h3ELEkdEMIM0iSahk1i+QVDi3AUx7gKf56LObrKzZnbwsSd0cwA8SPJqFTRL5RTODcRUHuEpPnrth+XFC0ukR18+9/060/FVnql3wtNc2gETR7EIznDQSuQeHFcVPC8EUdrSBfH4W5n3VPIubrMzeHcQsSR0QwgzSJJqGTWL5BUOLcBTHuAp/nrSUHq4/KIjJWmS1RMKszVkp8jaMO1URkSEcKiGQOlOEbmBUPOAEMRP50xqQZKOVmaCz1sDZwdIplUQU1gmcQDUXVkGrIcwzy7cq60dzfjJTmW1w/Fl5fo8fD7CWerv3t76MqzXYmur/ct9tRwOVmZbrjm54w53R456dJ4AeCimVRsB0hHznEyZg/hDUtXQW5vz1ns7XK+Ec8Tn7viNaOzl3ad/Pv01365K5dbWFexSlKkoUpSgI621nji3YtxIRpY50qyQOuzIGRWygkATJB3FHMv0VI1HW2i8b27Ft5CSLIukmSBF3hBzK5UAgAZUO4w5m+mpGqnidRMcKI5dF4a4mTgkkUjUjJ0RVmI+EsoY6AkVDuIBVCj/FCpGoZ1yjrhGb27zTlr7hsvccPutd7Pv1bGX81TNdlct3NiN7FY7h9+oVt+iGf/ALJK2Ksdw+/UK2/RDP8A9klfQ0DBPeuZ49LxR9eRP1HzdwRFuoNnMy74dN27QYIm2zH1LrHAiZPBAcszGAMx7A8ogFdO+VZBCy55aJiV5R6nGuTN2KDk7dRyoCZtKRVSCBiGMOQAYogICOYDnXkzDaxZ5J66MwsJFnDyL+1XZk4nD5/bLVVVJ+rxR1WjtVVVRUhdO4uppE5NI5CUNQ+qUnF1IwjFNVs9fwE/EXRFJTcG74lkuZQqau2YmYkOYhuwwAPYYpg8Xk81SFZd0bbcibSwrbW7FWiNuAxkZFJdlyg8eG5xSnhlIYhAOUxNGlQoCUxctJhCtRqoutJslqp1CupKyrGFYnkJBUSJEECgBSiY5ziORSEKHaYxhEAAodoiIAFJWVYwrE8hIKiRIggUAKUTHOcRyKQhQ7TGMIgAFDtERAAr8w4h3c/OylxXdHig+hHpWbBgY4HIzKdqituDl2CuJV9Jh7QKACUo9phMnJUcHOVy9+vYRi5yUUTFiWzLkenvC5icO+XbmbNGACAgxbHMUxinMHulTiQgmyHSGkpQzyExrvSlfEpaWVNK1I+pR0ao42UKUpWZYpSlAKUpQClKUApSlAKUpQClKUApSlAKUpQCoFnfFuSF5SNgs13ikzENEHrwnLnIN0k1hHbDiRT2BOOkw7YHE+QZiUA7anq89X8xuCSmsY2lttnTlwZC2RctmhRMu5ZAJxdoplAQExjtwVKBQHMc8gzEQCgPQtK8kXFa+ELiLt9Zr0ebmHB1s7luLtkLGfGSUkFEkQbuk4IExXSS1FclARakAFTitkAHBY0EngbPydszNxX1YUtJ3hD2na4Qbl4kd47ZPEHDk4i3WDV/2ohDplVUTMJhAAAxhDxgerI3Ei1pe6pCzY3nC8hFLlau1AgnwMk1jJCro4wUeHMYCAGYAoOkTEKORjlAbRXkWdwiVhZy7Xdo4YGYDK3VcTxVSOhdriiq26chFTCmQNwDuFFCgYc9ShzAAiYRriuzo8W8NsvYyPwoAycbhWKkcghEiAFnxVOrvkKQgf8AEAU8MFA/TAY5hAczCNAemL597/p1p+KrKc5UyGUOORSgJhHzAFeJ8YsKZG3YqWhbPs1KNtl3c1sSMmyPa7iWZyIC2cA9OpHIHTUkTGUBEV0yHFRQQzNrHsNLW7YQR1k2GXEOypm5rDaSk0olBoWI9bEZKrHKMaoSGFd04bNktK4JbuQobiYiVAC5l0k/sit5CX3M9KWVi1YmIbwWVpSbx2flrWYIdWKdtklmbgTAkomqskQimYkMAgQRMQQyMBREKuFeeujRDP7eG1oOUhn8S7Y4bRKCrCQz4lsYrpyG2rmYwicPEI6jZj25j469C1mWKUpQClKUApSlAKUpQClKUApSlAKUpQClKUBWL597/p1p+KrPVYvn3v8Ap1p+KrPWs+7j6kRxMibRRZt7UhW8fJnkWqUc2Ig8OOZnKYJlAqoj5zBkb6aQqLNKSnztpM7pRaRIdwkI5g1U4RuUEg8wCQpFPnUGlorM3FqQriPjDxzVWObHQZnDIzZMUyiVIQ85QyL9FIVZmrJT5G0YdqojIkI4VEMgdKcI3MCoecAIYifzpjXZV2p9berjiqqj1sDlFma645weTOR0SOekSZgPgrJmUbCdUQ85BKmUP4o1LVEuVmZbrjm54w53R456dJ4AeCimVRsB0hHznEyZg/hDUtUSuW7myo3sUpSoKFKUoCGszlHU+C6v7vK+WteB3fd8PtF29Wfl05Z1M1HW2s8cW7FuJCNLHOlWSB12ZAyK2UEgCZIO4o5l+ipGrpMb3kwwojl1nhbiZNyRpTtTsnR1Xgh4SKhToARIO44GUMP8IKkajl0XhriZOCSRSNSMnRFWYj4SyhjoCRUO4gFUKP8AFCpGuSuXW1hXsViNiHuotj28Vth9NOkQimgJrpOWAEVLslyOUDuSmABDtDUUB7e0AHsrbqjrbWeOLdi3EhGljnSrJA67MgZFbKCQBMkHcUcy/RXo0fSHQQlUk66r/XzRlTUKpZKt1VV8jP8AdvD92c//AOqjf91TdvD92c//AOqjf91Wo0rX/kJ+Fe/yZ/Rx8T9vgy7dvD92c/8A+qjf91TdvD92c/8A+qjf91Wo0p/yE/Cvf5H0cfE/b4KLaVkvlZMt2XikTjkRMEcwA4HTYEHMNYiHYdcweMwdhQHSX+0Y0laP6wXv6eS/pjGrRVXtH9YL39PJf0xjWLpZU1uUsuaNFRxo7MY58mWilKV5jcUpSgFKUoBSlKAUpSgFKUoBSlKAUpSgFKUoBSlUXGvE0+D+HT+/U7fNNnZOGiBWJXQNxVFdymiGSglMACG5n2hkOWWYZ5gBeqikbTtZvcri829tRSVwO2pGTiWIzTK8WbkETEROsAazEKIiIFEcgEewKwI3StveLup/A3Ng5HNGUDeMfaMw9aXSLkxDvyJGZrtkjNCbwfpigqU5kRTH3ArB4pdh0n5GSm4582w7SGxZq53dmxs4MwIPDyiBlUwMoxFDIjVRZBRMqxVzn7SGFICiJigb3SvNqXTShELc6xzNmi2Th7QfXPdSSEmVU0Mu3ci1BiAmTICpzrkXIBzbYACQiIduQcNo9IF10hLJvNla18sLSuOzmiMoq/sO4Y25WaqardRRNLiHTIxNQGIYqqewUxRKGk4gbOgPTFK8lYH43Yrq4Z4ZkNKvcUMQ8SrULdyja4HTKEjY1skmlvgRZhHCYupRdMqZFE1BHwszlAoiPUuzpGSt8XrhurB33iVZFs3TaEjMOmdqWijPSJH6DpFEUlSljn4lImJlSichQIIgA6hzDMD0zfPvf9OtPxVZ68S250lrukoXDpe6H7qbd6rlfOBBZm2M4LFOQKgD9uRtrbvTJHJuJEMiCRzHA6IjkBNwwV6QszilPMIS4cPUraGbtJjeMUKcuL052q4gQ6S5dhMEVSHEAACmUKYogOoBzKGssEfUiOJmrM7WtiPn391MLci203KpJIP5JFmmR07TSz2iKqgGtQpNRtIGEQLmOWWdSlKVkWKUpQClKUApSlAKUpQClKUApSlAKUpQClKUBWL597/p1p+KrPVYvn3v+nWn4qs9az7uPqRHEzoQHN+RR3WDa5pwiPHbXuOI0Buae7Vnl3Ujub8ZKcy2uH4svL9Hj4fYSz1d+9vfRlXBaKLNvakK3j5M8i1SjmxEHhxzM5TBMoFVEfOYMjfTSFRZpSU+dtJndKLSJDuEhHMGqnCNygkHmASFIp86g0d8vjz9ukFdHrZ7nOtzfnrPZ2uV8I54nP3fEa0dnLu07+ffprv1EuUWZrrjnB5M5HRI56RJmA+CsmZRsJ1RDzkEqZQ/ijUtUSuXW1nVexSlKkoUpSgI620Xje3YtvISRZF0kyQIu8IOZXKgEADKh3GHM301I1DWZyjqfBdX93lfLWvA7vu+H2i7erPy6cs6maukxveTDCiGdco64Rm9u805a+4bL3HD7rXez79Wxl/NUzUcus8LcTJuSNKdqdk6Oq8EPCRUKdACJB3HAyhh/hBUjSVy3c2I3sVHW2i8b27Ft5CSLIukmSBF3hBzK5UAgAZUO4w5m+mpGoazOUdT4Lq/u8r5a14Hd93w+0Xb1Z+XTlnRYHvXMPEusiZpSlQUKUpQCqvaP6wXv6eS/pjGrRXkzpK9NSzuiCN0vJ2zbguGWmZsvLW7RuZFmY5YtkOSzwxRIn4h8EoHPlkIkAo6q1o8M93NETvjv5M9Z0ryR0U+mk8xSwmTxFxWgboB9PSTteOaWvhrcb9kyYJn2U0RdoNVknCmtJU5jkUEAFTTkUSCUNi9sth18HMVfunur1dWRZqtKyr2y2HXwcxV+6e6vV1PbLYdfBzFX7p7q9XUBqtKyr2y2HXwcxV+6e6vV1PbLYdfBzFX7p7q9XUBqtKyr2y2HXwcxV+6e6vV1PbLYdfBzFX7p7q9XUBqtKyr2y2HXwcxV+6e6vV1PbLYdfBzFX7p7q9XUBqtKyr2y2HXwcxV+6e6vV1PbLYdfBzFX7p7q9XUBqtKyr2y2HXwcxV+6e6vV1PbLYdfBzFX7p7q9XUBqtKyr2y2HXwcxV+6e6vV1PbLYdfBzFX7p7q9XUBqtKyr2y2HXwcxV+6e6vV1PbLYdfBzFX7p7q9XUBqtVbEzDqExVtBzZVwunzdi6XbODqMjkIqBkFyLEABOUwZCZMoD2eIRyyHtqp+2Ww6+DmKv3T3V6up7ZbDr4OYq/dPdXq6gEz0cbInJKdlHcrOEVuG54q7HQJrogUjuPKkVEhM0hEEhBEusBETDmORi9mXDG9GmyYu7m9wITlwGhmM04uVlapl0AiGswuJhVelAqIODnEyipwTUWOiU6gnKmBgKJeb2y2HXwcxV+6e6vV1PbLYdfBzFX7p7q9XUBwxvRfwpjl8TVDsXzxLFhYVZ1Bw4DQkUUxKKbbQUpkiCcyivjMO4ocwCGYAE/Z+E4WxbUtbsviLeN2mmEOEWfTrxAyqKII7RSIpN0Um6WRcxExUgMcw5nE45VDe2Ww6+DmKv3T3V6up7ZbDr4OYq/dPdXq6gI9v0XbRiLQse2rSvK67ckcPoU1vQ9xMFGR5Ll5yEIqirvtlG5wU2kjCOyAgZMokEo18uOi7bbB9akjh5iDeNiOLQhF4BkeGNHuhWarKEVUFcZFo6FRQx0wMKnYYREwiI51Je2Ww6+DmKv3T3V6up7ZbDr4OYq/dPdXq6gKPOdFXD+BLa6qc7czx6R/Js3b527ROu/Ulzgd45WySAoK6ky6ATKRMgdgEyAADS7LwRtSxZ2FuGIkJZZzBWqhaDYrlVMxDs0TgcpzgVMoiqIlDMQEC5f2QqlXl0jcPnHI9u3sUA2plsobcwsucmYBq7A1R4ah+SGYj5Aqxe2Ww6+DmKv3T3V6urWWCPqRHEzVaVlXtlsOvg5ir9091erqe2Ww6+DmKv3T3V6urIs1WlZV7ZbDr4OYq/dPdXq6ntlsOvg5ir9091erqA1WlZV7ZbDr4OYq/dPdXq6ntlsOvg5ir9091erqA1WlZV7ZbDr4OYq/dPdXq6ntlsOvg5ir9091erqA1WlZV7ZbDr4OYq/dPdXq6ntlsOvg5ir9091erqA1WlZV7ZbDr4OYq/dPdXq6ntlsOvg5ir9091erqA1WlZV7ZbDr4OYq/dPdXq6ntlsOvg5ir9091erqA1WlZV7ZbDr4OYq/dPdXq6ntlsOvg5ir9091erqA1WlZV7ZbDr4OYq/dPdXq6ntlsOvg5ir9091erqAt18+9/060/FVnrF5THOyrrmLXg4uExBQcuZ5oBDyWHdwRzcPde6XdMk0ifOY4VtFaywR9SI4mRNorM3FqQriPjDxzVWObHQZnDIzZMUyiVIQ85QyL9FIVZmrJT5G0YdqojIkI4VEMgdKcI3MCoecAIYifzpjXPAc35FHdYNrmnCI8dte44jQG5p7tWeXdSO5vxkpzLa4fiy8v0ePh9hLPV37299GVHfL58/fphXR62exwOVmZbrjm54w53R456dJ4AeCimVRsB0hHznEyZg/hDUtXQW5vz1ns7XK+Ec8Tn7viNaOzl3ad/Pv0136iVy62s6r2KUpUlClKUBHW2s8cW7FuJCNLHOlWSB12ZAyK2UEgCZIO4o5l+ipGo620Xje3YtvISRZF0kyQIu8IOZXKgEADKh3GHM301I1U8TqJjhRHLovDXEycEkikakZOiKsxHwllDHQEiodxAKoUf4oVI1DOuUdcIze3eactfcNl7jh91rvZ9+rYy/mqZrsrlu5sRvYqOttZ44t2LcSEaWOdKskDrsyBkVsoJAEyQdxRzL9FSNR1tovG9uxbeQkiyLpJkgRd4QcyuVAIAGVDuMOZvpriwv05j8iRpSlSUKUpQCqOxt237tXxBt26oOPmIp9NJJOmL9sRw3XIMYx8E6ZwEpg7hCrxVXtH9YL39PJf0xjWtHhnu5oid8d/JkdhFgrh5gVASFqYYw60TCyEotLcALtVdFssqQhVCogoYwppiKerbAdIGMbIAAcqvNKVkWKUpQClKUApSlAKUpQClKUApSlAKUpQClKUApSlAKUpQClKUApSlAVi+fe/6dafiqz1WL597/AKdafiqz1rPu4+pEcTFKUrIsUpSgFKUoBSlKAUpSgFKUoBSlKAUpSgFKUoCsXz73/TrT8VWeqxfPvf8ATrT8VWetZ93H1IjiZE2iizb2pCt4+TPItUo5sRB4cczOUwTKBVRHzmDI300hUWaUlPnbSZ3Si0iQ7hIRzBqpwjcoJB5gEhSKfOoNLRWZuLUhXEfGHjmqsc2OgzOGRmyYplEqQh5yhkX6KQqzNWSnyNow7VRGRIRwqIZA6U4RuYFQ84AQxE/nTGuyrtT629XHFVVHrYHKLM11xzg8mcjokc9IkzAfBWTMo2E6oh5yCVMofxRqWqJcrMy3XHNzxhzujxz06TwA8FFMqjYDpCPnOJkzB/CGpaolct3NlRvYpSlQUKUpQENZnKOp8F1f3eV8ta8Du+74faLt6s/LpyzqZqOttZ44t2LcSEaWOdKskDrsyBkVsoJAEyQdxRzL9FSNXSY3vJhhRHLrPC3EybkjSnanZOjqvBDwkVCnQAiQdxwMoYf4QVI1HLovDXEycEkikakZOiKsxHwllDHQEiodxAKoUf4oVI1yVy62sK9ioWzzwqdmQikEKoRJYtsZmKuesGwJF29Xlz0ZZ1NVG26o6d25GLSUWSPcrMkTOGRQ8FucUw1JAHmKOZforqwPeuYeJdZHmth0ob1n7wsG6HUAjbWHU+lcj4pyvk3jmRYsEBMmqumZAotT5kMcqaaimYDkcwD4NVZ307D3/hXeb+x1rbh7iY203uaJVhrlaTyjZso6TSFJ8kCQFavCgcupDJUgahyUMIVstu9FCwbcm4uQRuO6HsTBGlCxNvu3Lc0cxQkCiVy3IBUCrHTHUYS7ipzFzyAwF8GjPosWyjh9L4YyOJF/y0BIxqEMzbPpNAxYliioB00W5SIFIYQ0lLvLlWXEpQAyg1BRUTdNm1iYxHwqSbW0oVGfRtQxlrrQSmFZJRADgqSLBMTiyA5ipGX3AMBtWSRigBhqNv8ATXu63cPoiTxTjMO2NzXNcM80jAkLz5REJs2C5yH3nazTNM4GAEkyAmoKvYcxk8zFLvMZgNCwd/u74g73vCNaSMgWYf260kE0ot3IAgVHiVABLiBzIQmpEFgQMYoGMkJsxGut+ilbcYzRRt3Em94V5HS8jLQ0izUjhcxIPxMZ21RFRociiChjib9OVU5RABKcuQZAZXP9I+QxDvPD2Qt/EPEmzrRu2w1LkBtZ1pIXC94viiJ6VtEdICUhQE5dRQKQRAPC7QzucHjlK2liHipb7u3jSFvWI3jbgn7lk5EGz1VurDJG/Rsk2oFO41NQ1EMKBP0vYICXQOrQWD9uwF3w17N5efeSMHbY2uiaQkDOxXbCqRUVVlVQMsquJiBmcynbmOYZ9tQVtYWWpIX/AIwzsok4fBeThjCyjNY4cOZqjFoAAFAoAcBMDhQDDqHxFyyy7dIV2ZVZc0RKqtdbGUOd6XNxWVCO3184SIMZFxAN7ngWDG4RdccxUcooHIuoZsmDZyQXCQimAKJjqyBUchEPiT6Wl6W1PysXdWDce2Z29dUNbUu6ZXSLkxCyp0iMl26Zmie6IGWLupnMmBA9wdXyWZTok2PIQr2HuW87wnzLRzeFj3kg4acRExqK6axWjYUm5C6ROknqUVKoscCFAyg5BUvdHRqsW7XdwvJKWnkz3LPQVxOwQXRACOYk6R2xU80hyTMKBNYDmIgJtJi9mWZZz4IXrc14SuJja4pLi07evZ7ERpdlNPYaJooGIn4BQ1ZCcw6jZm7e0fFWIy/TlDD+0LCdy1vIu3N6OZ0hH90XI3imZOAdGJw/GpsitgcKFAdoixUExAmR19WQn2qDwGc2vek1dlsYzX1Fs7hmzT0jBJIwyrBZwcpCnLqVYHclIYqZQECrgIduQgNQst0TrUkcPm+GbHEK94uEKlItnyDdyyXSkmz1cyyyLhBy1VbmyMcdChEiLFDsBTtHMDmsTFLEy5+kfeVgSUHAt7OhLdiZFkqlJGUe7rrdHNQgIimbPQco6VhKUEyCXc3DaNqrObRwMtexL5C9rTmJlgmaAZW6tDlOgdis3ZgYGxza0hXKoQpzBmRUpRAfCKYQAQ0agFKUoBSlKAUpSgFKUoBSlKAUpSgFKUoBSlKAUpSgFKUoCsXz73/TrT8VWeqxfPvf9OtPxVZ61n3cfUiOJilKVkWKUpQClKUApSlAKUpQClKUApSlAKUpQClKUBWL597/AKdafiqz1WL597/p1p+KrPWs+7j6kRxM6EBzfkUd1g2uacIjx217jiNAbmnu1Z5d1I7m/GSnMtrh+LLy/R4+H2Es9Xfvb30ZVwWiizb2pCt4+TPItUo5sRB4cczOUwTKBVRHzmDI300hUWaUlPnbSZ3Si0iQ7hIRzBqpwjcoJB5gEhSKfOoNHfL48/bpBXR62e5zrc356z2drlfCOeJz93xGtHZy7tO/n36a79RLlFma645weTOR0SOekSZgPgrJmUbCdUQ85BKmUP4o1LVErl1tZ1XsUpSpKFKUoCOttF43t2LbyEkWRdJMkCLvCDmVyoBAAyodxhzN9NSNQ1mco6nwXV/d5Xy1rwO77vh9ou3qz8unLOpmrpMb3kwwohnXKOuEZvbvNOWvuGy9xw+613s+/VsZfzVM1HLrPC3EybkjSnanZOjqvBDwkVCnQAiQdxwMoYf4QVI0lct3NiN7FR1tovG9uxbeQkiyLpJkgRd4QcyuVAIAGVDuMOZvpqRqGszlHU+C6v7vK+WteB3fd8PtF29Wfl05Z0WB71zDxLrImaUpUFClKUArHQxntCyb7vmAmYa+nDkk03VFSJsOclW2RotiIADhm0VREfOUD5h5QCtiqr2j+sF7+nkv6YxrWjwy3c0RK+O/kyp+2YwtJ2uEL7ah53WHlwIAH0qMgr5HpT4AI/8A8SxKYRQB4xlkF48A+cXCZAD6a1alZFlOtjGbCC9jEJZmKtnzxlPcFjJxq6E3zAmcauNVq6cMsNr5TOleuHttXARQMjFlIlu7Awd4KENnVLP0arDigMrhvMXTh45//TNbMyqi1IPk/wCwLbrE2Xym4+bxUBrNKyAt7YkYSPmjTGJzHXBar1wkyQvCObC0VYrKHAqYSbXUYhEzGMUgOUTaAMIa00ijqrX6AUpSgFKUoBSlKAUpSgFKUoBSlKAUpSgFKUoBSlKAUpSgKxfPvf8ATrT8VWeqxfPvf9OtPxVZ61n3cfUiOJilKVkWKUpQClKUApSlAKUpQClKUApSlAKUpQClKUBWL597/p1p+KrPVYvn3v8Ap1p+KrPWs+7j6kRxMibRWZuLUhXEfGHjmqsc2OgzOGRmyYplEqQh5yhkX6KQqzNWSnyNow7VRGRIRwqIZA6U4RuYFQ84AQxE/nTGueA5vyKO6wbXNOER47a9xxGgNzT3as8u6kdzfjJTmW1w/Fl5fo8fD7CWerv3t76MqO+Xz5+/TCuj1s9jgcrMy3XHNzxhzujxz06TwA8FFMqjYDpCPnOJkzB/CGpaugtzfnrPZ2uV8I54nP3fEa0dnLu07+ffprv1Erl1tZ1XsUpSpKFKUoCOttZ44t2LcSEaWOdKskDrsyBkVsoJAEyQdxRzL9FSNR1tovG9uxbeQkiyLpJkgRd4QcyuVAIAGVDuMOZvpqRqp4nUTHCiOXReGuJk4JJFI1IydEVZiPhLKGOgJFQ7iAVQo/xQqRqGdco64Rm9u805a+4bL3HD7rXez79Wxl/NUzXZXLdzYjexUdbazxxbsW4kI0sc6VZIHXZkDIrZQSAJkg7ijmX6KkajrbReN7di28hJFkXSTJAi7wg5lcqAQAMqHcYczfTXFhfpzH5EjSlKkoUpSgFVe0f1gvf08l/TGNWivAfSz6cWJvQ2xvdB7HcPc9hXQ4ASgZdRq9LIIMWQLFKuGsgE2lW4gApCOYj21rR4Z7uaInfHfyZ78pWfYGYsPMaLCb3u+w0uyxjrq7ZY25GpUHChdshwWTAphEyRteRTGAhhEhvBAMhHQayLFKUoDNukm9jGWAGIXNmAP0XduvmBGWQCLxdwiZBFuUB7BMoqommXPynCrxbbOQjrdi4+WdC6fNWSCLlcRz3VSkADnzHx5mAR+msxvZUMTcZLew0Z5qQ9jKt7uuY4B4BnZRNypkI+ITbpTPDB2GJwrYR7FQz1+gFKUoBSlKAUpSgFKUoBSlKAUpSgFKUoBSlKAUpSgFKUoCsXz73/AE60/FVnqsXz73/TrT8VWetZ93H1IjiYpSlZFilKUApSlAKUpQClKUApSlAKUpQClKUApSlAVi+fe/6dafiqz1WL597/AKdafiqz1rPu4+pEcTIm0UWbe1IVvHyZ5FqlHNiIPDjmZymCZQKqI+cwZG+mkKizSkp87aTO6UWkSHcJCOYNVOEblBIPMAkKRT51BpaKzNxakK4j4w8c1Vjmx0GZwyM2TFMolSEPOUMi/RSFWZqyU+RtGHaqIyJCOFRDIHSnCNzAqHnACGIn86Y12VdqfW3q44qqo9bA5RZmuuOcHkzkdEjnpEmYD4KyZlGwnVEPOQSplD+KNS1RLlZmW645ueMOd0eOenSeAHgoplUbAdIR85xMmYP4Q1LVErlu5sqN7FKUqChSlKAhrM5R1Pgur+7yvlrXgd33fD7RdvVn5dOWdTNR1trPHFuxbiQjSxzpVkgddmQMitlBIAmSDuKOZfoqRq6TG95MMKI5dZ4W4mTckaU7U7J0dV4IeEioU6AESDuOBlDD/CCpGo5dF4a4mTgkkUjUjJ0RVmI+EsoY6AkVDuIBVCj/ABQqRrkrl1tYV7FQ1mco6nwXV/d5Xy1rwO77vh9ou3qz8unLOpmo621nji3YtxIRpY50qyQOuzIGRWygkATJB3FHMv0V1YHvXMPEusiRpSlQUKUpQCsVuvAnD/Gm7jyN8MVV1bEv5nckYCe3pO4TiWZQSVA5DakhExTGKGkRMmn25AIDtVVe0f1gvf08l/TGNa0eGe7miJ3x38mZ0lbd1dHMDHw+g5G6cNjKalLYZhuyFuAI9p40ojm4aBmIizz1ph/yNQZIBqFl3zaGIkElc1kXCymY1U5kt9spq21SjkdJQvuk1Cj2GTOAGKPYYAHsqdrPbtwKsO6J1S8GZZS2LnVKUqk7bj9SOeLgXPSVxt/o3RQz7CuCKFDyB2VkWaFWd4i4qHgpBOwLAYt7ixAkUtbSK3BBFgiPZxsgcvag2L3+GqIaEwMYeyKVwWv96grHSnSexJXj1UzpGIg1hGjgwGKIBm4RjyqFEM8wMmJDZgHblmA3KwcNLJwxilImy4MjIjlTeeOVFTuHb5bLLecuVTGWcKZdmtQ5jZAAZ5AFAcGGGHbTDW2zxQSa8tKSLtWUm5ZwUCrScgtlurmKHYQPBKQhA7E0yJkDsIFW6lKAUpSgFKUoBSlKAUpSgFKUoBSlKAUpSgFKUoBSlKAUpSgKxfPvf9OtPxVZ6rF8+9/060/FVnrWfdx9SI4mKUpWRYpSlAKUpQClKUApSlAKUpQClKUApSlAKUpQFYvn3v8Ap1p+KrPVYvn3v+nWn4qs9az7uPqRHEzoQHN+RR3WDa5pwiPHbXuOI0Buae7Vnl3Ujub8ZKcy2uH4svL9Hj4fYSz1d+9vfRlXBaKLNvakK3j5M8i1SjmxEHhxzM5TBMoFVEfOYMjfTSFRZpSU+dtJndKLSJDuEhHMGqnCNygkHmASFIp86g0d8vjz9ukFdHrZ7nOtzfnrPZ2uV8I54nP3fEa0dnLu07+ffprv1EuUWZrrjnB5M5HRI56RJmA+CsmZRsJ1RDzkEqZQ/ijUtUSuXW1nVexSlKkoUpSgI620Xje3YtvISRZF0kyQIu8IOZXKgEADKh3GHM301I1DWZyjqfBdX93lfLWvA7vu+H2i7erPy6cs6maukxveTDCiGdco64Rm9u805a+4bL3HD7rXez79Wxl/NUzUcus8LcTJuSNKdqdk6Oq8EPCRUKdACJB3HAyhh/hBUjSVy3c2I3sVHW2i8b27Ft5CSLIukmSBF3hBzK5UAgAZUO4w5m+mpGqpY0NGI2wwcQE3LqRT2LbAwTcKFHh24pF2xIGnMDaRL7oR7QrsUnB1+XM439yLXSoYbdWGILFdZZgDlU18YCqfED8kTaNOX8tdhaIUVfNHoTMimVqXSKBFCAkv3qBpzEfmEK5ZjmdreRI0qNRhlUXL5wM3JKA9AQKmdQgkb559qQacwHt8oj4q4Bt1YYgsV1lmAOVTXxgKp8QPyRNo05fy0sxzFbyJmqvaP6wXv6eS/pjGpdaIUVfNHoTMimVqXSKBFCAkv3qBpzEfmEKrdoRp+st+qc0e5LTCaQF1l0piMczNrL4PYYNWQZ5hkUvZ4xHSjSsy7dnNESbtR7NvJl1pUMNurDEFiusswByqa+MBVPiB+SJtGnL+WuwtEKKvmj0JmRTK1LpFAihASX71A05iPzCFZ2Y5l1vIkaVGowyqLl84GbklAegIFTOoQSN88+1INOYD2+UR8VcA26sMQWK6yzAHKpr4wFU+IH5Im0acv5aWY5it5EzSo5aIUVfNHoTMimVqXSKBFCAkv3qBpzEfmEK/EYZVFy+cDNySgPQECpnUIJG+efakGnMB7fKI+KuVLMVvIkqVDDbqwxBYrrLMAcqmvjAVT4gfkibRpy/lrsLRCir5o9CZkUytS6RQIoQEl+9QNOYj8whXbMcxW8iRpUajDKouXzgZuSUB6AgVM6hBI3zz7Ug05gPb5RHxVwDbqwxBYrrLMAcqmvjAVT4gfkibRpy/lpZjmK3kTNKjlohRV80ehMyKZWpdIoEUICS/eoGnMR+YQr8RhlUXL5wM3JKA9AQKmdQgkb559qQacwHt8oj4q5UsxW8iSpUMNurDEFiusswByqa+MBVPiB+SJtGnL+WuwtEKKvmj0JmRTK1LpFAihASX71A05iPzCFdsxzFbyJGlRqMMqi5fOBm5JQHoCBUzqEEjfPPtSDTmA9vlEfFXANurDEFiusswByqa+MBVPiB+SJtGnL+WlmOYreRM0qOWiFFXzR6EzIplal0igRQgJL96gacxH5hCvxGGVRcvnAzckoD0BAqZ1CCRvnn2pBpzAe3yiPirlSzFbyJKlQw26sMQWK6yzAHKpr4wFU+IH5Im0acv5a7C0Qoq+aPQmZFMrUukUCKEBJfvUDTmI/MIV2zHMVvIkaVGowyqLl84GbklAegIFTOoQSN88+1INOYD2+UR8VcA26sMQWK6yzAHKpr4wFU+IH5Im0acv5aWY5it5EzSo5aIUVfNHoTMimVqXSKBFCAkv3qBpzEfmEK/EYZVFy+cDNySgPQECpnUIJG+efakGnMB7fKI+KuVLMVvIkqVDDbqwxBYrrLMAcqmvjAVT4gfkibRpy/lrsLRCir5o9CZkUytS6RQIoQEl+9QNOYj8whXbMcxW8iJvn3v+nWn4qs9Ua84ZVFzGOBm5JQHs41AqZ1CCRvnr7Ug05gPb5RHxVYBt1YYgsV1lmAOVTXxgKp8QPyRNo05fy1rKMbEe0iLdp9hM0qOWiFFXzR6EzIplal0igRQgJL96gacxH5hCvxGGVRcvnAzckoD0BAqZ1CCRvnn2pBpzAe3yiPirGpZl1vIkqVDDbqwxBYrrLMgcqmvjAVT4gfkibRpy/lrsLRCir5o9CZkUytS6RQIoQEl+9QNOYj8whXbMcxW8iRpUajDKouXzgZuSUB6AgVM6hBI3zz7Ug05gPb5RHxVwDbqwxBYrrLMAcqmvjAVT4gfkibRpy/lpZjmK3kTNKjlohRV80ehMyKZWpdIoEUICS/eoGnMR+YQr8RhlUXL5wM3JKA9AQKmdQgkb559qQacwHt8oj4q5UsxW8iSpUMNurDEFiusswByqa+MBVPiB+SJtGnL+WuwtEKKvmj0JmRTK1LpFAihASX71A05iPzCFdsxzFbyJGlRqMMqi5fOBm5JQHoCBUzqEEjfPPtSDTmA9vlEfFXANurDEFiusswByqa+MBVPiB+SJtGnL+WlmOYreRM0qOWiFFXzR6EzIplal0igRQgJL96gacxH5hCvxGGVRcvnAzckoD0BAqZ1CCRvnn2pBpzAe3yiPirlSzFbyJKlQw26sMQWK6yzAHKpr4wFU+IH5Im0acv5a7C0Qoq+aPQmZFMrUukUCKEBJfvUDTmI/MIV2zHMVvIkaVGowyqLl84GbklAegIFTOoQSN88+1INOYD2+UR8VcA26sMQWK6yzAHKpr4wFU+IH5Im0acv5aWY5it5HRvn3v8Ap1p+KrPVLvqNOL213nNHoAhMNExQA5dtQczeEYNOYm+YQDuqxIwyqLl84GbklAegIFTOoQSN88+1INOYD2+UR8VaSS1ce3P9kRbtvsOO0Vmbi1IVxHxh45qrHNjoMzhkZsmKZRKkIecoZF+ikKszVkp8jaMO1URkSEcKiGQOlOEbmBUPOAEMRP50xr4s9jMx1sxza4nyruU4dMz1RQ4G/TiUBUKUQAPBA2YB3ZeOu1Hc34yU5ltcPxZeX6PHw+wlnq797e+jKplValU/fz9+mdjXVGvrsOByszLdcc3PGHO6PHPTpPADwUUyqNgOkI+c4mTMH8Ialq6C3N+es9na5Xwjnic/d8RrR2cu7Tv59+mu/USuXW1lK9ilKVJQpSlAR1trPHFuxbiQjSxzpVkgddmQMitlBIAmSDuKOZfoqRqOttF43t2LbyEkWRdJMkCLvCDmVyoBAAyodxhzN9NSNVPE6iY4URy6Lw1xMnBJIpGpGToirMR8JZQx0BIqHcQCqFH+KFSNQzrlHXCM3t3mnLX3DZe44fda72ffq2Mv5qma7K5bubEb2KjrbWeOLdi3EhGljnSrJA67MgZFbKCQBMkHcUcy/RUjUdbaLxvbsW3kJIsi6SZIEXeEHMrlQCABlQ7jDmb6a4sL9OY/IkaUpUlClKUAqr2j+sF7+nkv6Yxq0VV7R/WC9/TyX9MY1rR4Z7uaInfHfyZaKUpWRYpSlAKUpQClKUApXwqqkgkdddQqaaZROc5xAClKAZiIiPiCsytvpNYIXXCzNxQ97aY2BYpybtw9jXbIp2SgmBN0hvpEFygcSmAiqOshxyAoiIgAgahSs3Y9IbCiSth1dbKalFUGUgES4YBb0iEsm9EgKA3GMFDjdwUzAoBdnMUx1hmTwq6jfpOYKvhtpOMuh/IOLvbOHcO1YwEi6crpt1k0XGpFJAyiJklFiAoVQpTEDWYwAUhxKBqdKyiR6S2GBSXIyt+UXk5e34uRk02yjB20bSIMgEFytXiiIIOdB8iHFAymgR8IOzKq246XlluMH7ixGtyMXfzltW02uN1b7sjpgB01yZp7TlZuBV0RMBi76JFCZlHy9lAb3SsVgOkDNRdzyFq41WbD2kuhbxLnZuoadXmmzppvAicg6mbdUq4KGTAEypn17gAURHwamkuktg0raj28QuV+RpHSxIF0zVgZFOUTkj6RI1GOMgDwVTAchikBHMxTAYAEvbQGoUrLT9JvBULbLdTe6Xr1mpKOoVNFjBSDp6o9bAIuUis0kDODbQAO4IJiUmQ6hDKtBt24oK7oGPui2JZtJxEs2TeMnjZQDpOETlAxDlMHjAQEBoDFgxTv+3XlxLtUlLweyt/qWpBxL12hHM44hWm4Ud5FqdUSCYphUMcFTAAiJQ7AIP636Rd8zEfGsbbwjYvLp25dzNRi9zAi2ZoxroWy3DuQbHM5OopltFMiiUwahOdIQyGyW1hTLhccw8uwGabJveh7sgVo5+ZRVbca7Jk3SSiBQT06j5AmofV4I6i5CUeKZ6OVvSBEjw183fbjwriVOu9inLYFnLaRXFd00OCyChASFTSJTkKVYmgNKoCJhMBw4PYoXfiRf91rKsmKdmBFQcnb5uLMLwCu25lTAsjw5QII+X9MpkJQy90OXYUxsmk3Fw3KSx2y+H1tjJN3s4lNF44jliUwr5sTpFJsa0zplUBwJxOAZpAQROFltDCyAsW4Xc1bL5+1ZOolhEBD5oiyRIzKYiKhB294D6DaBzVEggUB0gbMwxB8C4NWdlHi133Ua35gzxd1ahXiScUdw6IJHCwiRIrkwmAxx2zLmRAxxOCYGApgApbzpJX5CNzMLjwaboXE8UhlIlgyuTiG7lnJOgbEUVcGbEFFVI4iKqZU1CgXISKKZiAQtzYwYz3C/tCLjohlaB0rnlIu6eXT6Lo4ixamcAm2O5jFCrIqkABEwkQVAcigJcxOF+hOjhbkasD2Zva7rkkEnMYo2fSzlqZZs1YLbzZmTZQTIKQH1CYximWPq8JU2RcpxTBe11ZIZQz+V3RmH83kCqenfdtBaqF9xnoAgiJQzzA3aIiHZQGbsukndqNtP55DDksrGW9BQr527XnQI+eOpBJAyaSaJGhUTCG6bWfUmGYE0kyOOiVjcfMQCXV1funCiJjmrK5ELZlHrO6DO9pdyiRZqo3TM0TFYglUICusUhTMORAWDMQs7LAOz2FsyVqIyUyLSUQiW6xzLJbhSx5EiIiUdvIBMCJdeYDmIjlp7MpJ3hFbTyUfS6r2SBaQuJlcypQUT0A6aoppJkANGe2JUiiYBETCIjkYPEAHn9fps2NdNwt2Jz2waNZLuZlryq627+WTQYCbeLIR4EIZioYo6kw3FQEAEDimbwRmZXFPHGTuCVGWEbHbs4q2ZlkyjHbOUTXI6lVUVk1VV2oHAx0dsqhClACCAbSpvCMNvmcDIaBXjWit5XVJ225kQj2lrvHaIRce3cCYVU0ypJEVVDLMpeIVW2yiIJ6AHKuOV6PMxEx66tsXdLXRLyPJ4tw4uuWIkRpFMn3ElBErVpkdUoGOUNRQMpmXcVEQ1VrLBH1IjiZulKUrIsUpSgFKUoBSlKAUpSgFKUoBSlKAUpSgFKUoCsXz73/TrT8VWeqxfPvf9OtPxVZ61n3cfUiOJkTaKLNvakK3j5M8i1SjmxEHhxzM5TBMoFVEfOYMjfTSFRZpSU+dtJndKLSJDuEhHMGqnCNygkHmASFIp86g0tFZm4tSFcR8YeOaqxzY6DM4ZGbJimUSpCHnKGRfopCrM1ZKfI2jDtVEZEhHCohkDpThG5gVDzgBDET+dMa7Ku1Prb1ccVVUetgcoszXXHODyZyOiRz0iTMB8FZMyjYTqiHnIJUyh/FGpaolyszLdcc3PGHO6PHPTpPADwUUyqNgOkI+c4mTMH8IalqiVy3c2VG9ilKVBQpSlAQ1mco6nwXV/d5Xy1rwO77vh9ou3qz8unLOpmo621nji3YtxIRpY50qyQOuzIGRWygkATJB3FHMv0VI1dJje8mGFEcus8LcTJuSNKdqdk6Oq8EPCRUKdACJB3HAyhh/hBUjUcui8NcTJwSSKRqRk6IqzEfCWUMdASKh3EAqhR/ihUjXJXLrawr2KhrM5R1Pgur+7yvlrXgd33fD7RdvVn5dOWdTNR1trPHFuxbiQjSxzpVkgddmQMitlBIAmSDuKOZforqwPeuYeJdZEjSlKgoUpSgFVe0f1gvf08l/TGNWisiujGrCrA4t83VivfMXbceE6TbF2r+lcCWLYiJUUS5qLGAO3SmUw5duVa0eGe7miJ3x38ma7Ssy6PePEF0jrDVxMtK3ZmMt5aTcsYlxKJppnk0EdJDOkyEMbSmKu6mAGEDZpCIgGeVabWRYpSlAKUpQClKUBwPkDOmThqTZ1LJHTDeT3E8xAQ8IgCGovnDMMw7Mwrxdb3Qcv9rZ962GlNxlm2zMRjUkZbcFdMq/iCyqL0XQvkk3KZFosqohpOigqrlrzA4iQuftilAeTh6MmKqFqKqsG9ukkpK6kZectt1fdwSDKdjU2ZmwM38q9Ks4XDUJVBIVsmkYpCJHIcAE5u1gH0Wr/wAMbpsKauFxaKDO1Ya7Ity0hFlwTKMnJN3LYG5DIkAqZEkTFMURDQOkC6w8KvU9KA892rhDjdb+HEzgio7so1ppREvHRUoLp2rJPhcioLYF0toqbQE9wQOYp3IqZAIAnVbu3op33PWtM2+xlreRNI4TsLDSzcrplI+RWE51MypZlRyHsMHh5/2Q8deqKUBg11dGVGOw3uGOwjl5aNveZZs2p5uVu2WdOVUUFSqCzCQWVWdNEDhuF/QZadwTAURCsOlcAcRcErdf4isbBt7jk8UY28422bNbvpBi0QFkmyWSWBFlxIgGR1DLoNVT6jaxSANWXuqlAeHbT6O2KWIVqRuJisWowuFK7rolkoZ5Pzdog5YyRwAhxXaF45uJRSIYE1EgFQoiBypiIAX1thPY5cNsNrcsQpGRTQsek1UBkZyLfcAMz7YuVll9GoRy3FTmyyzMNWylAKUpQClKUApSlAKUpQFYvn3v+nWn4qs9Vi+fe/6dafiqz1rPu4+pEcTFKUrIsUpSgFKUoBSlKAUpSgFKUoBSlKAUpSgFKUoCsXz73/TrT8VWeqxfPvf9OtPxVZ61n3cfUiOJnQgOb8ijusG1zThEeO2vccRoDc092rPLupHc34yU5ltcPxZeX6PHw+wlnq797e+jKuC0UWbe1IVvHyZ5FqlHNiIPDjmZymCZQKqI+cwZG+mkKizSkp87aTO6UWkSHcJCOYNVOEblBIPMAkKRT51Bo75fHn7dIK6PWz3Odbm/PWeztcr4RzxOfu+I1o7OXdp38+/TXfqJcoszXXHODyZyOiRz0iTMB8FZMyjYTqiHnIJUyh/FGpaolcutrOq9ilKVJQpSlAR1tovG9uxbeQkiyLpJkgRd4QcyuVAIAGVDuMOZvpqRqGszlHU+C6v7vK+WteB3fd8PtF29Wfl05Z1M1dJje8mGFEM65R1wjN7d5py19w2XuOH3Wu9n36tjL+apmomQdSDeZblawnFo8veKmXKJQOVUp0NtAomEADcAxx7RAP0QZ1xGmp4Ioj4tnPTOjK6BZcU3BQpMh8MTa9GWYeIDCPaHfVOLkl8rNnE0m/jcTdRyNt263ePJBvAxyTqRLoeLkakKo5L5lDAGZw+fOuNWTmSP2jVO21lEFyEMu5BykBG5hz1FEBNqMIZeMoCA5h318pSs4dZ+Q9rrJptSqC2OLpIeLMAjpAoAPgasvGbLLPtrijJLsfug3F3r2PnqZZ/KOr/VSG5XubvA8Clw+vx6tvTpz78q7C1t264eM5BxAxyrqOLoZrnakMo2L5kzCGZA+bKuoaYuMIojwtnqmdmW0Cz41EDFTyHwxPnp8fZkA59tc6sjOEftG6duGUbrJkM4ccWmANzDnqLp8ZsuztDx51X/AGeLPbx2/wCzn2ZexyI23brd48kG8DHJOpEuh4uRqQqjkvmUMAZnD5866/Uyz+UdX+qkNyvc3eB4FLh9fj1benTn35V9JSU+dZ+RS2ttNuVQWhxeEHijAI6QyD3Grs7R8WdcRpW6AiiuiWmUXoraDNBkCABU8h8PcyyHtyDLLy0/7PF7r5/0Psy9jtrW3brh4zkHEDHKuo4uhmudqQyjYvmTMIZkD5sqwfFTooYM9JZW74vEWDcJPY+fIpGy8W5Fq9YqmjWRtxMwZlMOoxjZKFOXMwjlmOdborIT5X7RBK3iHarJkM4XF4UBQMOeoujLw8uztAQzzqt2i9m+sV/lCETyTmAOgPFhkqoEezAhB8HwdRQIbV25ahDIcsx0o7dmXbsz80TKzaj2bcvJmZdHrof2lhHby0ZiEytXEOcZv3ARV1SVuN+cDGKAUxG7pwprUVOQ5ligbXkJNsAAoBpDRUOjxgA1YvoxtgZh8kzlDCd83TtlkVJ0YfGKpQTyOPeYBqymkrs5UVyS1mwvxW0GamkgAgJ5D4YKAmOY55Bp0h5e3z9hV7cBX7RJGCbnZqplM5WM+0nQOOeZQJoED5dnbqDPMfN25vWeLPbx2/7K+zL2Kkv0eMAHTFjGOcDMPlWcWYDsW6lssjJNTB4hSKKeRB7ygFdj2CsEOd9ZfYbsfnG3s8w6vNOJ2/Fo3dvVp7s8qsiL24zLvyLwTRNJEpxZHK/EwuBDPSBw2w28+ztATZZj5u3iM+u7lJXBLcjhkhV0mamlDAkCfb4QKgiIiPi7NAeXt87/ALPFlt/v+h9mXsVhDo8YANWL6MbYGYfJM5QwnfN07ZZFSdGHxiqUE8jj3mAaL9HjAB0xYxjnAzD5VnFmA7FupbLIyTUweIUiinkQe8oBVvVc3AD9okhEMjslCALpY74xVUTduYETBIQOHi7ROXxj2dnb+IubjMu+K4iI9NFMB4E5ZA5jLj25bhdkNrPs8QnyzHx5dvPvqv8Ac79td3sVn2CsEOd9ZfYcsfnG3s8w6vNOJ2/Fo3dvVp7s8q66HR4wAasX0Y2wMw+SZyhhO+bp2yyKk6MPjFUoJ5HHvMA1aDOrw5QVYkFDjKCpkZsMqqDcCdvhAtw+oR8XZth5e3z9hZa4QkGqbeOjjsTkzdLHenKqmbt7CJgkIHDxdonL81K6TxZ7eO3/AGc+zL2Kev0eMAHTFjGOcDMPlWcWYDsW6lssjJNTB4hSKKeRB7ygFdj2CsEOd9ZfYbsfnG3s8w6vNOJ2/Fo3dvVp7s8qsqS1zGXflXjowiJCm4ExHqhjLG7dO6ApACYeLPSJ/GPm7eEy958pIqSLheZirkdEX6uwCfb2gps6hN4uzQAdo9vZ29+/xZbev4Pty9isIdHjABqxfRjbAzD5JnKGE75unbLIqTow+MVSgnkce8wDRfo8YAOmLGMc4GYfKs4swHYt1LZZGSamDxCkUU8iD3lAKtyylzA/aEQaRhmRiFF2odwoCpD9uYJkAggYPFkImDy9nn+ElLrFZ+CzSJKkUp+AErhQTKG7dG6AkACB4s9Orxjl4u3n31Yvc79td3sVz2CsEOd9ZfYbsfnG3s8w6vNOJ2/Fo3dvVp7s8q66HR4wAasX0Y2wMw+SZyhhO+bp2yyKk6MPjFUoJ5HHvMA1ZTKXtyohyNITmQreGmLlbYBLIe0DaNQmzy7NIBkI+bt51TXTx7QqKUULIUycWcyigKgft1bZQLkIeLLMc/HXa5+LPac+3L2Kmv0eMAHTFjGOcDMPlWcWYDsW6lssjJNTB4hSKKeRB7ygFdj2CsEOd9ZfYbsfnG3s8w6vNOJ2/Fo3dvVp7s8qsSRrtFaQ30ogEgKpwGhRUTGNmOjdzDIAyyz05+XKuIw3tyogkJB8y3vCATLbG1kPiHLVqzy7ss6Vz8XuPty9itIdHjABqxfRjbAzD5JnKGE75unbLIqTow+MVSgnkce8wDRfo8YAOmLGMc4GYfKs4swHYt1LZZGSamDxCkUU8iD3lAKtivWnj2mzyrgtsnF6tzd19urby7MvFln318pBdm8/3zRG0JVOA0lV1AbMdG7mOQhllnpy8uVc+6rF7jsruK77BWCHO+svsN2Pzjb2eYdXmnE7fi0bu3q092eVddDo8YANWL6MbYGYfJM5QwnfN07ZZFSdGHxiqUE8jj3mAaspi3sMUQCLQYSW94ZhTWFAUsh8QagNqzy8uWWdc6pbpF+0MirFAyBMnFkMmoKon7dW2YDZAHiyzAR8ddrl4s9vV4+3wlTX6PGADpixjHOBmHyrOLMB2LdS2WRkmpg8QpFFPIg95QCux7BWCHO+svsN2Pzjb2eYdXmnE7fi0bu3q092eVWJIl2As/33MSKRin4DQgqBiGzHRu5nyMGWWenT4hy8fZxmSvQYopCP4QskC2ZlRaKmQFLIewCbgGA2eXbqEOwezt7FcvFltfXYKl4SsodHjABqxfRjbAzD5JnKGE75unbLIqTow+MVSgnkce8wDRfo8YAOmLGMc4GYfKs4swHYt1LZZGSamDxCkUU8iD3lAKtqqdzC/aHRdxhWRSF4tIzZQypz9uYpnA4AUPFkAlHxD9H4ildALvxcP4syJym4ECNFCmSHt07oioIKB4s9IE8Q+fs5XKrF++vM7Uq7it+wVghzvrL7Ddj8429nmHV5pxO34tG7t6tPdnlXXQ6PGADVi+jG2BmHyTOUMJ3zdO2WRUnRh8YqlBPI495gGrOZveQxJUiTEMWUBTMy4xqooCn29gJb4GA3i7dYh2D2dvZ2VUbhNINVEJKOIxITJ0idkcyqhu3tIoCoAQPF2CQ3l7fMcpeLPPrt/wBnKl4f112GbXNgtg5C9T+T4TWYw5VONgYcNAtUuEAQMA7WkgbeYdg6cq0HqZZ/KOr/AFUhuV7m7wPApcPr8erb06c+/Kq/ebe5AXjTOJaNOipONeBISPUKZAfDyFUwrCCvk9yCfiHxZ9lgMzu8YgiBZ+JLJgpmdzypQUBJ2+CCPEagHxdu4PiHs7ezWTdiP3/vrs/0QkrT+39HYWtu3XDxnIOIGOVdRxdDNc7UhlGxfMmYQzIHzZURty3m7x5IN4GOSdSJRK8XI1IVRyXzKGAMzh8+dfiza4DSDVVCXZpskyADlAzExlFTduYkU3AAgeLsEpvF4/N8JM7kKu/OvOMjpKlMDIhWAlFuI56ROO6O7l2eICZ5D5+zKt1Yv315mlSrw/o4+pln8o6v9VIble5u8DwKXD6/Hq29OnPvyrsLW3brh4zkHEDHKuo4uhmudqQyjYvmTMIZkD5sq6po+7RiSNy3KxLIgrqO65YIpCnkPgAlu5gPi7dY+Iezt7OdVlcBn7RZGdQIzSIUHKAstR1jhnmYD68iAPZ2aRyyHt7eztb8eefxt/2cqXh/XXYfaNt263ePJBvAxyTqRLoeLkakKo5L5lDAGZw+fOuv1Ms/lHV/qpDcr3N3geBS4fX49W3p059+VfSTC5CrPzrXC3OmsU4MiFYAXhhER0iYdY7mns7PBz7fo4jRl1DFEbFupAr4FtZnXLiiUU8hDQCevs7chzzHxUrfj/fxsFS8P6O2tbduuHjOQcQMcq6ji6Ga52pDKNi+ZMwhmQPmyojbdut3jyQbwMck6kS6Hi5GpCqOS+ZQwBmcPnzrjVj58z9oulcJCNUUyFcIcGURXMGeo2vPwM+zsAOzKvlKOuEqz86tyFOm4KoDQgMiBwoiI6Rzz/Saezx5Z5Vyt1Yv38ep2peH9Hz1Ms/lHV/qpDcr3N3geBS4fX49W3p059+Vdha27dcPGcg4gY5V1HF0M1ztSGUbF8yZhDMgfNlXUNE3MaKI0C7RK9BbWZ2DBPwk8h8DRnkHbkOfj7K51Y6cO/aOE7jMm3RTIVw34RMQXMGeo2oe0ueYdgeLKu1vx55/G3/ZypeH9ddhyI23brd48kG8DHJOpEuh4uRqQqjkvmUMAZnD5866/Uyz+UdX+qkNyvc3eB4FLh9fj1benTn35V9JRc6RZ+dW51FE3JVAak4RIOEERHSIDl4en5WeeXbXEaGuI0URkF4uCuyrbgvCs0NRiZD4AkEol8Y55gGfZSt+P9/GwVLw/o7a1t264eM5BxAxyrqOLoZrnakMo2L5kzCGZA+bKiNt263ePJBvAxyTqRLoeLkakKo5L5lDAGZw+fOuNWMmTv2jolyLJoIJkKu2BskJHBgz1GERLqLnmHYUQAMg76/EYqYTWfqKXQ6VTdFODdMW6AA0Ec9IkECZmyz/ALerPIM/Lnyt1Yv315nal4f0fHUyz+UdX+qkNyvc3eB4FLh9fj1benTn35V2Frbt1w8ZyDiBjlXUcXQzXO1IZRsXzJmEMyB82VdU0JOGiSsAvJ+V0VXWL4rZtumJ2+AJRTFPLt8YFz7A7fHXYVjJNR+0dkuN4ki3IBVmpUUBTcG7czGESCcBHP8AsmAOwO+uuUvHnn12/wCzlS8P667D6Rtu3W7x5IN4GOSdSJdDxcjUhVHJfMoYAzOHz511+pln8o6v9VIble5u8DwKXD6/Hq29OnPvyrlRipJNd+qpcz9UjsDAgkZJuBWYjnkKYgmAmyz/AP1BP4g78+I0HKmiCxoXlLlclU1jIFRab5i9vgCUUBSy7fITPsDt8dLUvHln12CpeH9EJfUHCmd2s/NDsRcs5loi3WFuTcRT8LwCGyzKXsDsDs7Aqxo23brd48kG8DHJOpEuh4uRqQqjkvmUMAZnD586rl9x7oz+2HgTb0qSUw0TO1AqO0qbM3hmHb16v8pgL3VdKqcpKjj25/s5FJzfYcbdug0QTatUU0UUSAmmmmUClIUAyAoAHYAAHYABUbCrM1ZKfI2jDtVEZEhHCohkDpThG5gVDzgBDET+dMalq6EdzfjJTmW1w/Fl5fo8fD7CWerv3t76Mqyi+x9bS3ejgcrMy3XHNzxhzujxz06TwA8FFMqjYDpCPnOJkzB/CGpaugtzfnrPZ2uV8I54nP3fEa0dnLu07+ffprv1yVy62sK9ilKVJQpSlAR1trPHFuxbiQjSxzpVkgddmQMitlBIAmSDuKOZfoqRqOttF43t2LbyEkWRdJMkCLvCDmVyoBAAyodxhzN9NSNVPE6iY4URy6Lw1xMnBJIpGpGToirMR8JZQx0BIqHcQCqFH+KFSNQzrlHXCM3t3mnLX3DZe44fda72ffq2Mv5qma7K5bubEb2KUpUFClKUApSlAKq9o/rBe/p5L+mMatFVe0f1gvf08l/TGNa0eGe7miJ3x38mWilKVkWKUpQClKUApSlAKUpQClKUApSlAKUpQClKUBmt0YzNbNviYh7kYsWFrW9ANZqTnVXqplkjuXKiCKRGpEDayZpGEygqgJcy+AYBES8rfpA4VObZkbrJNySbWKkSRLpovAyCMkV6cCmTblYHQB2oocpymIUiRhOUdRcw7ao+JNoy95YpXZajSNdpc/tWD4R84jnIxphaSa6q6R3REjJEU0HJkmYwGNqzABADCEpdmEV8L3HMXtbDiDXk07pYXJEMn7tdBu5KjHAzVQcKppHMiJgMoYpykVABAgiUe0AAl4LpC2bdV+2zZlsN5ORbXPDPpVGSLGPU0252qyaR264HQAEFQMY4HIqZM6ZyAQxAMcoV0JbpGwsDiXdNnzcQtHwNnRbR3JTDhrJAqq6cn0oNmiBWQpuxOPghtLmUMcdBEjiBtPRw6whxAtS9IO9ZpW3V3Dss8tcCDR0sUjNaQcoOCEaZo/8AaCEFAExMpsibMVNIZ7YdrETCG8rhuC47qtt9DA9VUt5/EN3yyxElnMY4WWMi4MmQRTTUBQpQUKCglERNoNpApgLrbWLdgXcWL5HNqqKy53aTdu4YOWzgirUAFwksismVRuoTUXNNUpDdodlV6d6TOC9uNWL2Tud8LeQj05ZNRtBSDoqTE5zEB0uKKBuHRAxDAZRXQUng6hLqLnT2eEWMEXMtMSmadnLXU+nZCSlYk8i5Tj2yDtog1AqDsGwqLHSK1SPmdBMFRMcP0QZDXBA9Hi+Y/D+QtmTmIFzKPMNUbO4lIVSJGfFM5E6uQkESIiKxB7NRuwezsARAud69IizbYuVjZcOCs3NOZeOiXBEkXBGjUzswaQO8KidvvAQQU4fWCokEDaQKIGG2Ya3fJXvawTczCtop8k+fR7lq2emdokUbOVEDCRUySQnKIpagEUyj2+KsrfYP4ntbgXjow9sKWm6uaLu5y9Xeuhkk1m3Dgs0I2KgJDEHh9ZFd0B7dva8SgXzAziD2Iq7cRsixB7OTTxFGQYrM3GyrIuFEzGRWKVQmohimADFAchDsoCavn3v+nWn4qs9Vi+fe/wCnWn4qs9az7uPqRHExSlKyLFKUoBSlKAUpSgFKUoBSlKAUpSgFKUoBSlKArF8+9/060/FVnqsXz73/AE60/FVnrWfdx9SI4mKiYVFmlJT520md0otIkO4SEcwaqcI3KCQeYBIUinzqDUtUTCrM1ZKfI2jDtVEZEhHCohkDpThG5gVDzgBDET+dMamNz3c0dleg5RZmuuOcHkzkdEjnpEmYD4KyZlGwnVEPOQSplD+KNS1RLlZmW645ueMOd0eOenSeAHgoplUbAdIR85xMmYP4Q1LUlct3NiN7FKUqChSlKAhrM5R1Pgur+7yvlrXgd33fD7RdvVn5dOWdTNR1trPHFuxbiQjSxzpVkgddmQMitlBIAmSDuKOZfoqRq6TG95MMKI5dZ4W4mTckaU7U7J0dV4IeEioU6AESDuOBlDD/AAgqRqOXReGuJk4JJFI1IydEVZiPhLKGOgJFQ7iAVQo/xQqRrkrl1tYV7FKUqShSlKAUpSgFVe0f1gvf08l/TGNWiqvaP6wXv6eS/pjGtaPDPdzRE747+TLRSlKyLFKUoBSlKAUpSgFKUoBSlKAUpSgFKUoBSs26SOIVwYU4FXtiJarVJeWgolV013iAdNM/YG6cpjEASkAROICYoZFHMQDMQ8+R2LnSAbINLYkrommB3F72/EJyU4W23Mxwj1uc7hJdCKUVbJdpSnRMZMhxKYBHWADmB7MpXjWysWsbYy+LJaz2Kru4WEliVcGH7xo8iI9Erho0aO3CLs5m6CZwdAZApREgkREv/wClq8IYKLxlxRmbBtWcmcVTXUhiDG3dEysLwDBNFjwSDoxHKRm6RVinIKRElAUOYgioHgkHLMD3PSvEMDifiOywx4a3sQz2c0wxwpt+52bYjFmsSdWVbnMYjoXKRzcPmgVEAQOipqUMOvPTla5DHLF8cUI3B8JZRhNXxIQM9C5sUBUjoI7YysmhkdPI+2dsolrOAnKLpPMQHTQHrOleHrK6THSCdqyt+O4qTfxyyF3HLDP1IBFigaLMqVunHpoOeaKqEMkBHO+QwZnExQSDSFVm8b8xaxH6OOLNtYkSMq6i5aw4iYQVmFreK/brPFxKpsoRLg5gYnKUDImcpgpmRUDKHEMigf0HpX874nGHEjDjES6Yq5Gwyl+4O4UvmhnzpETN5RsL5E7J+bTpEwGQ0mVKGQgdNQAHxDVzxxuvFBhYGKWGyuNE/PIt7NibmRuBJrHN3jQ7l1sqMRFu2IkKCpCicuogK6ROG4cB7APW18+9/wBOtPxVZ68Kz2GvWPpSzicrhXYeIwRxLNbuJi8VUk36ACivqFJNOOVTMJ9ImMBRRLqKUADIcy3mcxmxTYTMpfTG6lxbw+JzKwErESYtOHcMlVkUTODqbJnfEba5nICRUEgTTABTy1GrSWCPqRHEz1jSvJNgY7YoS8hh1Hzd1gdxO4k3nBSKJmTYh1o5go+BqnpBMBKBCpN/DLkY3YJjG1DnX7Sx9xviIS1r0m7vUuc1zWrd780MpGtUkEnEWcTtVEjIIkW1GKGhQpjmKPjKUo9o5lntalfz7up7PSkZeU3cmJSl6Ppno9ryqjtVo0bikLhUxxTIRsQhQSARECagE+QDqOce0L4aBnsCejHfmK1o4FYSYZXDGWAq9jJ+0FU3j5wsRuChRcJqRbYuWYFOIGOqAm7BAfHQHsilebmEni4bGe17AWxnn3EY6sxa7X+iKiSuHTor1ECtiG4XSm30GOnlpFXSYB3dYaxpETjri8lb9o4grX0rJq4ix1xqL25y9mVC2zsmy6qarYxEQXHaOiRJUHJ1imMp2CTsAQPZFKzXo7ubwmMI7Zu2+b4fXLLXJEsZVwouzaNkmx1WyYnTQI3SIIJ6tRv0hlD5mHwtORQ0qgFKUoBSlKAUpSgFKUoBSlKArF8+9/060/FVnqsXz73/AE60/FVnrWfdx9SI4mK6EdzfjJTmW1w/Fl5fo8fD7CWerv3t76Mq79RMKizSkp87aTO6UWkSHcJCOYNVOEblBIPMAkKRT51BqI3PrajrvRzrc356z2drlfCOeJz93xGtHZy7tO/n36a79RLlFma645weTOR0SOekSZgPgrJmUbCdUQ85BKmUP4o1LUlcutrCvYpSlSUKUpQEdbaLxvbsW3kJIsi6SZIEXeEHMrlQCABlQ7jDmb6akahrM5R1Pgur+7yvlrXgd33fD7RdvVn5dOWdTNXSY3vJhhRDOuUdcIze3eactfcNl7jh91rvZ9+rYy/mqZqOXWeFuJk3JGlO1OydHVeCHhIqFOgBEg7jgZQw/wAIKkaSuW7mxG9ilKVBQpSlAKUpQCqvaP6wXv6eS/pjGrRWPqS+NzG971Rw+w9seai+cNzC5mbxdxbgFeWMtRdlKMcl0gGnI25mOY+CGWY60eGe7miJ3x38mbBSsq6x9Kf9zeFX3lyPqKnWPpT/ALm8KvvLkfUVZFmq0rKusfSn/c3hV95cj6ip1j6U/wC5vCr7y5H1FQGq0rKusfSn/c3hV95cj6ip1j6U/wC5vCr7y5H1FQGq0rKusfSn/c3hV95cj6ip1j6U/wC5vCr7y5H1FQGq0rKusfSn/c3hV95cj6ip1j6U/wC5vCr7y5H1FQGq0rKusfSn/c3hV95cj6ip1j6U/wC5vCr7y5H1FQGq0rKusfSn/c3hV95cj6ip1j6U/wC5vCr7y5H1FQGq0rKusfSn/c3hV95cj6ip1j6U/wC5vCr7y5H1FQGouG6DtBRq6QTWRWIZNRNQoGKcohkJRAewQEOwQGqzBYU4XWvDtLetnDa1oiKYPQk2jFjDt27du8DxOE0yEApFQ/bAAN31VOsfSn/c3hV95cj6ip1j6U/7m8KvvLkfUVAXYLAsUqzdynZkERZpILS7dUsciB0X6pDEVdEHTmVY5TnKZQPCMBjAIiAjVZw5wAwrwyigYQlqRzt4dmrHOZZ+xbKSDxooqdQW665UyiokAnEAIPg5ZdlR/WPpT/ubwq+8uR9RU6x9Kf8Ac3hV95cj6ioC2yOFmGMueBUlsObXentbSMEZxEN1BitOnTwomIOxlpLlo05aQ8wVHJYRwhsWxxklJmVlJhvGKREW2dA2BtFNlDEMuCG2iRUwqGTIJhVUUENORdICIDB9Y+lP+5vCr7y5H1FTrH0p/wBzeFX3lyPqKgLrF4eWBCXNJ3rC2Nb8fcM0UCScu1jEEnr0oZZAsuUoHVAMg90I+IK6UVhHhRBQ8rbsJhjacfFTq4uZRi1hWyTd+sOQioumUgFVN2B4RgEewKq/WPpT/ubwq+8uR9RU6x9Kf9zeFX3lyPqKgNBNa9smmxuU1uxgy4s+XDIC0T4kWmrVsbuWrb1dujPTn25VERWE2FcFbMlZUHhpakdb0yKgyUS0hmyLJ6KgaVN5ApAIpqDsNqAcw7Bqq9Y+lP8Aubwq+8uR9RU6x9Kf9zeFX3lyPqKgJOVsey7OLAEtG0ISDKMpGsxCNj0mwCggU5UUv0ZQ8BMoiBC+IoCIAAVYlMPbBVvJPEVWx7fPdaTfhE500YiMiRDtDaBzp3AJ2j4OrLtGsovK4ek6bkfE4QYXp5TLYU9vEeQPqP4WQDnBhkHf25eYasXWPpT/ALm8KvvLkfUVaywR9SI4mWxthVheyuZa9GeG9rIXC5ci8WlkoduV6quJBTFUy4E1mPoMYuoRz0mEM8hrvMLHsqKPHKRdnwjM0OVckcZvHopizKsOawIiUobYHHtMBctXlzqi9Y+lP+5vCr7y5H1FTrH0p/3N4VfeXI+oqyLLLGYN4QwqD9rDYV2ewRlUFmz9NrBtUiukVTalU1QKQAUKc3aYpswMPaOdRsL0duj9baUgjbuBeHsWnLtDx8gRlbDJArtqf3aCoESDcTNkGZDZlHLtCozrH0p/3N4VfeXI+oqdY+lP+5vCr7y5H1FQGikt2305VGdTg48kk3aCwReFakBdNqJgMKJVMtQJ6gAdADlmADl2VFMsMsN42Zm7jjsPraay1ypilNP0IlAjiTIIZCVyoBNSwD5jiIVT+sfSn/c3hV95cj6ip1j6U/7m8KvvLkfUVAaZHRsdDx7aJiGDdixZpFQbNmyRUkkUihkUhCFAAKUAAAAADIACuzWVdY+lP+5vCr7y5H1FTrH0p/3N4VfeXI+oqA1WlZV1j6U/7m8KvvLkfUVOsfSn/c3hV95cj6ioDVaVlXWPpT/ubwq+8uR9RU6x9Kf9zeFX3lyPqKgNVpWVdY+lP+5vCr7y5H1FTrH0p/3N4VfeXI+oqA1WlZV1j6U/7m8KvvLkfUVOsfSn/c3hV95cj6ioDVaVlXWPpT/ubwq+8uR9RVj3S+u/H6O6NV/yV4WdYVpR7KL4pOZhsUJNN8zeJqkO0MhphkhMoLkqBSk3EwOJgIJygYTAB6Pvn3v+nWn4qs9fz86EuJvTmv2It72xdkphZxZFqaNuCYT4GYcH7dBdgAzWT09u6chBHPVuKZ5V/QOtZ93H1IjiYqJhVmaslPkbRh2qiMiQjhUQyB0pwjcwKh5wAhiJ/OmNS1dCO5vxkpzLa4fiy8v0ePh9hLPV37299GVRG59bUdd6OByszLdcc3PGHO6PHPTpPADwUUyqNgOkI+c4mTMH8Ialq6C3N+es9na5Xwjnic/d8RrR2cu7Tv59+mu/SVy62sK9ilKVJQpSlAR1trPHFuxbiQjSxzpVkgddmQMitlBIAmSDuKOZfoqRqOttF43t2LbyEkWRdJMkCLvCDmVyoBAAyodxhzN9NSNVPE6iY4URy6Lw1xMnBJIpGpGToirMR8JZQx0BIqHcQCqFH+KFSNQzrlHXCM3t3mnLX3DZe44fda72ffq2Mv5qma7K5bubEb2KUpUFClKUApSlAKq9o/rBe/p5L+mMatFVe0f1gvf08l/TGNa0eGe7miJ3x38mWilKVkWKUpQClKUApSlAKUpQClKUApSlAKUpQClKUApSlAKUpQClKUApSlAVi+fe/wCnWn4qs9Vi+fe/6dafiqz1rPu4+pEcTFKUrIsUpSgFKUoBSlKAUpSgFKUoBSlKAUpSgFcLpo1epAg9bJOEwORQCKkA5dZDAYhsh8pTFKYB8ggAh2hXNSgKxfPvf9OtPxVZ6rF8+9/060/FVnrWfdx9SI4mKiYVFmlJT520md0otIkO4SEcwaqcI3KCQeYBIUinzqDUtUTCrM1ZKfI2jDtVEZEhHCohkDpThG5gVDzgBDET+dMamNz3c0dleg5RZmuuOcHkzkdEjnpEmYD4KyZlGwnVEPOQSplD+KNS1RLlZmW645ueMOd0eOenSeAHgoplUbAdIR85xMmYP4Q1LUlct3NiN7FKUqChSlKAhrM5R1Pgur+7yvlrXgd33fD7RdvVn5dOWdTNYta1+3W5xBxHtpWTLyy3GRjRbcjZIhWwlL2ZCBQEwBl4jCIVVfZexE9rn186w/8AHebcNxfCIf8AL15adGjR4vLpzr6T/wAfSzn2Ndrjn+SrWzieNaXCMe1PsT/+ex7eB6OWatXGfENklc0zJDrIBsyGy1F7fIOQZh5cgqL6mWfyjq/1UhuV7m7wPApcPr8erb06c+/KsxuTEK74/EbDWBaS+2xuBoRWRS4dId8wh2jqEuZf5RClt4hXfIYjYlQLuX3GNvtDqxyXDpBsGAOwdQFzN/MI1C0OmjC0pdlVd7zs8aynpFG5WWttXtWastbduuHjOQcQMcq6ji6Ga52pDKNi+ZMwhmQPmyojbdut3jyQbwMck6kS6Hi5GpCqOS+ZQwBmcPnzrz77L2Intc+vnWH/AI7zbhuL4RD/AJevLTo0aPF5dOdWy5MQrvj8RsNYFpL7bG4GhFZFLh0h3zCHaOoS5l/lEKt6BTpuNpdlpXv8e17OBC0qiaTqyezb2I07qZZ/KOr/AFUhuV7m7wPApcPr8erb06c+/KuwtbduuHjOQcQMcq6ji6Ga52pDKNi+ZMwhmQPmyrKbbxCu+QxGxKgXcvuMbfaHVjkuHSDYMAdg6gLmb+YRqp+y9iJ7XPr51h/47zbhuL4RD/l68tOjRo8Xl0511aDpEmlava2v8lXlxD0qiSrqury/F9VHoJG27dbvHkg3gY5J1Il0PFyNSFUcl8yhgDM4fPnXX6mWfyjq/wBVIble5u8DwKXD6/Hq29OnPvyrMbkxCu+PxGw1gWkvtsbgaEVkUuHSHfMIdo6hLmX+UQpbeIV3yGI2JUC7l9xjb7Q6sclw6QbBgDsHUBczfzCNR9JT2bdrZXe87PXkV9RRWrNW2r2rNWWtu3XDxnIOIGOVdRxdDNc7UhlGxfMmYQzIHzZURtu3W7x5IN4GOSdSJdDxcjUhVHJfMoYAzOHz51599l7ET2ufXzrD/wAd5tw3F8Ih/wAvXlp0aNHi8unOrZcmIV3x+I2GsC0l9tjcDQisilw6Q75hDtHUJcy/yiFU9Ap03G0uy0r3+Pa9nAlaVRNJ1ZPZt7Ead1Ms/lHV/qpDcr3N3geBS4fX49W3p059+Vdha27dcPGcg4gY5V1HF0M1ztSGUbF8yZhDMgfNlWU23iFd8hiNiVAu5fcY2+0OrHJcOkGwYA7B1AXM38wjVT9l7ET2ufXzrD/x3m3DcXwiH/L15adGjR4vLpzrq0HSJNK1e1tf5KvLiHpVElXVdXl+L6qPQSNt263ePJBvAxyTqRLoeLkakKo5L5lDAGZw+fOuv1Ms/lHV/qpDcr3N3geBS4fX49W3p059+VZjcmIV3x+I2GsC0l9tjcDQisilw6Q75hDtHUJcy/yiFLbxCu+QxGxKgXcvuMbfaHVjkuHSDYMAdg6gLmb+YRqPpKezbtbK73nZ68ivqKK1Zq21e1Zqy1t264eM5BxAxyrqOLoZrnakMo2L5kzCGZA+bKiNt263ePJBvAxyTqRLoeLkakKo5L5lDAGZw+fOvPvsvYie1z6+dYf+O824bi+EQ/5evLTo0aPF5dOdWy5MQrvj8RsNYFpL7bG4GhFZFLh0h3zCHaOoS5l/lEKp6BTpuNpdlpXv8e17OBK0qiaTqyezb2I07qZZ/KOr/VSG5XubvA8Clw+vx6tvTpz78q7C1t264eM5BxAxyrqOLoZrnakMo2L5kzCGZA+bKsptvEK75DEbEqBdy+4xt9odWOS4dINgwB2DqAuZv5hGqn7L2Intc+vnWH/jvNuG4vhEP+Xry06NGjxeXTnXVoOkSaVq9ra/yVeXEPSqJKuq6vL8X1Uegkbbt1u8eSDeBjknUiXQ8XI1IVRyXzKGAMzh8+ddfqZZ/KOr/VSG5XubvA8Clw+vx6tvTpz78qzG5MQrvj8RsNYFpL7bG4GhFZFLh0h3zCHaOoS5l/lEKW3iFd8hiNiVAu5fcY2+0OrHJcOkGwYA7B1AXM38wjUfSU9m3a2V3vOz15FfUUVqzVtq9qzVlrbt1w8ZyDiBjlXUcXQzXO1IZRsXzJmEMyB82VEbbt1u8eSDeBjknUiXQ8XI1IVRyXzKGAMzh8+deffZexE9rn186w/8d5tw3F8Ih/y9eWnRo0eLy6c6tlyYhXfH4jYawLSX22NwNCKyKXDpDvmEO0dQlzL/ACiFU9Ap03G0uy0r3+Pa9nAlaVRNJ1ZPZt7Ead1Ms/lHV/qpDcr3N3geBS4fX49W3p059+Vdha27dcPGcg4gY5V1HF0M1ztSGUbF8yZhDMgfNlWU23iFd8hiNiVAu5fcY2+0OrHJcOkGwYA7B1AXM38wjVT9l7ET2ufXzrD/AMd5tw3F8Ih/y9eWnRo0eLy6c66tB0iTStXtbX+Sry4h6VRJV1XV5fi+qj0Ejbdut3jyQbwMck6kS6Hi5GpCqOS+ZQwBmcPnzrr9TLP5R1f6qQ3K9zd4HgUuH1+PVt6dOfflWY3JiFd8fiNhrAtJfbY3A0IrIpcOkO+YQ7R1CXMv8ohS28QrvkMRsSoF3L7jG32h1Y5Lh0g2DAHYOoC5m/mEaj6Sns27Wyu952evIr6iitWattXtWastbduuHjOQcQMcq6ji6Ga52pDKNi+ZMwhmQPmyojbdut3jyQbwMck6kS6Hi5GpCqOS+ZQwBmcPnzrz77L2Intc+vnWH/jvNuG4vhEP+Xry06NGjxeXTnVsuTEK74/EbDWBaS+2xuBoRWRS4dId8wh2jqEuZf5RCqegU6bjaXZaV7/HtezgStKon21ZPZt7Ead1Ms/lHV/qpDcr3N3geBS4fX49W3p059+Vdha27dcPGcg4gY5V1HF0M1ztSGUbF8yZhDMgfNlWU23iFd8hiNiVAu5fcY2+0OrHJcOkGwYA7B1AXM38wjVT9l7ET2ufXzrD/wAd5tw3F8Ih/wAvXlp0aNHi8unOurQdIk0rV7W1/kq8uIelUSVdV1eX4vqo9BI23brd48kG8DHJOpEuh4uRqQqjkvmUMAZnD5866/Uyz+UdX+qkNyvc3eB4FLh9fj1benTn35VmNyYhXfH4jYawLSX22NwNCKyKXDpDvmEO0dQlzL/KIUtvEK75DEbEqBdy+4xt9odWOS4dINgwB2DqAuZv5hGo+kp7Nu1srvednryK+oorVmrbV7VmrLW3brh4zkHEDHKuo4uhmudqQyjYvmTMIZkD5sqI23brd48kG8DHJOpEuh4uRqQqjkvmUMAZnD5868++y9iJ7XPr51h/47zbhuL4RD/l68tOjRo8Xl051bLkxCu+PxGw1gWkvtsbgaEVkUuHSHfMIdo6hLmX+UQqnoFOm42l2Wle/wAe17OBK0qiaTqyezb2I07qZZ/KOr/VSG5XubvA8Clw+vx6tvTpz78q7C1t264eM5BxAxyrqOLoZrnakMo2L5kzCGZA+bKsptvEK75DEbEqBdy+4xt9odWOS4dINgwB2DqAuZv5hGqn7L2Intc+vnWH/jvNuG4vhEP+Xry06NGjxeXTnXVoOkSaVq9ra/yVeXEPSqJKuq6vL8X1Ub6No2oLxxIDbESLp2YDuFxZJ7ixg8QnNpzMPaPjr46mWfyjq/1Uh+V7m7wPApcPr8erb06c+/KsxuTEK74/EbDWBaS+2xuBoRWRS4dId8wh2jqEuZf5RClt4hXfIYjYlQLuX3GNvtDqxyXDpBsGAOwdQFzN/MI1H0lPZt2tld7zs9eRWvorVmrbVsyrNWWtu3XDxnIOIGOVdRxdDNc7UhlGxfMmYQzIHzZURtu3W7x5IN4GOSdSJdDxcjUhVHJfMoYAzOHz51599l7ET2ufXzrD/wAd5tw3F8Ih/wAvXlp0aNHi8unOrZcmIV3x+I2GsC0l9tjcDQisilw6Q75hDtHUJcy/yiFU9Ap03G0uy0r3+Pa9nAlaVRNJ1ZPZt7Ead1Ms/lHV/qpDcr3N3geBS4fX49W3p059+Vdha27dcPGcg4gY5V1HF0M1ztSGUbF8yZhDMgfNlWU23iFd8hiNiVAu5fcY2+0OrHJcOkGwYA7B1AXM38wjVT9l7ET2ufXzrD/x3m3DcXwiH/L15adGjR4vLpzrq0HSJNK1e1tf5KvLiHpVElXVdXl+L6qPQSNt263ePJBvAxyTqRLoeLkakKo5L5lDAGZw+fOuv1Ms/lHV/qpDcr3N3geBS4fX49W3p059+VZjcmIV3x+I2GsC0l9tjcDQisilw6Q75hDtHUJcy/yiFLbxCu+QxGxKgXcvuMbfaHVjkuHSDYMAdg6gLmb+YRqPpKezbtbK73nZ68ivqKK1Zq21e1Zqy1t264eM5BxAxyrqOLoZrnakMo2L5kzCGZA+bKiNt263ePJBvAxyTqRLoeLkakKo5L5lDAGZw+fOvPvsvYie1z6+dYf+O824bi+EQ/5evLTo0aPF5dOdWy5MQrvj8RsNYFpL7bG4GhFZFLh0h3zCHaOoS5l/lEKp6BTpuNpdlpXv8e17OBK0qiaTqyezb2I07qZZ/KOr/VSG5XubvA8Clw+vx6tvTpz78q7C1t264eM5BxAxyrqOLoZrnakMo2L5kzCGZA+bKsptvEK75DEbEqBdy+4xt9odWOS4dINgwB2DqAuZv5hGqn7L2Intc+vnWH/jvNuG4vhEP+Xry06NGjxeXTnXVoOkSaVq9ra/yVeXEPSqJKuq6vL8X1Uegkbbt1u8eSDeBjknUiXQ8XI1IVRyXzKGAMzh8+ddfqZZ/KOr/VSG5XubvA8Clw+vx6tvTpz78qzG5MQrvj8RsNYFpL7bG4GhFZFLh0h3zCHaOoS5l/lEKW3iFd8hiNiVAu5fcY2+0OrHJcOkGwYA7B1AXM38wjUfSU9m3a2V3vOz15FfUUVqzVtq9qzVlrbt1w8ZyDiBjlXUcXQzXO1IZRsXzJmEMyB82VEbbt1u8eSDeBjknUiXQ8XI1IVRyXzKGAMzh8+deffZexE9rn186w/8d5tw3F8Ih/y9eWnRo0eLy6c6tlyYhXfH4jYawLSX22NwNCKyKXDpDvmEO0dQlzL/ACiFU9Ap03G0uy0r3+Pa9nAlaVRNJ1ZPZt7Ead1Ms/lHV/qpDcr3N3geBS4fX49W3p059+Vdha27dcPGcg4gY5V1HF0M1ztSGUbF8yZhDMgfNlWU23iFd8hiNiVAu5fcY2+0OrHJcOkGwYA7B1AXM38wjVT9l7ET2ufXzrD/AMd5tw3F8Ih/y9eWnRo0eLy6c66tB0iTStXtbX+Sry4h6VRJV1XV5fi+qj0Ejbdut3jyQbwMck6kS6Hi5GpCqOS+ZQwBmcPnzrr9TLP5R1f6qQ3K9zd4HgUuH1+PVt6dOfflWY3JiFd8fiNhrAtJfbY3A0IrIpcOkO+YQ7R1CXMv8ohS28Qrvf4jYlQLuX3GNvtDqxyXDpBsGAOwdQF1G/mEaj6Sns27Wyu952evIr6iitWattXtWao4tm23btk/d2/GruY0ABmso0TMo2APECZhDMmWQeLKvpG27dbvHkg3gY5J1Il0PFyNSFUcl8yhgDM4fPnXn32XsRPa59fOsP8Ax3m3DcXwiH/L15adGjR4vLpzq2XJiFd8fiNhrAtJfbY3A0IrIpcOkO+YQ7R1CXMv8ohVPQNITcbS7LSvf49r2cCVpVE+2rJ7NvYjTupln8o6v9VIble5u8DwKXD6/Hq29OnPvyqWSSSQSIggmVNNMoEIQgZFKUOwAAA8QVjdt4hXfIYjYlQLuX3GNvtDqxyXDpBsGAOwdQFzN/MI1U/ZexE9rn186w/8d5tw3F8Ih/y9eWnRo0eLy6c6fQU82k5Ltcdrvkq1s4nfq6KKrS2P/wCez/R6EW5vz1ns7XK+Ec8Tn7viNaOzl3ad/Pv0136okPJv399QQO3Jzge0zujFDIpRVUWQ1mEA7M/BDLzduWWY53uvFSwcKk8ubPTCVqtoUpSsixSlKA//2Q==;" vertex="1" parent="1">
          <mxGeometry x="90" y="10" width="531" height="1051" as="geometry" />
        </mxCell>
      </root>
    </mxGraphModel>
  </diagram>
</mxfile>
